<?xml version="1.0" ?><svg id="Layer_1_1_" style="enable-background:new 0 0 16 16;" version="1.1" viewBox="0 0 16 16" xml:space="preserve" xmlns="http://www.w3.org/2000/svg" xmlns:xlink="http://www.w3.org/1999/xlink"><path d="M13.601,3.814l0.763-0.763L12.95,1.636l-0.763,0.763C11.271,1.714,10.185,1.249,9,1.08V0H7v1.08  c-1.185,0.17-2.271,0.634-3.186,1.32L3.05,1.636L1.636,3.05l0.763,0.763C1.714,4.729,1.249,5.815,1.08,7H0v2h1.08  c0.17,1.185,0.634,2.271,1.32,3.186L1.636,12.95l1.414,1.414l0.763-0.763c0.915,0.685,2.002,1.15,3.186,1.32V16h2v-1.08  c1.185-0.17,2.271-0.634,3.186-1.32l0.763,0.763l1.414-1.414l-0.763-0.763c0.685-0.915,1.15-2.002,1.32-3.186H16V7h-1.08  C14.751,5.815,14.286,4.729,13.601,3.814z M8,11c-1.657,0-3-1.343-3-3s1.343-3,3-3s3,1.343,3,3S9.657,11,8,11z"/><circle cx="8" cy="8" r="2"/></svg>