<?xml version="1.0" encoding="iso-8859-1"?>
<!-- Generator: Adobe Illustrator 19.0.0, SVG Export Plug-In . SVG Version: 6.00 Build 0)  -->
<svg version="1.1" id="Capa_1" xmlns="http://www.w3.org/2000/svg" xmlns:xlink="http://www.w3.org/1999/xlink" x="0px" y="0px"
	 viewBox="0 0 512 512" style="enable-background:new 0 0 512 512;" xml:space="preserve">
<g>
	<g>
		<path d="M256,0c-41.353,0-75,33.647-75,75c0,41.353,33.647,75,75,75c41.353,0,75-33.647,75-75C331,33.647,297.353,0,256,0z"/>
	</g>
</g>
<g>
	<g>
		<path d="M482,300H30c-16.569,0-30,13.431-30,30c0,16.567,13.431,30,30,30v137c0,8.291,6.709,15,15,15h422c8.291,0,15-6.709,15-15
			V360c16.569,0,30-13.433,30-30C512,313.431,498.569,300,482,300z"/>
	</g>
</g>
<g>
	<g>
		<path d="M480.213,270L457.64,92.637C452.146,73.418,433.349,60,413.368,60h-53.884C360.2,64.942,361,69.864,361,75
			c0,16.143-3.964,31.267-10.503,44.945C393.058,149.817,421,199.169,421,255v15H480.213z"/>
	</g>
</g>
<g>
	<g>
		<path d="M151,75c0-5.136,0.8-10.058,1.516-15H98.632c-19.98,0-37.778,13.418-43.726,34.878L32.776,270H91v-15
			c0-55.831,27.942-105.183,70.503-135.055C154.964,106.267,151,91.143,151,75z"/>
	</g>
</g>
<g>
	<g>
		<path d="M333.71,144.968c-1.882,2.089-4.189,3.73-6.227,5.667c-0.244,2.673-0.945,5.323-2.679,7.626L271,229.991V270h120v-15
			C391,209.535,368.253,169.444,333.71,144.968z"/>
	</g>
</g>
<g>
	<g>
		<path d="M187.196,158.261c-1.734-2.303-2.435-4.953-2.679-7.626c-2.038-1.937-4.345-3.578-6.227-5.667
			C143.747,169.444,121,209.535,121,255v15h120v-40.009L187.196,158.261z"/>
	</g>
</g>
<g>
</g>
<g>
</g>
<g>
</g>
<g>
</g>
<g>
</g>
<g>
</g>
<g>
</g>
<g>
</g>
<g>
</g>
<g>
</g>
<g>
</g>
<g>
</g>
<g>
</g>
<g>
</g>
<g>
</g>
</svg>
