<?xml version="1.0" encoding="iso-8859-1"?>
<!-- Generator: Adobe Illustrator 19.0.0, SVG Export Plug-In . SVG Version: 6.00 Build 0)  -->
<svg version="1.1" id="Capa_1" xmlns="http://www.w3.org/2000/svg" xmlns:xlink="http://www.w3.org/1999/xlink" x="0px" y="0px"
	 viewBox="0 0 512 512" style="enable-background:new 0 0 512 512;" xml:space="preserve">
<g>
	<g>
		<path d="M129.789,330H106c-41.353,0-75,33.647-75,75v92c0,8.291,6.709,15,15,15h195v-70.789L129.789,330z"/>
	</g>
</g>
<g>
	<g>
		<path d="M286,360h-60c-9.814,0-19.124-1.798-28.13-4.341l58.13,58.13l58.13-58.13C305.124,358.202,295.814,360,286,360z"/>
	</g>
</g>
<g>
	<g>
		<path d="M406,330h-23.789L271,441.211V512h195c8.291,0,15-6.709,15-15v-92C481,363.647,447.353,330,406,330z M376,450h-30
			c-8.291,0-15-6.709-15-15c0-8.291,6.709-15,15-15h30c8.291,0,15,6.709,15,15C391,443.291,384.291,450,376,450z"/>
	</g>
</g>
<g>
	<g>
		<path d="M316,0H196C121.557,0,61,60.557,61,135c0,21.711,0,38.287,0,60c0,36.216,25.809,66.513,60,73.482V120h-15
			c-4.816,0-9.37,0.959-13.722,2.366C98.606,70.481,142.436,30,196,30h120c53.564,0,97.394,40.481,103.722,92.366
			C415.37,120.959,410.816,120,406,120h-15v148.482c34.191-6.969,60-37.266,60-73.482c0-21.713,0-38.289,0-60
			C451,60.557,390.443,0,316,0z"/>
	</g>
</g>
<g>
	<g>
		<path d="M151,135v15c13.172,0,71.09,0,75,0c24.814,0,45-20.186,45-45c0-2.824,0-42.336,0-45h-45C184.647,60,151,93.647,151,135z"
			/>
	</g>
</g>
<g>
	<g>
		<path d="M301,61.518c0,2.818,0,40.843,0,43.482c0,24.814,20.186,45,45,45h15v-15C361,98.784,335.191,68.487,301,61.518z"/>
	</g>
</g>
<g>
	<g>
		<path d="M346,180c-24.62,0-46.318-12.085-60-30.463C272.318,167.915,250.62,180,226,180c-4.913,0-56.681,0-60,0
			c-0.108,0-0.167,0-0.169,0H151v75c0,41.353,33.647,75,75,75h60c41.353,0,75-33.647,75-75v-75H346z"/>
	</g>
</g>
<g>
</g>
<g>
</g>
<g>
</g>
<g>
</g>
<g>
</g>
<g>
</g>
<g>
</g>
<g>
</g>
<g>
</g>
<g>
</g>
<g>
</g>
<g>
</g>
<g>
</g>
<g>
</g>
<g>
</g>
</svg>
