<?xml version="1.0" encoding="iso-8859-1"?>
<!-- Generator: Adobe Illustrator 19.0.0, SVG Export Plug-In . SVG Version: 6.00 Build 0)  -->
<svg version="1.1" id="Capa_1" xmlns="http://www.w3.org/2000/svg" xmlns:xlink="http://www.w3.org/1999/xlink" x="0px" y="0px"
	 viewBox="0 0 512 512" style="enable-background:new 0 0 512 512;" xml:space="preserve">
<g>
	<g>
		<path d="M400.233,287.933c-61.622,0-111.767,50.145-111.767,111.767s50.145,111.767,111.767,111.767S512,461.323,512,399.701
			S461.855,287.933,400.233,287.933z M416.2,463.568c0,8.825-7.141,15.967-15.967,15.967s-15.967-7.141-15.967-15.967v-79.834
			c0-8.825,7.141-15.967,15.967-15.967s15.967,7.141,15.967,15.967V463.568z M400.233,351.8c-8.818,0-15.967-7.149-15.967-15.967
			c0-8.82,7.149-15.967,15.967-15.967s15.967,7.147,15.967,15.967C416.2,344.652,409.051,351.8,400.233,351.8z"/>
	</g>
</g>
<g>
	<g>
		<path d="M47.9,128.266c-18.04,0-34.516-6.243-47.9-16.374v335.709c0,35.224,28.643,63.867,63.867,63.867V128.266H47.9z"/>
	</g>
</g>
<g>
	<g>
		<path d="M95.8,128.266v383.202h215.225c-32.943-26.356-54.493-66.393-54.493-111.767c0-5.467,1.016-10.655,1.614-15.967H143.701
			c-8.825,0-15.967-7.141-15.967-15.967V303.9c0-8.825,7.141-15.967,15.967-15.967h167.325C335.613,268.263,366.366,256,400.233,256
			c5.467,0,10.655,1.016,15.967,1.614V128.266H95.8z M336.366,256H143.701c-8.825,0-15.967-7.141-15.967-15.967
			c0-8.825,7.141-15.967,15.967-15.967h192.665c8.825,0,15.967,7.141,15.967,15.967C352.333,248.859,345.191,256,336.366,256z
			 M336.366,192.133H143.701c-8.825,0-15.967-7.141-15.967-15.967c0-8.825,7.141-15.967,15.967-15.967h192.665
			c8.825,0,15.967,7.141,15.967,15.967C352.333,184.992,345.191,192.133,336.366,192.133z"/>
	</g>
</g>
<g>
	<g>
		<path d="M159.667,319.867V351.8H265.36c4.025-11.287,8.929-22.139,15.499-31.933H159.667z"/>
	</g>
</g>
<g>
	<g>
		<path d="M368.299,48.432c0-26.506,21.394-47.9,47.9-47.9c-131.269,0-221.246,0-368.299,0C21.394,0.532,0,21.927,0,48.432
			c0,26.504,21.394,47.9,47.9,47.9c129.964,0,224.99,0,368.299,0C389.694,96.333,368.299,74.936,368.299,48.432z"/>
	</g>
</g>
<g>
</g>
<g>
</g>
<g>
</g>
<g>
</g>
<g>
</g>
<g>
</g>
<g>
</g>
<g>
</g>
<g>
</g>
<g>
</g>
<g>
</g>
<g>
</g>
<g>
</g>
<g>
</g>
<g>
</g>
</svg>
