<?xml version="1.0" encoding="iso-8859-1"?>
<!-- Generator: Adobe Illustrator 19.0.0, SVG Export Plug-In . SVG Version: 6.00 Build 0)  -->
<svg version="1.1" id="Capa_1" xmlns="http://www.w3.org/2000/svg" xmlns:xlink="http://www.w3.org/1999/xlink" x="0px" y="0px"
	 viewBox="0 0 512 512" style="enable-background:new 0 0 512 512;" xml:space="preserve">
<g>
	<g>
		<path d="M202.973,309.027c-5.859-5.859-5.859-15.352,0-21.211L234.789,256l-21.211-21.211l-10.605,10.605
			c-17.563,17.563-46.113,17.534-63.647,0c-17.618-17.618-17.545-46.102,0-63.647l10.605-10.605l-42.426-42.426l-94.378,95.468
			c-17.505,17.549-17.505,46.084,0.015,63.633l94.363,95.467l53.031-53.031c5.859-5.859,15.352-5.859,21.211,0l21.226,21.211
			c5.684,5.684,15.527,5.669,21.211,0c5.845-5.859,5.845-15.366,0-21.226L202.973,309.027z"/>
	</g>
</g>
<g>
	<g>
		<path d="M287.816,13.121c-17.548-17.475-46.084-17.519-63.632,0.015l-95.468,94.369l53.031,53.031
			c5.859,5.859,5.859,15.352,0,21.211l-21.211,21.226c-5.819,5.817-5.903,15.276,0,21.211c5.874,5.859,15.381,5.859,21.226,0
			l21.211-21.211c5.859-5.859,15.352-5.859,21.211,0L256,234.789l21.211-21.211l-10.605-10.605
			c-17.549-17.549-17.549-46.099,0-63.647c16.992-16.992,46.655-16.992,63.647,0l10.605,10.605l42.426-42.426L287.816,13.121z"/>
	</g>
</g>
<g>
	<g>
		<path d="M498.858,224.183l-94.364-95.468l-53.031,53.031c-5.859,5.859-15.352,5.859-21.211,0l-21.226-21.211
			c-5.669-5.654-15.513-5.654-21.211,0c-5.845,5.859-5.845,15.366,0,21.226l21.211,21.211c5.859,5.859,5.859,15.352,0,21.211
			L277.211,256l21.211,21.211l10.605-10.605c17.563-17.549,46.113-17.549,63.647,0c17.618,17.617,17.545,46.102,0,63.647
			l-10.605,10.605l42.422,42.422l94.367-95.464h0.015C516.378,270.267,516.378,241.732,498.858,224.183z"/>
	</g>
</g>
<g>
	<g>
		<path d="M330.253,351.464c-5.859-5.859-5.859-15.352,0-21.211l21.211-21.226c5.819-5.819,5.903-15.276,0-21.211
			c-5.859-5.874-15.366-5.845-21.226,0l-21.211,21.211c-5.859,5.859-15.352,5.859-21.211,0L256,277.211l-21.211,21.211
			l10.605,10.605c17.549,17.549,17.549,46.099,0,63.647c-17.006,17.008-46.669,16.978-63.647,0.001l-10.605-10.605l-42.426,42.426
			l95.468,94.38C232.958,507.62,244.472,512,256,512c11.514,0,23.042-4.38,31.816-13.14l95.464-94.369L330.253,351.464z"/>
	</g>
</g>
<g>
</g>
<g>
</g>
<g>
</g>
<g>
</g>
<g>
</g>
<g>
</g>
<g>
</g>
<g>
</g>
<g>
</g>
<g>
</g>
<g>
</g>
<g>
</g>
<g>
</g>
<g>
</g>
<g>
</g>
</svg>
