<?xml version="1.0" encoding="iso-8859-1"?>
<!-- Generator: Adobe Illustrator 19.0.0, SVG Export Plug-In . SVG Version: 6.00 Build 0)  -->
<svg version="1.1" id="Capa_1" xmlns="http://www.w3.org/2000/svg" xmlns:xlink="http://www.w3.org/1999/xlink" x="0px" y="0px"
	 viewBox="0 0 512 512" style="enable-background:new 0 0 512 512;" xml:space="preserve">
<g>
	<g>
		<path d="M256,0c-33.091,0-60,26.909-60,60s26.909,60,60,60s60-26.909,60-60S289.091,0,256,0z"/>
	</g>
</g>
<g>
	<g>
		<path d="M325.291,116.732C308.773,136.866,284.017,150,256,150c-28.017,0-52.773-13.134-69.291-33.268
			C164.987,135.983,151,163.766,151,195v31c0,8.291,6.709,15,15,15h180c8.291,0,15-6.709,15-15v-31
			C361,163.766,347.013,135.983,325.291,116.732z"/>
	</g>
</g>
<g>
	<g>
		<path d="M497,331H391v181h106c8.291,0,15-6.709,15-15V346C512,337.709,505.291,331,497,331z"/>
	</g>
</g>
<g>
	<g>
		<path d="M15,391c-8.291,0-15,7.709-15,16v90c0,8.291,6.709,15,15,15h106V391H15z"/>
	</g>
</g>
<g>
	<g>
		<path d="M346,271H166c-8.291,0-15,6.709-15,15c0,25.988,0,190.651,0,226c49.796,0,167.582,0,210,0c0-100.025,0-125.916,0-226
			C361,277.709,354.291,271,346,271z M286,452h-60c-8.291,0-15-6.709-15-15c0-8.291,6.709-15,15-15h15v-39.789l-4.395,4.395
			c-5.859,5.859-15.352,5.859-21.211,0c-5.859-5.859-5.859-15.352,0-21.211l30-30c4.307-4.292,10.767-5.581,16.348-3.252
			c5.61,2.314,9.258,7.793,9.258,13.857v76h15c8.291,0,15,6.709,15,15C301,445.291,294.291,452,286,452z"/>
	</g>
</g>
<g>
</g>
<g>
</g>
<g>
</g>
<g>
</g>
<g>
</g>
<g>
</g>
<g>
</g>
<g>
</g>
<g>
</g>
<g>
</g>
<g>
</g>
<g>
</g>
<g>
</g>
<g>
</g>
<g>
</g>
</svg>
