<?xml version="1.0" encoding="iso-8859-1"?>
<!-- Generator: Adobe Illustrator 19.0.0, SVG Export Plug-In . SVG Version: 6.00 Build 0)  -->
<svg version="1.1" id="Capa_1" xmlns="http://www.w3.org/2000/svg" xmlns:xlink="http://www.w3.org/1999/xlink" x="0px" y="0px"
	 viewBox="0 0 512 512" style="enable-background:new 0 0 512 512;" xml:space="preserve">
<g>
	<g>
		<path d="M407,302c-57.891,0-105,47.109-105,105s47.109,105,105,105s105-47.109,105-105S464.891,302,407,302z M437,422h-30
			c-8.291,0-15-6.709-15-15v-30c0-8.291,6.709-15,15-15c8.291,0,15,6.709,15,15v15h15c8.291,0,15,6.709,15,15
			C452,415.291,445.291,422,437,422z"/>
	</g>
</g>
<g>
	<g>
		<path d="M0,152v255c0,24.814,20.186,45,45,45h235.293C275.25,437.855,272,422.855,272,407c0-5.136,0.954-10.01,1.516-15H257
			c-8.291,0-15-6.709-15-15c0-8.291,6.709-15,15-15h23.293c18.636-52.266,68.119-90,126.707-90c15.855,0,30.855,3.25,45,8.293V152H0
			z M105,392H75c-8.291,0-15-6.709-15-15c0-8.291,6.709-15,15-15h30c8.291,0,15,6.709,15,15C120,385.291,113.291,392,105,392z
			 M105,332H75c-8.291,0-15-6.709-15-15c0-8.291,6.709-15,15-15h30c8.291,0,15,6.709,15,15C120,325.291,113.291,332,105,332z
			 M105,272H75c-8.291,0-15-6.709-15-15c0-8.291,6.709-15,15-15h30c8.291,0,15,6.709,15,15S113.291,272,105,272z M105,212H75
			c-8.291,0-15-6.709-15-15s6.709-15,15-15h30c8.291,0,15,6.709,15,15S113.291,212,105,212z M196,392h-31c-8.291,0-15-6.709-15-15
			c0-8.291,6.709-15,15-15h31c8.291,0,16,6.709,16,15C212,385.291,204.291,392,196,392z M196,332h-31c-8.291,0-15-6.709-15-15
			c0-8.291,6.709-15,15-15h31c8.291,0,16,6.709,16,15C212,325.291,204.291,332,196,332z M196,272h-31c-8.291,0-15-6.709-15-15
			c0-8.291,6.709-15,15-15h31c8.291,0,16,6.709,16,15S204.291,272,196,272z M196,212h-31c-8.291,0-15-6.709-15-15s6.709-15,15-15h31
			c8.291,0,16,6.709,16,15S204.291,212,196,212z M287,332h-30c-8.291,0-15-6.709-15-15c0-8.291,6.709-15,15-15h30
			c8.291,0,15,6.709,15,15C302,325.291,295.291,332,287,332z M287,272h-30c-8.291,0-15-6.709-15-15c0-8.291,6.709-15,15-15h30
			c8.291,0,15,6.709,15,15S295.291,272,287,272z M287,212h-30c-8.291,0-15-6.709-15-15s6.709-15,15-15h30c8.291,0,15,6.709,15,15
			S295.291,212,287,212z M377,272h-30c-8.291,0-15-6.709-15-15c0-8.291,6.709-15,15-15h30c8.291,0,15,6.709,15,15
			S385.291,272,377,272z M377,212h-30c-8.291,0-15-6.709-15-15s6.709-15,15-15h30c8.291,0,15,6.709,15,15S385.291,212,377,212z"/>
	</g>
</g>
<g>
	<g>
		<path d="M407,30h-15V15c0-8.291-6.709-15-15-15c-8.291,0-15,6.709-15,15v15h-60V15c0-8.291-6.709-15-15-15
			c-8.291,0-15,6.709-15,15v15h-92V15c0-8.291-6.709-15-15-15s-15,6.709-15,15v15H90V15c0-8.291-6.709-15-15-15S60,6.709,60,15v15
			H45C20.186,30,0,50.186,0,75v47h452V75C452,50.186,431.814,30,407,30z"/>
	</g>
</g>
<g>
</g>
<g>
</g>
<g>
</g>
<g>
</g>
<g>
</g>
<g>
</g>
<g>
</g>
<g>
</g>
<g>
</g>
<g>
</g>
<g>
</g>
<g>
</g>
<g>
</g>
<g>
</g>
<g>
</g>
</svg>
