<?xml version="1.0" encoding="iso-8859-1"?>
<!-- Generator: Adobe Illustrator 19.0.0, SVG Export Plug-In . SVG Version: 6.00 Build 0)  -->
<svg version="1.1" id="Capa_1" xmlns="http://www.w3.org/2000/svg" xmlns:xlink="http://www.w3.org/1999/xlink" x="0px" y="0px"
	 viewBox="0 0 512 512" style="enable-background:new 0 0 512 512;" xml:space="preserve">
<g>
	<g>
		<path d="M332,180c-33.091,0-60,26.909-60,60h120C392,206.909,365.091,180,332,180z"/>
	</g>
</g>
<g>
	<g>
		<path d="M332,90c-16.538,0-30,13.462-30,30c0,16.538,13.462,30,30,30c16.538,0,30-13.462,30-30C362,103.462,348.538,90,332,90z"/>
	</g>
</g>
<g>
	<g>
		<path d="M332,0c-99.412,0-180,80.588-180,180s80.588,180,180,180s180-80.588,180-180S431.412,0,332,0z M422,255
			c0,8.291-6.709,15-15,15H257c-8.291,0-15-6.709-15-15v-15c0-33.915,19.074-63.149,46.851-78.488
			C278.467,150.721,272,136.128,272,120c0-33.091,26.909-60,60-60s60,26.909,60,60c0,16.128-6.465,30.721-16.849,41.512
			C402.928,176.851,422,206.085,422,240V255z"/>
	</g>
</g>
<g>
	<g>
		<path d="M140.4,265.545l-5.217,5.217c-17.549,17.549-17.549,46.084,0,63.633l42.422,42.422
			c8.774,8.774,20.288,13.154,31.816,13.154c11.528,0,23.042-4.38,31.816-13.154l5.218-5.217
			C199.382,350.497,161.503,312.618,140.4,265.545z"/>
	</g>
</g>
<g>
	<g>
		<path d="M156.395,398.027l-42.422-42.422c-3.633-3.633-6.802-7.551-9.532-11.678l-91.279,91.254
			c-17.549,17.549-17.549,46.084,0,63.633c17.582,17.582,46.051,17.582,63.633,0l91.28-91.256
			C163.92,404.802,160,401.633,156.395,398.027z"/>
	</g>
</g>
<g>
</g>
<g>
</g>
<g>
</g>
<g>
</g>
<g>
</g>
<g>
</g>
<g>
</g>
<g>
</g>
<g>
</g>
<g>
</g>
<g>
</g>
<g>
</g>
<g>
</g>
<g>
</g>
<g>
</g>
</svg>
