<?xml version="1.0" encoding="iso-8859-1"?>
<!-- Generator: Adobe Illustrator 19.0.0, SVG Export Plug-In . SVG Version: 6.00 Build 0)  -->
<svg version="1.1" id="Capa_1" xmlns="http://www.w3.org/2000/svg" xmlns:xlink="http://www.w3.org/1999/xlink" x="0px" y="0px"
	 viewBox="0 0 512 512" style="enable-background:new 0 0 512 512;" xml:space="preserve">
<g>
	<g>
		<path d="M120,0C78.647,0,45,33.647,45,75c0,41.353,33.647,75,75,75c41.353,0,75-33.647,75-75C195,33.647,161.353,0,120,0z"/>
	</g>
</g>
<g>
	<g>
		<path d="M416.606,124.394c-5.859-5.859-15.352-5.859-21.211,0L391,128.789V105c0-24.814-20.186-45-45-45h-91
			c-8.291,0-15,6.709-15,15s6.709,15,15,15h91c8.276,0,15,6.724,15,15v23.789l-4.395-4.395c-5.859-5.859-15.352-5.859-21.211,0
			s-5.859,15.352,0,21.211l29.982,29.982c5.951,5.966,15.471,5.792,21.248,0l29.982-29.982
			C422.465,139.746,422.465,130.253,416.606,124.394z"/>
	</g>
</g>
<g>
	<g>
		<path d="M225,420h-90c-8.276,0-15-6.724-15-15v-23.789l4.395,4.395c5.859,5.859,15.352,5.859,21.211,0s5.859-15.352,0-21.211
			l-29.982-29.982c-1.388-1.392-3.051-2.496-4.896-3.259c-5.77-2.386-12.217-0.886-16.351,3.259l-29.982,29.982
			c-5.859,5.859-5.859,15.352,0,21.211s15.352,5.859,21.211,0L90,381.211V405c0,24.814,20.186,45,45,45h90c8.291,0,15-6.709,15-15
			C240,426.709,233.291,420,225,420z"/>
	</g>
</g>
<g>
	<g>
		<path d="M391,210c-41.353,0-76,33.647-76,75c0,41.353,34.647,75,76,75c41.353,0,76-33.647,76-75C467,243.647,432.353,210,391,210z
			"/>
	</g>
</g>
<g>
	<g>
		<path d="M195.571,147.559C176.45,167.468,149.713,180,120,180s-56.45-12.532-75.571-32.441C17.542,169.583,0,202.614,0,240v45
			c0,8.291,6.709,15,15,15h210c8.291,0,15-6.709,15-15v-45C240,202.614,222.458,169.583,195.571,147.559z"/>
	</g>
</g>
<g>
	<g>
		<path d="M467.571,357.559C448.45,377.468,420.713,390,391,390s-57.45-12.532-76.571-32.441C287.542,379.583,270,412.614,270,450
			v47c0,8.291,6.709,15,15,15h212c8.291,0,15-6.709,15-15v-47C512,412.614,494.458,379.583,467.571,357.559z"/>
	</g>
</g>
<g>
</g>
<g>
</g>
<g>
</g>
<g>
</g>
<g>
</g>
<g>
</g>
<g>
</g>
<g>
</g>
<g>
</g>
<g>
</g>
<g>
</g>
<g>
</g>
<g>
</g>
<g>
</g>
<g>
</g>
</svg>
