<?xml version="1.0" encoding="iso-8859-1"?>
<!-- Generator: Adobe Illustrator 19.0.0, SVG Export Plug-In . SVG Version: 6.00 Build 0)  -->
<svg version="1.1" id="Capa_1" xmlns="http://www.w3.org/2000/svg" xmlns:xlink="http://www.w3.org/1999/xlink" x="0px" y="0px"
	 viewBox="0 0 512 512" style="enable-background:new 0 0 512 512;" xml:space="preserve">
<g>
	<g>
		<path d="M256,87.438c-134.799,0-241.907,138.382-256,157.422c54.527-38.06,156.44-80.803,256-80.803
			c86.611,0,188.225,33.497,256,80.803C497.906,225.821,390.801,87.438,256,87.438z"/>
	</g>
</g>
<g>
	<g>
		<path d="M256,240.676c-8.455,0-15.324,6.869-15.324,15.324s6.868,15.324,15.324,15.324c8.455,0,15.324-6.869,15.324-15.324
			S264.455,240.676,256,240.676z"/>
	</g>
</g>
<g>
	<g>
		<path d="M305.92,198.306c-16.134-2.241-32.81-3.601-49.92-3.601c-17.112,0-33.779,1.349-49.896,3.579
			c-16.868,14.583-26.723,35.3-26.723,57.716c0,42.245,34.373,76.619,76.619,76.619s76.619-34.373,76.619-76.619
			C332.619,233.595,322.772,212.889,305.92,198.306z M256,301.971c-25.35,0-45.971-20.622-45.971-45.971
			s20.621-45.971,45.971-45.971c25.35,0,45.971,20.622,45.971,45.971S281.35,301.971,256,301.971z"/>
	</g>
</g>
<g>
	<g>
		<path d="M351.391,207.299c7.606,14.878,11.876,31.415,11.876,48.701c0,59.141-48.126,107.266-107.266,107.266
			S148.734,315.141,148.734,256c0-17.307,4.284-33.859,11.908-48.753c-50.91,12.956-104.82,36.031-153.033,69.686
			C37.227,314.043,135.501,424.562,256,424.562s218.771-110.518,248.392-147.628C456.451,243.467,402.13,220.244,351.391,207.299z"
			/>
	</g>
</g>
<g>
</g>
<g>
</g>
<g>
</g>
<g>
</g>
<g>
</g>
<g>
</g>
<g>
</g>
<g>
</g>
<g>
</g>
<g>
</g>
<g>
</g>
<g>
</g>
<g>
</g>
<g>
</g>
<g>
</g>
</svg>
