<?xml version="1.0" encoding="iso-8859-1"?>
<!-- Generator: Adobe Illustrator 19.0.0, SVG Export Plug-In . SVG Version: 6.00 Build 0)  -->
<svg version="1.1" id="Capa_1" xmlns="http://www.w3.org/2000/svg" xmlns:xlink="http://www.w3.org/1999/xlink" x="0px" y="0px"
	 viewBox="0 0 512 512" style="enable-background:new 0 0 512 512;" xml:space="preserve">
<g>
	<g>
		<path d="M15,180c-8.291,0-15,6.709-15,15c0,108.456,0,191.704,0,302c0,8.291,6.709,15,15,15s15-6.709,15-15V240h30v-60H15z"/>
	</g>
</g>
<g>
	<g>
		<path d="M225,452h-45v-30h75c8.291,0,15-6.709,15-15c0-41.353-33.647-76-75-76h-15v-31h-30v31h-15c-41.353,0-75,34.647-75,76
			c0,8.291,6.709,15,15,15h75v30h-45c-24.814,0-45,20.186-45,45c0,8.291,6.709,15,15,15s15-6.709,15-15c0-8.276,6.724-15,15-15h45
			v15c0,8.291,6.709,15,15,15s15-6.709,15-15v-15h45c8.276,0,15,6.724,15,15c0,8.291,6.709,15,15,15s15-6.709,15-15
			C270,472.186,249.814,452,225,452z"/>
	</g>
</g>
<g>
	<g>
		<path d="M467,0H330c-16.569,0-30,13.431-30,30c0,16.567,13.431,30,30,30h137c8.284,0,15-6.716,15-15V15C482,6.714,475.284,0,467,0
			z"/>
	</g>
</g>
<g>
	<g>
		<path d="M497,90H360c-16.569,0-30,13.431-30,30c0,16.567,13.431,30,30,30h137c8.284,0,15-6.716,15-15v-30
			C512,96.714,505.284,90,497,90z"/>
	</g>
</g>
<g>
	<g>
		<path d="M421,270v15c0,8.291-6.709,15-15,15c-8.291,0-15-6.709-15-15v-15h-91v61c69.893,0,141.717,0,212,0v-61H421z"/>
	</g>
</g>
<g>
	<g>
		<path d="M497,180H270v60h242v-45C512,186.714,505.284,180,497,180z"/>
	</g>
</g>
<g>
	<g>
		<path d="M421,361v15c0,8.291-6.709,15-15,15c-8.291,0-15-6.709-15-15v-15c-31.335,0-59.218,0-91,0c0,50.2,0,84.132,0,136
			c0,8.291,6.709,15,15,15c8.291,0,15-6.709,15-15v-75h152v75c0,8.291,6.709,15,15,15c8.291,0,15-6.709,15-15
			c0-51.733,0-85.582,0-136C480.228,361,452.302,361,421,361z"/>
	</g>
</g>
<g>
	<g>
		<path d="M165,90c-41.353,0-75,33.647-75,75v90c0,8.276,6.724,15,15,15h120c8.276,0,15-6.724,15-15v-90
			C240,123.647,206.353,90,165,90z"/>
	</g>
</g>
<g>
</g>
<g>
</g>
<g>
</g>
<g>
</g>
<g>
</g>
<g>
</g>
<g>
</g>
<g>
</g>
<g>
</g>
<g>
</g>
<g>
</g>
<g>
</g>
<g>
</g>
<g>
</g>
<g>
</g>
</svg>
