<?xml version="1.0" encoding="iso-8859-1"?>
<!-- Generator: Adobe Illustrator 19.0.0, SVG Export Plug-In . SVG Version: 6.00 Build 0)  -->
<svg version="1.1" id="Capa_1" xmlns="http://www.w3.org/2000/svg" xmlns:xlink="http://www.w3.org/1999/xlink" x="0px" y="0px"
	 viewBox="0 0 512 512" style="enable-background:new 0 0 512 512;" xml:space="preserve">
<g>
	<g>
		<path d="M271,0c-8.291,0-15,6.709-15,15v46c0,8.291,6.709,15,15,15c8.291,0,15-6.709,15-15V15C286,6.709,279.291,0,271,0z"/>
	</g>
</g>
<g>
	<g>
		<path d="M401.605,35.394c-5.859-5.859-15.352-5.859-21.211,0l-30,30c-5.859,5.859-5.859,15.352,0,21.211s15.352,5.86,21.211,0
			l30-30C407.464,50.746,407.464,41.253,401.605,35.394z"/>
	</g>
</g>
<g>
	<g>
		<path d="M481,211h-30c-8.291,0-15,6.709-15,15s6.709,15,15,15h30c8.291,0,15-6.709,15-15S489.291,211,481,211z"/>
	</g>
</g>
<g>
	<g>
		<path d="M61,211H31c-8.291,0-15,6.709-15,15s6.709,15,15,15h30c8.291,0,15-6.709,15-15S69.291,211,61,211z"/>
	</g>
</g>
<g>
	<g>
		<path d="M191.605,65.394l-30-30c-5.859-5.859-15.352-5.859-21.211,0c-5.859,5.859-5.859,15.352,0,21.211l30,30
			c5.86,5.86,15.352,5.86,21.211,0C197.464,80.746,197.464,71.253,191.605,65.394z"/>
	</g>
</g>
<g>
	<g>
		<path d="M97.709,107.582l-30-15c-7.427-3.691-16.406-0.703-20.127,6.709c-3.706,7.412-0.703,16.421,6.709,20.127l30,15
			c7.487,3.717,16.441,0.641,20.127-6.709C108.124,120.297,105.121,111.288,97.709,107.582z"/>
	</g>
</g>
<g>
	<g>
		<path d="M464.418,99.291c-3.706-7.412-12.73-10.4-20.127-6.709l-30,15c-7.412,3.706-10.415,12.715-6.709,20.127
			c3.686,7.35,12.64,10.426,20.127,6.709l30-15C465.121,115.712,468.124,106.703,464.418,99.291z"/>
	</g>
</g>
<g>
	<g>
		<path d="M406,316c0-51.105,0-85.422,0-135c0-16.569-13.431-30-30-30c-16.569,0-30,13.431-30,30v-30c0-16.569-13.431-30-30-30
			c-16.569,0-30,13.431-30,30v-30c0-16.569-13.431-30-30-30c-16.569,0-30,13.431-30,30v30c0-16.569-13.431-30-30-30
			c-16.569,0-30,13.431-30,30v31.516c4.942-0.716,9.864-1.516,15-1.516h75c33.091,0,60,26.909,60,60
			c0,26.863-17.853,49.382-42.23,57.008C281.318,312.45,286,328.599,286,346c0,8.291-6.709,15-15,15c-8.291,0-15-6.709-15-15
			c0-41.353-33.647-75-75-75h75c16.569,0,30-13.433,30-30c0-16.569-13.431-30-30-30c-33.342,0-41.638,0-75,0
			c-41.353,0-75,33.647-75,75v30c0,40.796,23.716,77.681,60,94.893V452c-16.569,0-30,13.431-30,30v15c0,8.284,6.716,15,15,15h210
			c8.284,0,15-6.716,15-15v-15c0-16.569-13.431-30-30-30v-41.107C382.284,393.681,406,356.796,406,316z"/>
	</g>
</g>
<g>
</g>
<g>
</g>
<g>
</g>
<g>
</g>
<g>
</g>
<g>
</g>
<g>
</g>
<g>
</g>
<g>
</g>
<g>
</g>
<g>
</g>
<g>
</g>
<g>
</g>
<g>
</g>
<g>
</g>
</svg>
