<?xml version="1.0" encoding="iso-8859-1"?>
<!-- Generator: Adobe Illustrator 19.0.0, SVG Export Plug-In . SVG Version: 6.00 Build 0)  -->
<svg version="1.1" id="Capa_1" xmlns="http://www.w3.org/2000/svg" xmlns:xlink="http://www.w3.org/1999/xlink" x="0px" y="0px"
	 viewBox="0 0 512 512" style="enable-background:new 0 0 512 512;" xml:space="preserve">
<g>
	<g>
		<path d="M484.212,140.838L283.05,258.177l178.821,149.011C493.219,364.825,512,312.629,512,256
			C512,214.539,501.843,175.479,484.212,140.838z"/>
	</g>
</g>
<g>
	<g>
		<path d="M272,0v229.878l197.197-115.029C426.061,50.213,354.183,4.818,272,0z"/>
	</g>
</g>
<g>
	<g>
		<path d="M247.391,267.528C244.294,264.934,242,259.25,242,256V0C108.384,7.831,0,120.453,0,256c0,140.61,116.39,256,257,256
			c73.204,0,139.114-32.183,185.663-81.75L247.391,267.528z"/>
	</g>
</g>
<g>
</g>
<g>
</g>
<g>
</g>
<g>
</g>
<g>
</g>
<g>
</g>
<g>
</g>
<g>
</g>
<g>
</g>
<g>
</g>
<g>
</g>
<g>
</g>
<g>
</g>
<g>
</g>
<g>
</g>
</svg>
