<?xml version="1.0" encoding="iso-8859-1"?>
<!-- Generator: Adobe Illustrator 19.0.0, SVG Export Plug-In . SVG Version: 6.00 Build 0)  -->
<svg version="1.1" id="Capa_1" xmlns="http://www.w3.org/2000/svg" xmlns:xlink="http://www.w3.org/1999/xlink" x="0px" y="0px"
	 viewBox="0 0 512 512" style="enable-background:new 0 0 512 512;" xml:space="preserve">
<g>
	<g>
		<path d="M256.008,234.725c-5.856-5.856-15.4-5.849-21.218,0c-5.887,5.856-5.854,15.41-0.015,21.218
			c5.836,5.865,15.368,5.851,21.233,0.015C261.858,250.107,261.858,240.576,256.008,234.725z"/>
	</g>
</g>
<g>
	<g>
		<path d="M298.473,192.246c-29.268-29.27-76.909-29.27-106.177,0c-29.268,29.283-29.268,76.909,0,106.177
			c28.344,28.359,77.804,28.359,106.177,0C327.816,269.08,327.816,221.587,298.473,192.246z M277.24,277.19
			c-17.567,17.567-46.131,17.567-63.698,0c-17.578-17.549-17.636-46.078,0-63.712c16.98-16.98,46.703-16.995,63.712,0.015
			C294.807,231.06,294.807,259.624,277.24,277.19z"/>
	</g>
</g>
<g>
	<g>
		<path d="M470.283,20.435c-5.865-5.865-15.368-5.865-21.233,0L308.014,161.471c19.049,14.219,34.563,36.272,84.824,62.516
			l113.546-91.128C509.933,130,512,125.703,512,121.143C512,83.106,497.19,47.328,470.283,20.435z"/>
	</g>
</g>
<g>
	<g>
		<path d="M323.224,315.198c-1.281,1.429-2.141,3.083-3.518,4.458c-23.697,23.712-55.819,33.282-86.678,29.631
			c25.525,38.434,60.283,129.758,61.823,134.379c2.038,6.129,7.772,10.264,14.239,10.264c6.467,0,12.2-4.135,14.238-10.264
			l17.816-53.433h31.658C413.075,430.217,351.559,343.597,323.224,315.198z"/>
	</g>
</g>
<g>
	<g>
		<path d="M483.715,294.801c-6.91-2.304-95.488-35.993-134.379-61.821c2.273,19.197-1.219,38.652-9.401,56.495
			c27.75,26.651,50.024,58.309,65.747,93.329c4.073,9.071,24.6,5.684,24.6-10.052v-31.658l53.433-17.816
			c6.128-2.038,10.263-7.771,10.263-14.238C493.98,302.573,489.844,296.84,483.715,294.801z"/>
	</g>
</g>
<g>
	<g>
		<path d="M161.52,307.966L20.485,449.001c-5.866,5.865-5.866,15.367,0,21.233c26.892,26.907,62.671,41.717,100.707,41.717
			c4.561,0,8.857-2.067,11.716-5.616l91.128-113.546C198.049,343.02,175.735,327.006,161.52,307.966z"/>
	</g>
</g>
<g>
	<g>
		<path d="M353.533,0.053c-4.721-0.118-9.251,1.921-12.228,5.572L231.668,141.599c16.5-2.159,33.299-0.512,49.12,5.136
			c9.256-10.031,121.119-121.622,130.898-131.4C393.685,6.348,374.066,0.789,353.533,0.053z"/>
	</g>
</g>
<g>
	<g>
		<path d="M142.136,226.518L5.587,336.607C2.053,339.451,0,343.747,0,348.293c0,22.42,5.712,43.785,15.448,63.279L146.67,280.351
			C140.559,263.009,138.893,244.469,142.136,226.518z"/>
	</g>
</g>
<g>
</g>
<g>
</g>
<g>
</g>
<g>
</g>
<g>
</g>
<g>
</g>
<g>
</g>
<g>
</g>
<g>
</g>
<g>
</g>
<g>
</g>
<g>
</g>
<g>
</g>
<g>
</g>
<g>
</g>
</svg>
