<?xml version="1.0" encoding="iso-8859-1"?>
<!-- Generator: Adobe Illustrator 19.0.0, SVG Export Plug-In . SVG Version: 6.00 Build 0)  -->
<svg version="1.1" id="Capa_1" xmlns="http://www.w3.org/2000/svg" xmlns:xlink="http://www.w3.org/1999/xlink" x="0px" y="0px"
	 viewBox="0 0 512 512" style="enable-background:new 0 0 512 512;" xml:space="preserve">
<g>
	<g>
		<path d="M256,195c-33.091,0-60,26.909-60,60s26.909,60,60,60s60-26.909,60-60S289.091,195,256,195z"/>
	</g>
</g>
<g>
	<g>
		<path d="M136,0C94.647,0,61,33.647,61,75c0,41.353,33.647,75,75,75c41.353,0,75-33.647,75-75C211,33.647,177.353,0,136,0z"/>
	</g>
</g>
<g>
	<g>
		<path d="M376,0c-41.353,0-75,33.647-75,75c0,41.353,33.647,75,75,75c41.353,0,75-33.647,75-75C451,33.647,417.353,0,376,0z"/>
	</g>
</g>
<g>
	<g>
		<path d="M256,345c-12.548,0-24.457-2.648-35.292-7.332L256,379.995l35.292-42.327C280.457,342.352,268.548,345,256,345z"/>
	</g>
</g>
<g>
	<g>
		<path d="M174.02,328.753C141.975,353.35,121,391.555,121,435v62c0,8.291,6.709,15,15,15h105V410.336L174.02,328.753z"/>
	</g>
</g>
<g>
	<g>
		<path d="M337.98,328.753L271,410.336V512h105c8.291,0,15-6.709,15-15v-62C391,391.555,370.025,353.35,337.98,328.753z"/>
	</g>
</g>
<g>
	<g>
		<path d="M453.71,144.968C434.477,166.311,406.919,180,376,180c-30.809,0-58.288-13.585-77.514-34.796
			c-8.842,6.282-17.146,13.341-24.337,21.636C315.108,175.259,346,211.586,346,255c0,13.195-3.012,25.637-8.135,36.938
			c17.283,9.932,32.681,22.787,45.315,38.062H497c8.291,0,15-6.709,15-15v-60C512,209.535,488.253,169.444,453.71,144.968z M436,240
			h-30c-8.291,0-15-6.709-15-15s6.709-15,15-15h30c8.291,0,15,6.709,15,15S444.291,240,436,240z"/>
	</g>
</g>
<g>
	<g>
		<path d="M237.851,166.84c-7.191-8.295-15.494-15.353-24.337-21.636C194.288,166.415,166.809,180,136,180
			c-30.919,0-58.477-13.689-77.71-35.032C23.747,169.444,0,209.535,0,255v60c0,8.291,6.709,15,15,15h113.82
			c12.634-15.276,28.032-28.13,45.317-38.062C169.016,280.638,166,268.195,166,255C166,211.586,196.892,175.259,237.851,166.84z
			 M106,240H76c-8.291,0-15-6.709-15-15s6.709-15,15-15h30c8.291,0,15,6.709,15,15S114.291,240,106,240z"/>
	</g>
</g>
<g>
</g>
<g>
</g>
<g>
</g>
<g>
</g>
<g>
</g>
<g>
</g>
<g>
</g>
<g>
</g>
<g>
</g>
<g>
</g>
<g>
</g>
<g>
</g>
<g>
</g>
<g>
</g>
<g>
</g>
</svg>
