<?xml version="1.0" encoding="iso-8859-1"?>
<!-- Generator: Adobe Illustrator 19.0.0, SVG Export Plug-In . SVG Version: 6.00 Build 0)  -->
<svg version="1.1" id="Capa_1" xmlns="http://www.w3.org/2000/svg" xmlns:xlink="http://www.w3.org/1999/xlink" x="0px" y="0px"
	 viewBox="0 0 512 512" style="enable-background:new 0 0 512 512;" xml:space="preserve">
<g>
	<g>
		<path d="M256,0c-24.814,0-45,20.186-45,45c0,24.814,20.186,45,45,45c24.814,0,45-20.186,45-45S280.814,0,256,0z"/>
	</g>
</g>
<g>
	<g>
		<path d="M436,422c-1.769,0-3.398,0.225-5.129,0.291L379.155,314.28C421.575,301.769,451,281.918,451,255
			c0-28.398-32.206-50.87-90.408-64.039c0.053,1.371,0.408,2.655,0.408,4.039v60c0,8.291-6.709,15-15,15H166
			c-8.291,0-15-6.709-15-15v-60c0-1.384,0.355-2.668,0.408-4.039C93.206,204.13,61,226.602,61,255
			c0,26.918,29.425,46.769,71.845,59.28L81.129,422.291C79.398,422.225,77.769,422,76,422c-42.759,0-76,19.351-76,45
			s33.241,45,76,45c42.759,0,75-19.351,75-45c0-17.668-15.5-32.17-38.996-39.595l50.698-105.925
			c24.351,4.739,51.13,7.526,78.298,8.271v93.1c-35.068,3.946-60,21.603-60,44.149c0,25.649,32.241,45,75,45
			c42.759,0,75-19.351,75-45c0-22.546-24.932-40.203-60-44.149v-93.1c27.167-0.745,53.947-3.532,78.298-8.271l50.698,105.925
			C376.5,434.83,361,449.332,361,467c0,25.649,32.241,45,75,45c42.759,0,76-19.351,76-45S478.759,422,436,422z"/>
	</g>
</g>
<g>
	<g>
		<path d="M256,120c-41.353,0-75,33.647-75,75v45h150v-45C331,153.647,297.353,120,256,120z"/>
	</g>
</g>
<g>
</g>
<g>
</g>
<g>
</g>
<g>
</g>
<g>
</g>
<g>
</g>
<g>
</g>
<g>
</g>
<g>
</g>
<g>
</g>
<g>
</g>
<g>
</g>
<g>
</g>
<g>
</g>
<g>
</g>
</svg>
