<?xml version="1.0" encoding="iso-8859-1"?>
<!-- Generator: Adobe Illustrator 19.0.0, SVG Export Plug-In . SVG Version: 6.00 Build 0)  -->
<svg version="1.1" id="Capa_1" xmlns="http://www.w3.org/2000/svg" xmlns:xlink="http://www.w3.org/1999/xlink" x="0px" y="0px"
	 viewBox="0 0 512 512" style="enable-background:new 0 0 512 512;" xml:space="preserve">
<g>
	<g>
		<path d="M286,330h-15v61h15c8.276,0,15-6.724,15-15v-31C301,336.724,294.276,330,286,330z"/>
	</g>
</g>
<g>
	<g>
		<path d="M226.001,240c-8.276,0-15,6.724-15,15v30c0,8.276,6.724,15,15,15h15v-60H226.001z"/>
	</g>
</g>
<g>
	<g>
		<path d="M423.607,161.923c6.378,5.378,15.862,4.444,21.123-1.846l38.569-45.967c5.332-6.343,4.497-15.806-1.846-21.123
			l-45.967-38.569c-6.526-5.464-15.93-4.343-21.138,1.846l-38.555,45.967c-5.317,6.343-4.482,15.806,1.86,21.123l11.479,9.635
			l-19.818,23.628c-20.246-14.529-43.339-25.234-68.317-31.166V120c33.091,0,60-26.909,60-60S334.091,0,301,0h-90
			c-33.091,0-60,26.909-60,60s26.909,60,60,60v5.451c-24.977,5.933-48.071,16.637-68.317,31.166l-19.818-23.628l11.479-9.635
			c6.344-5.317,7.178-14.78,1.861-21.123L97.651,56.265c-5.158-6.132-14.573-7.368-21.138-1.846L30.547,92.988
			c-6.343,5.317-7.178,14.78-1.846,21.123l38.569,45.967c5.261,6.29,14.745,7.224,21.123,1.846l11.488-9.642l19.766,23.566
			C83.511,211.262,61,260.53,61,315c0,107.52,87.48,197,195,197s195-89.48,195-197c0-54.47-22.511-103.738-58.647-139.153
			l19.766-23.566L423.607,161.923z M181.001,60c0-16.538,13.462-30,30-30h90c16.538,0,30,13.462,30,30s-13.462,30-30,30V75
			c0-8.291-6.709-15-15-15h-60c-8.291,0-15,6.709-15,15v15C194.463,90,181.001,76.538,181.001,60z M286,300
			c24.814,0,45,20.186,45,45v31c0,24.814-20.186,45-45,45h-15v15c0,8.291-6.709,15-15,15c-8.291,0-15-6.709-15-15v-15h-15
			c-24.814,0-45-20.186-45-45c0-8.291,6.709-15,15-15s15,6.709,15,15c0,8.276,6.724,15,15,15h15v-61h-15c-24.814,0-45-20.186-45-45
			v-30c0-24.814,20.186-45,45-45h15v-15c0-8.291,6.709-15,15-15c8.291,0,15,6.709,15,15v15h15c24.814,0,45,20.186,45,45
			c0,8.291-6.709,15-15,15c-8.291,0-15-6.709-15-15c0-8.276-6.724-15-15-15h-15v60H286z"/>
	</g>
</g>
<g>
</g>
<g>
</g>
<g>
</g>
<g>
</g>
<g>
</g>
<g>
</g>
<g>
</g>
<g>
</g>
<g>
</g>
<g>
</g>
<g>
</g>
<g>
</g>
<g>
</g>
<g>
</g>
<g>
</g>
</svg>
