<?xml version="1.0" encoding="iso-8859-1"?>
<!-- Generator: Adobe Illustrator 19.0.0, SVG Export Plug-In . SVG Version: 6.00 Build 0)  -->
<svg version="1.1" id="Capa_1" xmlns="http://www.w3.org/2000/svg" xmlns:xlink="http://www.w3.org/1999/xlink" x="0px" y="0px"
	 viewBox="0 0 512 512" style="enable-background:new 0 0 512 512;" xml:space="preserve">
<g>
	<g>
		<path d="M499.442,179.916c-2.461-7.91-10.898-12.378-18.779-9.844c-7.91,2.461-12.319,10.869-9.844,18.779
			C477.572,210.502,482,233.104,482,256c0,124.072-101.928,226-226,226c-70.968,0-137.589-34.975-179.802-91H106
			c8.291,0,15-6.709,15-15c0-8.291-6.709-15-15-15H46c-8.291,0-15,6.709-15,15v60c0,8.291,6.709,15,15,15s15-6.709,15-15v-16.458
			C109.016,476.583,180.209,512,256,512c140.61,0,256-115.39,256-256C512,230.058,507.118,204.467,499.442,179.916z"/>
	</g>
</g>
<g>
	<g>
		<path d="M466,61c-8.291,0-15,6.709-15,15v16.456C402.984,35.415,331.791,0,256,0C115.39,0,0,115.39,0,256
			c0,26.045,4.911,51.738,12.646,76.377c2.488,7.936,10.938,12.283,18.808,9.814c7.896-2.476,12.29-10.898,9.814-18.809
			C34.457,301.674,30,278.998,30,256C30,131.928,131.928,30,256,30c70.968,0,137.589,34.975,179.802,91H406c-8.291,0-15,6.709-15,15
			s6.709,15,15,15h60c8.291,0,15-6.709,15-15V76C481,67.709,474.291,61,466,61z"/>
	</g>
</g>
<g>
	<g>
		<path d="M351.464,330.253l31.254,31.254c20.859-25.01,34.417-56.265,37.522-90.507H376c-8.291,0-15-6.709-15-15
			c0-8.291,6.709-15,15-15h44.24c-3.105-34.243-16.663-65.497-37.522-90.507l-31.254,31.254c-5.859,5.859-15.352,5.859-21.211,0
			c-5.859-5.859-5.859-15.352,0-21.211l31.254-31.254c-25.01-20.86-56.264-34.417-90.507-37.522V136c0,8.291-6.709,15-15,15
			c-8.291,0-15-6.709-15-15V91.76c-34.243,3.105-65.497,16.663-90.507,37.522l31.254,31.254c5.859,5.859,5.859,15.352,0,21.211
			c-5.859,5.859-15.352,5.859-21.211,0l-31.254-31.254c-20.86,25.01-34.417,56.264-37.522,90.507H136c8.291,0,15,6.709,15,15
			s-6.709,15-15,15H91.76c3.105,34.243,16.663,65.497,37.522,90.507l31.254-31.254c5.859-5.859,15.352-5.859,21.211,0
			s5.859,15.352,0,21.211l-31.254,31.254c25.01,20.859,56.265,34.417,90.507,37.522V376c0-8.291,6.709-15,15-15s15,6.709,15,15
			v44.24c34.243-3.105,65.497-16.663,90.507-37.522l-31.254-31.254c-5.859-5.859-5.859-15.352,0-21.211
			S345.605,324.394,351.464,330.253z M286,271h-30c-8.291,0-15-6.709-15-15v-60c0-8.291,6.709-15,15-15s15,6.709,15,15v45h15
			c8.291,0,15,6.709,15,15S294.291,271,286,271z"/>
	</g>
</g>
<g>
</g>
<g>
</g>
<g>
</g>
<g>
</g>
<g>
</g>
<g>
</g>
<g>
</g>
<g>
</g>
<g>
</g>
<g>
</g>
<g>
</g>
<g>
</g>
<g>
</g>
<g>
</g>
<g>
</g>
</svg>
