<?xml version="1.0" encoding="iso-8859-1"?>
<!-- Generator: Adobe Illustrator 19.0.0, SVG Export Plug-In . SVG Version: 6.00 Build 0)  -->
<svg version="1.1" id="Capa_1" xmlns="http://www.w3.org/2000/svg" xmlns:xlink="http://www.w3.org/1999/xlink" x="0px" y="0px"
	 viewBox="0 0 512 512" style="enable-background:new 0 0 512 512;" xml:space="preserve">
<g>
	<g>
		<path d="M105,392c-8.276,0-15,6.724-15,15s6.724,15,15,15s15-6.724,15-15S113.276,392,105,392z"/>
	</g>
</g>
<g>
	<g>
		<path d="M347,60h-30c0,33.091-26.909,60-60,60H135c-33.091,0-60-26.909-60-60H45C20.186,60,0,80.186,0,105v362
			c0,24.814,20.186,45,45,45h302c24.814,0,45-20.186,45-45V105C392,80.186,371.814,60,347,60z M64.395,175.605
			c-5.859-5.859-5.859-15.352,0-21.211s15.352-5.859,21.211,0L105,173.789l19.395-19.395c5.859-5.859,15.352-5.859,21.211,0
			s5.859,15.352,0,21.211L126.211,195l19.395,19.395c5.859,5.859,5.859,15.352,0,21.211c-5.859,5.859-15.352,5.859-21.211,0
			L105,216.211l-19.395,19.395c-5.859,5.859-15.352,5.859-21.211,0c-5.859-5.859-5.859-15.352,0-21.211L83.789,195L64.395,175.605z
			 M105,452c-24.814,0-45-20.186-45-45c0-19.53,12.578-36.024,30-42.237V315c0-24.814,20.186-45,45-45h122c8.276,0,15-6.724,15-15
			v-53.789l-4.395,4.395c-5.859,5.859-15.352,5.859-21.211,0c-5.859-5.859-5.859-15.352,0-21.211l30-30
			c5.859-5.859,15.352-5.859,21.211,0l30,30c5.86,5.859,5.86,15.351,0,21.21c-5.859,5.859-15.352,5.859-21.211,0L302,201.211V255
			c0,24.814-20.186,45-45,45H135c-8.276,0-15,6.724-15,15v49.763c17.422,6.213,30,22.707,30,42.237C150,431.814,129.814,452,105,452
			z M327.605,426.395c5.859,5.859,5.859,15.352,0,21.211s-15.352,5.859-21.211,0L287,428.211l-19.395,19.395
			c-5.859,5.859-15.352,5.859-21.211,0c-5.859-5.859-5.859-15.352,0-21.211L265.789,407l-19.395-19.395
			c-5.859-5.859-5.859-15.352,0-21.211c5.859-5.859,15.352-5.859,21.211,0L287,385.789l19.395-19.395
			c5.859-5.859,15.352-5.859,21.211,0s5.859,15.352,0,21.211L308.211,407L327.605,426.395z"/>
	</g>
</g>
<g>
	<g>
		<path d="M257,30h-29.154l-3.545-9.99C220.053,8.042,208.686,0,196,0c-12.686,0-24.053,8.042-28.301,20.01L164.154,30H135
			c-16.538,0-30,13.462-30,30s13.462,30,30,30h122c16.538,0,30-13.462,30-30S273.538,30,257,30z"/>
	</g>
</g>
<g>
	<g>
		<path d="M422,210v182.383C434.574,382.865,450.052,377,467,377s32.426,5.865,45,15.383V210H422z"/>
	</g>
</g>
<g>
	<g>
		<path d="M467,120c-24.814,0-45,20.186-45,45v15h90v-15C512,140.186,491.814,120,467,120z"/>
	</g>
</g>
<g>
	<g>
		<path d="M467,407c-15.348,0-28.89,7.747-37.017,19.51l23.599,47.199C456.131,478.792,461.316,482,467,482
			c5.684,0,10.869-3.208,13.418-8.291l23.599-47.199C495.89,414.747,482.348,407,467,407z"/>
	</g>
</g>
<g>
</g>
<g>
</g>
<g>
</g>
<g>
</g>
<g>
</g>
<g>
</g>
<g>
</g>
<g>
</g>
<g>
</g>
<g>
</g>
<g>
</g>
<g>
</g>
<g>
</g>
<g>
</g>
<g>
</g>
</svg>
