<?xml version="1.0" encoding="iso-8859-1"?>
<!-- Generator: Adobe Illustrator 19.0.0, SVG Export Plug-In . SVG Version: 6.00 Build 0)  -->
<svg version="1.1" id="Capa_1" xmlns="http://www.w3.org/2000/svg" xmlns:xlink="http://www.w3.org/1999/xlink" x="0px" y="0px"
	 viewBox="0 0 512 512" style="enable-background:new 0 0 512 512;" xml:space="preserve">
<g>
	<g>
		<path d="M394.371,247.5L283.49,136.608l22.456,149.736l24.792,24.789c2.813,2.813,6.621,4.395,10.605,4.395h42.422
			c8.291,0,15-6.709,15-15v-42.423h0.001C398.766,254.121,397.184,250.312,394.371,247.5z"/>
	</g>
</g>
<g>
	<g>
		<path d="M275.412,6.225C272.584,2.314,268.058,0,263.239,0h-120c-4.819,0-9.346,2.314-12.173,6.226
			c-2.813,3.911-3.589,8.95-2.051,13.521L152.433,90h101.613l23.417-70.254C279.001,15.176,278.225,10.137,275.412,6.225z"/>
	</g>
</g>
<g>
	<g>
		<path d="M293.078,403.773L250.663,120h-94.849l-42.415,283.773c-0.63,4.233,0.571,8.54,3.311,11.836l75,91
			c2.856,3.413,7.075,5.391,11.528,5.391s8.672-1.978,11.528-5.391l75-91C292.506,412.313,293.708,408.007,293.078,403.773z"/>
	</g>
</g>
<g>
</g>
<g>
</g>
<g>
</g>
<g>
</g>
<g>
</g>
<g>
</g>
<g>
</g>
<g>
</g>
<g>
</g>
<g>
</g>
<g>
</g>
<g>
</g>
<g>
</g>
<g>
</g>
<g>
</g>
</svg>
