<?xml version="1.0" encoding="iso-8859-1"?>
<!-- Generator: Adobe Illustrator 19.0.0, SVG Export Plug-In . SVG Version: 6.00 Build 0)  -->
<svg version="1.1" id="Capa_1" xmlns="http://www.w3.org/2000/svg" xmlns:xlink="http://www.w3.org/1999/xlink" x="0px" y="0px"
	 viewBox="0 0 512.001 512.001" style="enable-background:new 0 0 512.001 512.001;" xml:space="preserve">
<g>
	<g>
		<path d="M256,120.995c-57.991,0-105.001,47.011-105.001,105.001c0,25.258,9.285,48.121,24.144,66.236
			c8.187-16.923,21.356-30.801,37.634-39.812c-10.336-10.783-16.778-25.338-16.778-41.424c0-33.091,26.909-60.001,60.001-60.001
			c33.091,0,60.001,26.909,60.001,60.001c0,16.086-6.442,30.641-16.778,41.424c16.278,9.011,29.447,22.888,37.634,39.812
			c14.859-18.115,24.144-40.978,24.144-66.236C361.001,168.005,313.991,120.995,256,120.995z"/>
	</g>
</g>
<g>
	<g>
		<path d="M256,180.996c-16.538,0-30,13.462-30,30c0,16.538,13.462,30,30,30c16.538,0,30-13.462,30-30
			C286,194.458,272.538,180.996,256,180.996z"/>
	</g>
</g>
<g>
	<g>
		<path d="M477.857,216.797l-32.271-41.602l7.148-52.164c0.923-6.782-2.856-13.33-9.199-15.923l-48.751-19.893L374.89,38.464
			c-2.607-6.343-9.229-10.049-15.923-9.199l-52.164,7.148l-41.604-33.27c-5.42-4.189-12.979-4.189-18.398,0l-41.602,33.271
			l-52.164-7.148c-6.797-0.864-13.33,2.856-15.923,9.199l-19.893,48.751l-48.751,19.893c-6.343,2.593-10.122,9.141-9.199,15.923
			l7.148,52.164l-32.271,41.603c-4.203,5.418-4.203,12.977,0.002,18.397l32.271,41.603l-7.148,52.164
			c-0.923,6.782,2.856,13.33,9.199,15.923l48.751,19.893l19.893,48.751c2.593,6.343,9.141,10.005,15.923,9.199l52.164-7.148
			l41.602,32.271c2.71,2.095,5.962,3.149,9.199,3.149c3.237,0,6.489-1.055,9.199-3.149l41.602-32.271l52.164,7.148
			c6.68,0.791,13.315-2.856,15.923-9.199l19.893-48.751l48.751-19.893c6.343-2.593,10.122-9.141,9.199-15.923l-7.148-52.164
			l32.271-41.603C482.061,229.775,482.061,222.216,477.857,216.797z M256,360.998c-80.033,0-135.002-66.545-135.002-135.002
			c0-74.56,60.442-135.002,135.002-135.002s135.002,60.442,135.002,135.002C391.002,297.791,331.929,360.998,256,360.998z"/>
	</g>
</g>
<g>
	<g>
		<path d="M256,270.997c-26.673,0-49.848,17.908-57.34,42.809c16.501,10.798,36.149,17.192,57.34,17.192
			c21.19,0,40.839-6.394,57.34-17.192C305.848,288.904,282.673,270.997,256,270.997z"/>
	</g>
</g>
<g>
	<g>
		<path d="M507.609,395.392l-36.233-35.233c-4.51,5.195-9.798,9.76-16.49,12.499l-37.09,15.132l-15.132,37.076
			c-6.987,17.021-23.423,27.964-41.88,27.964h-1.772l-3.574-0.308l-6.725-0.921l51.521,55.682c3.911,4.169,9.783,5.658,15.044,4.131
			c5.391-1.538,9.478-5.962,10.576-11.47l13.066-66.348l61.235-12.935c5.376-1.156,9.682-5.141,11.235-10.414
			C512.941,404.973,511.491,399.274,507.609,395.392z"/>
	</g>
</g>
<g>
	<g>
		<path d="M155.085,452.729l-3.911,0.117c-18.472,0-34.893-10.986-41.836-27.964l-15.132-37.09l-37.074-15.133
			c-6.7-2.741-11.992-7.304-16.503-12.501L4.392,395.392c-3.882,3.882-5.332,9.58-3.78,14.854
			c1.553,5.273,5.859,9.258,11.235,10.415l61.235,12.935l13.066,66.348c1.099,5.508,5.186,9.932,10.576,11.47
			c5.306,1.54,11.146,0,15.059-4.131l51.479-55.676L155.085,452.729z"/>
	</g>
</g>
<g>
</g>
<g>
</g>
<g>
</g>
<g>
</g>
<g>
</g>
<g>
</g>
<g>
</g>
<g>
</g>
<g>
</g>
<g>
</g>
<g>
</g>
<g>
</g>
<g>
</g>
<g>
</g>
<g>
</g>
</svg>
