<?xml version="1.0" encoding="iso-8859-1"?>
<!-- Generator: Adobe Illustrator 19.0.0, SVG Export Plug-In . SVG Version: 6.00 Build 0)  -->
<svg version="1.1" id="Capa_1" xmlns="http://www.w3.org/2000/svg" xmlns:xlink="http://www.w3.org/1999/xlink" x="0px" y="0px"
	 viewBox="0 0 512 512" style="enable-background:new 0 0 512 512;" xml:space="preserve">
<g>
	<g>
		<path d="M452,361.518V345c0-24.814-20.186-45-45-45H271v-30.892c14.967-1.763,29.13-6.088,42.255-12.272
			c4.717-17.737,2.424-35.711-7.495-50.381C294.555,189.888,275.951,180,256,180c-25.21,0-47.9,15.923-56.455,39.624
			c-4.349,12.039-4.536,24.556-1.232,36.976c13.246,6.301,27.556,10.708,42.687,12.499V300H106c-24.814,0-45,20.186-45,45v16.518
			C26.809,368.487,0,399.784,0,436c0,41.353,34.647,76,76,76s75-34.647,75-76c0-36.216-25.809-67.513-60-74.482V345
			c0-8.276,6.724-15,15-15h135v31.518c-34.191,6.969-60,38.266-60,74.482c0,41.353,33.647,76,75,76c41.353,0,75-34.647,75-76
			c0-36.216-25.809-67.513-60-74.482V330h136c8.276,0,15,6.724,15,15v16.518c-34.191,6.969-60,38.266-60,74.482
			c0,41.353,33.647,76,75,76c41.353,0,75-34.647,75-76C512,399.784,486.191,368.487,452,361.518z"/>
	</g>
</g>
<g>
	<g>
		<path d="M256,90c-16.538,0-30,13.462-30,30c0,16.538,13.462,30,30,30c16.538,0,30-13.462,30-30C286,103.462,272.538,90,256,90z"/>
	</g>
</g>
<g>
	<g>
		<path d="M256,0c-74.559,0-135,60.441-135,135c0,39.999,17.732,75.551,45.37,100.27c0.465-8.692,1.891-17.353,4.948-25.827
			c7.575-20.986,22.645-37.733,41.413-48.078C202.423,150.588,196,136.06,196,120c0-33.091,26.909-60,60-60s60,26.909,60,60
			c0,16.024-6.401,30.518-16.666,41.288c12.315,6.785,23.137,16.335,31.27,28.365c9.346,13.815,14.079,29.522,14.888,45.731
			C373.208,210.661,391,175.063,391,135C391,60.441,330.559,0,256,0z"/>
	</g>
</g>
<g>
</g>
<g>
</g>
<g>
</g>
<g>
</g>
<g>
</g>
<g>
</g>
<g>
</g>
<g>
</g>
<g>
</g>
<g>
</g>
<g>
</g>
<g>
</g>
<g>
</g>
<g>
</g>
<g>
</g>
</svg>
