<?xml version="1.0" encoding="iso-8859-1"?>
<!-- Generator: Adobe Illustrator 19.0.0, SVG Export Plug-In . SVG Version: 6.00 Build 0)  -->
<svg version="1.1" id="Capa_1" xmlns="http://www.w3.org/2000/svg" xmlns:xlink="http://www.w3.org/1999/xlink" x="0px" y="0px"
	 viewBox="0 0 512 512" style="enable-background:new 0 0 512 512;" xml:space="preserve">
<g>
	<g>
		<path d="M255.998,0C151.461-0.179,60.122,85.786,60.993,196.889c0.452,57.73,25.891,114.247,76.539,153.606
			c5.74,4.46,9.104,7.092,11.041,10.503h92.436v-61.001h-75.001c-8.291,0-15-6.709-15-15v-30c0-42.018,24.976-78.09,60.721-94.859
			c-9.666-10.655-15.72-24.653-15.72-40.143c0-33.091,26.909-60.001,60.001-60.001c33.091,0,60.001,26.909,60.001,60.001
			c0,15.489-6.053,29.487-15.72,40.143c35.744,16.769,60.721,52.842,60.721,94.859v30c0,8.291-6.709,15-15,15H271.01v61.001h92.458
			c1.849-3.155,4.98-5.66,10.405-9.902c51.752-40.444,77.14-98.433,77.14-156.1C451.013,88.179,364.648,0.185,255.998,0z"/>
	</g>
</g>
<g>
	<g>
		<path d="M256.011,89.994c-16.538,0-30,13.462-30,30c0,16.538,13.462,30,30,30s30-13.462,30-30
			C286.011,103.457,272.549,89.994,256.011,89.994z"/>
	</g>
</g>
<g>
	<g>
		<path d="M151.009,390.999v15c0,24.814,20.186,46.001,45.001,46.001h120.002c24.814,0,45.001-21.186,45.001-46.001v-15H151.009z"/>
	</g>
</g>
<g>
	<g>
		<path d="M256.011,179.996c-41.354,0-75.001,33.648-75.001,75.001v15h150.002v-15C331.012,213.643,297.364,179.996,256.011,179.996
			z"/>
	</g>
</g>
<g>
	<g>
		<path d="M181.01,482c0,16.567,13.431,30,30,30h90.001c16.569,0,30-13.433,30-30H181.01z"/>
	</g>
</g>
<g>
</g>
<g>
</g>
<g>
</g>
<g>
</g>
<g>
</g>
<g>
</g>
<g>
</g>
<g>
</g>
<g>
</g>
<g>
</g>
<g>
</g>
<g>
</g>
<g>
</g>
<g>
</g>
<g>
</g>
</svg>
