<?xml version="1.0" encoding="iso-8859-1"?>
<!-- Generator: Adobe Illustrator 19.0.0, SVG Export Plug-In . SVG Version: 6.00 Build 0)  -->
<svg version="1.1" id="Capa_1" xmlns="http://www.w3.org/2000/svg" xmlns:xlink="http://www.w3.org/1999/xlink" x="0px" y="0px"
	 viewBox="0 0 512 512" style="enable-background:new 0 0 512 512;" xml:space="preserve">
<g>
	<g>
		<path d="M496.996,331.994h-15V59.999h15c8.291,0,15-6.709,15-15s-6.709-15-15-15c-128.624,0-98.196,0-225.996,0V15
			c0-8.291-6.709-15-15-15c-8.291,0-15,6.709-15,15v15c-127.8,0-97.097,0-225.996,0c-8.291,0-15,6.709-15,15s6.709,15,15,15h15
			v271.995h-15c-8.291,0-15,6.709-15,15s6.709,15,15,15c72.551,0,118.74,0,188.839,0l-51.772,129.432
			c-3.076,7.69,0.674,16.421,8.364,19.497c7.604,3.065,16.406-0.617,19.497-8.364l32.227-80.566h28.843v44.999
			c0,8.291,6.709,15,15,15c8.291,0,15-6.709,15-15v-44.999h28.842l32.226,80.565c3.091,7.747,11.893,11.429,19.497,8.364
			c7.69-3.076,11.44-11.807,8.364-19.497l-51.773-129.431c70.099,0,116.289,0,188.839,0c8.291,0,15-6.709,15-15
			S505.287,331.994,496.996,331.994z M181.001,286.995c0,8.291-6.709,15-15,15h-59.999c-8.291,0-15-6.709-15-15v-59.999
			c0-8.291,6.709-15,15-15h59.999c8.291,0,15,6.709,15,15V286.995z M241,391.993h-16.842l11.999-29.999H241V391.993z M271,391.993
			v-29.999h4.843l11.999,29.999H271z M300.999,286.995c0,8.291-6.709,15-15,15h-59.999c-8.291,0-15-6.709-15-15V166.997
			c0-8.291,6.709-15,15-15H286c8.291,0,15,6.709,15,15V286.995z M420.997,286.995c0,8.291-6.709,15-15,15h-59.999
			c-8.291,0-15-6.709-15-15V106.998c0-8.291,6.709-15,15-15h59.999c8.291,0,15,6.709,15,15V286.995z"/>
	</g>
</g>
<g>
	<g>
		<rect x="240.996" y="181.997" width="29.999" height="89.998"/>
	</g>
</g>
<g>
	<g>
		<rect x="120.998" y="241.996" width="30" height="29.999"/>
	</g>
</g>
<g>
	<g>
		<rect x="360.994" y="121.998" width="30" height="149.997"/>
	</g>
</g>
<g>
</g>
<g>
</g>
<g>
</g>
<g>
</g>
<g>
</g>
<g>
</g>
<g>
</g>
<g>
</g>
<g>
</g>
<g>
</g>
<g>
</g>
<g>
</g>
<g>
</g>
<g>
</g>
<g>
</g>
</svg>
