<?xml version="1.0" encoding="iso-8859-1"?>
<!-- Generator: Adobe Illustrator 19.0.0, SVG Export Plug-In . SVG Version: 6.00 Build 0)  -->
<svg version="1.1" id="Capa_1" xmlns="http://www.w3.org/2000/svg" xmlns:xlink="http://www.w3.org/1999/xlink" x="0px" y="0px"
	 viewBox="0 0 512 512" style="enable-background:new 0 0 512 512;" xml:space="preserve">
<g>
	<g>
		<path d="M467,422h-15v-15c0-24.814-20.186-45-45-45H271v-30h45c24.814,0,46-20.186,46-45v-62c0-24.814-21.186-45-46-45h-45v-30
			h136c24.814,0,45-20.186,45-45V90h15c24.814,0,45-20.186,45-45c0-24.814-20.186-45-45-45h-60c-24.814,0-45,20.186-45,45
			c0,24.814,20.186,45,45,45h15v15c0,8.276-6.724,15-15,15H271V90h15c24.814,0,45-20.186,45-45c0-24.814-20.186-45-45-45h-60
			c-24.814,0-45,20.186-45,45c0,24.814,20.186,45,45,45h15v30H105c-8.276,0-15-6.724-15-15V90h15c24.814,0,45-20.186,45-45
			c0-24.814-20.186-45-45-45H45C20.186,0,0,20.186,0,45c0,24.814,20.186,45,45,45h15v15c0,24.814,20.186,45,45,45h136v30h-45
			c-24.814,0-46,20.186-46,45v62c0,24.814,21.186,45,46,45h45v30H105c-24.814,0-45,20.186-45,45v15H45c-24.814,0-45,20.186-45,45
			c0,24.814,20.186,45,45,45h60c24.814,0,45-20.186,45-45c0-24.814-20.186-45-45-45H90v-15c0-8.276,6.724-15,15-15h136v30h-15
			c-24.814,0-45,20.186-45,45c0,24.814,20.186,45,45,45h60c24.814,0,45-20.186,45-45c0-24.814-20.186-45-45-45h-15v-30h136
			c8.276,0,15,6.724,15,15v15h-15c-24.814,0-45,20.186-45,45c0,24.814,20.186,45,45,45h60c24.814,0,45-20.186,45-45
			C512,442.186,491.814,422,467,422z"/>
	</g>
</g>
<g>
</g>
<g>
</g>
<g>
</g>
<g>
</g>
<g>
</g>
<g>
</g>
<g>
</g>
<g>
</g>
<g>
</g>
<g>
</g>
<g>
</g>
<g>
</g>
<g>
</g>
<g>
</g>
<g>
</g>
</svg>
