<?xml version="1.0" encoding="iso-8859-1"?>
<!-- Generator: Adobe Illustrator 19.0.0, SVG Export Plug-In . SVG Version: 6.00 Build 0)  -->
<svg version="1.1" id="Capa_1" xmlns="http://www.w3.org/2000/svg" xmlns:xlink="http://www.w3.org/1999/xlink" x="0px" y="0px"
	 viewBox="0 0 512 512" style="enable-background:new 0 0 512 512;" xml:space="preserve">
<g>
	<g>
		<path d="M467,240H45c-24.814,0-45,20.186-45,45v182c0,24.814,20.186,45,45,45h422c24.814,0,45-20.186,45-45V285
			C512,260.186,491.814,240,467,240z M317,390H195c-24.814,0-45-20.186-45-45c0-24.814,20.186-45,45-45h122
			c24.814,0,45,20.186,45,45C362,369.814,341.814,390,317,390z"/>
	</g>
</g>
<g>
	<g>
		<path d="M317,330H195c-8.276,0-15,6.724-15,15s6.724,15,15,15h122c8.276,0,15-6.724,15-15S325.276,330,317,330z"/>
	</g>
</g>
<g>
	<g>
		<path d="M135,0H75C50.186,0,30,20.186,30,45v15h150V45C180,20.186,159.814,0,135,0z"/>
	</g>
</g>
<g>
	<g>
		<path d="M30,90v120h150V90H30z M120,150H90c-8.291,0-15-6.709-15-15s6.709-15,15-15h30c8.291,0,15,6.709,15,15
			S128.291,150,120,150z"/>
	</g>
</g>
<g>
	<g>
		<path d="M437,30h-60c-24.814,0-45,20.186-45,45v75h150V75C482,50.186,461.814,30,437,30z M422,120h-30c-8.291,0-15-6.709-15-15
			s6.709-15,15-15h30c8.291,0,15,6.709,15,15S430.291,120,422,120z"/>
	</g>
</g>
<g>
	<g>
		<rect x="332" y="180" width="150" height="30"/>
	</g>
</g>
<g>
	<g>
		<path d="M256,60c-24.853,0-46,20.147-46,45v105h92V105C302,80.147,280.853,60,256,60z"/>
	</g>
</g>
<g>
</g>
<g>
</g>
<g>
</g>
<g>
</g>
<g>
</g>
<g>
</g>
<g>
</g>
<g>
</g>
<g>
</g>
<g>
</g>
<g>
</g>
<g>
</g>
<g>
</g>
<g>
</g>
<g>
</g>
</svg>
