<?xml version="1.0" encoding="iso-8859-1"?>
<!-- Generator: Adobe Illustrator 19.0.0, SVG Export Plug-In . SVG Version: 6.00 Build 0)  -->
<svg version="1.1" id="Capa_1" xmlns="http://www.w3.org/2000/svg" xmlns:xlink="http://www.w3.org/1999/xlink" x="0px" y="0px"
	 viewBox="0 0 512 512" style="enable-background:new 0 0 512 512;" xml:space="preserve">
<g>
	<g>
		<path d="M406,331h-15c0,63.528,0,117.613,0,181h75c8.291,0,15-6.709,15-15v-91C481,364.647,447.353,331,406,331z"/>
	</g>
</g>
<g>
	<g>
		<path d="M359.251,331c-18.939,18.499-44.753,30-73.251,30h-60c-28.499,0-54.313-11.501-73.251-30H151v65.132
			c66.456,30.276,143.544,30.276,210,0V331H359.251z"/>
	</g>
</g>
<g>
	<g>
		<path d="M151,429.13V512h210v-82.87C293.822,455.849,218.178,455.849,151,429.13z"/>
	</g>
</g>
<g>
	<g>
		<path d="M106,331c-41.353,0-75,33.647-75,75v91c0,8.291,6.709,15,15,15h75c0-63.501,0-117.314,0-181H106z"/>
	</g>
</g>
<g>
	<g>
		<path d="M316,180c-24.507,0-46.304-11.821-60-30.044C242.304,168.179,220.507,180,196,180h-30v121h0.383
			c13.705,18.104,35.213,30,59.617,30h60c24.404,0,45.912-11.896,59.617-30H346V180H316z"/>
	</g>
</g>
<g>
	<g>
		<path d="M256,0C165.019,0,91,74.019,91,165v91c0,24.814,20.186,45,45,45V165c0-8.291,6.709-15,15-15h45c24.814,0,45-20.186,45-45
			c0-17.416,0-13.021,0-30c0-8.291,6.709-15,15-15s15,6.709,15,15c0,16.841,0,12.655,0,30c0,24.814,20.186,45,45,45h45
			c8.291,0,15,6.709,15,15v136c24.814,0,45-20.186,45-45v-91C421,74.019,346.981,0,256,0z"/>
	</g>
</g>
<g>
</g>
<g>
</g>
<g>
</g>
<g>
</g>
<g>
</g>
<g>
</g>
<g>
</g>
<g>
</g>
<g>
</g>
<g>
</g>
<g>
</g>
<g>
</g>
<g>
</g>
<g>
</g>
<g>
</g>
</svg>
