<?xml version="1.0" encoding="iso-8859-1"?>
<!-- Generator: Adobe Illustrator 19.0.0, SVG Export Plug-In . SVG Version: 6.00 Build 0)  -->
<svg version="1.1" id="Capa_1" xmlns="http://www.w3.org/2000/svg" xmlns:xlink="http://www.w3.org/1999/xlink" x="0px" y="0px"
	 viewBox="0 0 512 512" style="enable-background:new 0 0 512 512;" xml:space="preserve">
<g>
	<g>
		<rect x="90" y="151" width="30" height="150"/>
	</g>
</g>
<g>
	<g>
		<rect x="392" y="151" width="30" height="150"/>
	</g>
</g>
<g>
	<g>
		<rect x="90" y="331" width="30" height="181"/>
	</g>
</g>
<g>
	<g>
		<rect x="392" y="331" width="30" height="181"/>
	</g>
</g>
<g>
	<g>
		<path d="M45,151c-24.814,0-45,20.186-45,45v45c0,16.45,6.533,31.802,18.384,43.213C29.652,295.077,44.533,300.852,60,300.817V151
			H45z"/>
	</g>
</g>
<g>
	<g>
		<path d="M150,151v150c104.313,0,123.262,0,212,0V151H150z"/>
	</g>
</g>
<g>
	<g>
		<path d="M452.117,331c-0.038,0-0.079-0.005-0.117-0.005V512h15c24.814,0,45-20.186,45-45V307.951
			C495.317,322.912,474.357,331,452.117,331z"/>
	</g>
</g>
<g>
	<g>
		<path d="M0,307.738V467c0,24.814,20.186,45,45,45h15V330.727C37.621,330.839,16.604,322.703,0,307.738z"/>
	</g>
</g>
<g>
	<g>
		<path d="M241,331v15c0,8.276,6.724,15,15,15s15-6.724,15-15v-15H241z"/>
	</g>
</g>
<g>
	<g>
		<path d="M467,151h-15v149.702c15.205,0.031,29.383-5.204,40.591-15.507C504.925,273.856,512,257.743,512,241v-45
			C512,171.186,491.814,151,467,151z"/>
	</g>
</g>
<g>
	<g>
		<path d="M301,331v15c0,24.814-20.186,45-45,45c-24.814,0-45-20.186-45-45v-15h-61v181h212V331H301z"/>
	</g>
</g>
<g>
	<g>
		<path d="M256,0c-57.99,0-105,47.01-105,105v16h60v-16c0-24.853,20.147-45,45-45c24.853,0,45,20.147,45,45v16h60v-16
			C361,47.01,313.99,0,256,0z"/>
	</g>
</g>
<g>
</g>
<g>
</g>
<g>
</g>
<g>
</g>
<g>
</g>
<g>
</g>
<g>
</g>
<g>
</g>
<g>
</g>
<g>
</g>
<g>
</g>
<g>
</g>
<g>
</g>
<g>
</g>
<g>
</g>
</svg>
