<?xml version="1.0" encoding="iso-8859-1"?>
<!-- Generator: Adobe Illustrator 19.0.0, SVG Export Plug-In . SVG Version: 6.00 Build 0)  -->
<svg version="1.1" id="Capa_1" xmlns="http://www.w3.org/2000/svg" xmlns:xlink="http://www.w3.org/1999/xlink" x="0px" y="0px"
	 viewBox="0 0 512 512" style="enable-background:new 0 0 512 512;" xml:space="preserve">
<g>
	<g>
		<path d="M151,271c-16.538,0-30,13.462-30,30c0,16.538,13.462,30,30,30c16.538,0,30-13.462,30-30C181,284.462,167.538,271,151,271z
			"/>
	</g>
</g>
<g>
	<g>
		<path d="M151,361c-33.091,0-60,26.909-60,60h120C211,387.909,184.091,361,151,361z"/>
	</g>
</g>
<g>
	<g>
		<path d="M467,181H331v15c0,24.814-20.186,45-45,45h-60c-24.814,0-45-20.186-45-45v-15H45c-24.814,0-45,20.186-45,45v241
			c0,24.814,20.186,45,45,45h422c24.814,0,45-20.186,45-45V226C512,201.186,491.814,181,467,181z M241,436c0,8.291-6.709,15-15,15
			H76c-8.291,0-15-6.709-15-15v-15c0-33.915,19.074-63.149,46.851-78.488C97.467,331.721,91,317.128,91,301
			c0-33.091,26.909-60,60-60s60,26.909,60,60c0,16.128-6.465,30.721-16.849,41.512C221.928,357.851,241,387.085,241,421V436z
			 M437,421H286c-8.291,0-15-6.709-15-15c0-8.291,6.709-15,15-15h151c8.291,0,15,6.709,15,15C452,414.291,445.291,421,437,421z
			 M437,361H286c-8.291,0-15-6.709-15-15c0-8.291,6.709-15,15-15h151c8.291,0,15,6.709,15,15C452,354.291,445.291,361,437,361z
			 M437,301H286c-8.291,0-15-6.709-15-15c0-8.291,6.709-15,15-15h151c8.291,0,15,6.709,15,15C452,294.291,445.291,301,437,301z"/>
	</g>
</g>
<g>
	<g>
		<path d="M331,91c-32.783,0-117.636,0-150,0c-16.569,0-30,13.431-30,30c0,16.567,13.431,30,30,30h30v45c0,8.276,6.724,15,15,15h60
			c8.276,0,15-6.724,15-15v-45h30c16.569,0,30-13.433,30-30C361,104.431,347.569,91,331,91z"/>
	</g>
</g>
<g>
	<g>
		<path d="M316,0H196c-8.291,0-15,6.709-15,15v46h150V15C331,6.709,324.291,0,316,0z"/>
	</g>
</g>
<g>
</g>
<g>
</g>
<g>
</g>
<g>
</g>
<g>
</g>
<g>
</g>
<g>
</g>
<g>
</g>
<g>
</g>
<g>
</g>
<g>
</g>
<g>
</g>
<g>
</g>
<g>
</g>
<g>
</g>
</svg>
