<?xml version="1.0" encoding="iso-8859-1"?>
<!-- Generator: Adobe Illustrator 19.0.0, SVG Export Plug-In . SVG Version: 6.00 Build 0)  -->
<svg version="1.1" id="Capa_1" xmlns="http://www.w3.org/2000/svg" xmlns:xlink="http://www.w3.org/1999/xlink" x="0px" y="0px"
	 viewBox="0 0 512 512" style="enable-background:new 0 0 512 512;" xml:space="preserve">
<g>
	<g>
		<path d="M346,180h-9.196l10.25-30.762C356.787,120.134,335.202,90,304.384,90h-96.768c-30.818,0-52.403,30.134-42.671,59.238
			L175.196,180H166c-8.291,0-15,6.709-15,15s6.709,15,15,15c61.216,0,111.392,0,180,0c8.291,0,15-6.709,15-15S354.291,180,346,180z"
			/>
	</g>
</g>
<g>
	<g>
		<path d="M391,452v-31c0-16.569-13.431-30-30-30H151c-16.569,0-30,13.431-30,30v31c-16.569,0-30,13.431-30,30v15
			c0,8.284,6.716,15,15,15h300c8.284,0,15-6.716,15-15v-15C421,465.431,407.569,452,391,452z"/>
	</g>
</g>
<g>
	<g>
		<path d="M271.001,31.816V15C271,6.709,264.291,0,256,0s-15,6.709-15,15v16.816C222.911,35.59,207.182,45.736,196.383,60h119.235
			C304.818,45.736,289.09,35.59,271.001,31.816z"/>
	</g>
</g>
<g>
	<g>
		<polygon points="338.705,240 173.295,240 153.294,361 358.706,361 		"/>
	</g>
</g>
<g>
</g>
<g>
</g>
<g>
</g>
<g>
</g>
<g>
</g>
<g>
</g>
<g>
</g>
<g>
</g>
<g>
</g>
<g>
</g>
<g>
</g>
<g>
</g>
<g>
</g>
<g>
</g>
<g>
</g>
</svg>
