<?xml version="1.0" encoding="iso-8859-1"?>
<!-- Generator: Adobe Illustrator 19.0.0, SVG Export Plug-In . SVG Version: 6.00 Build 0)  -->
<svg version="1.1" id="Capa_1" xmlns="http://www.w3.org/2000/svg" xmlns:xlink="http://www.w3.org/1999/xlink" x="0px" y="0px"
	 viewBox="0 0 512.001 512.001" style="enable-background:new 0 0 512.001 512.001;" xml:space="preserve">
<g>
	<g>
		<path d="M256.002,149.971c-16.539,0-30.002,13.463-30.002,30.002c0,16.539,13.463,30.002,30.002,30.002
			c16.539,0,30.002-13.463,30.002-30.002C286.004,163.434,272.541,149.971,256.002,149.971z"/>
	</g>
</g>
<g>
	<g>
		<path d="M256.002,239.978c-26.497,0-49.571,17.66-57.224,42.302c16.836,11.079,36.316,17.702,57.224,17.702
			c20.905,0,40.381-6.629,57.222-17.707C305.57,257.637,282.497,239.978,256.002,239.978z"/>
	</g>
</g>
<g>
	<g>
		<path d="M256.177,89.952c-54.886,0-97.827,41.806-104.217,90.344c-3.854,29.281,3.016,56.432,23.158,80.97
			c8.184-16.946,21.363-30.844,37.659-39.865c-10.337-10.784-16.779-25.34-16.779-41.427c0-33.094,26.911-60.005,60.005-60.005
			s60.005,26.911,60.005,60.005c0,16.087-6.443,30.643-16.779,41.427c16.296,9.021,29.475,22.918,37.659,39.865
			c17.09-20.84,24.124-42.492,24.124-66.291C361.01,137.817,314.583,89.952,256.177,89.952z"/>
	</g>
</g>
<g>
	<g>
		<path d="M230.173,1.629C143.288,12.88,72.749,84.004,62.436,170.73c-6.05,50.805,7.267,100.936,37.488,141.178
			c8.673,11.544,18.531,23.092,29.299,32.351l116.991,100.599c2.813,2.417,6.299,3.633,9.786,3.633c3.486,0,6.974-1.216,9.786-3.633
			l116.992-100.57c10.782-9.273,20.642-20.836,29.299-32.38c25.476-33.914,38.939-74.361,38.939-116.933
			C451.017,78.536,348.812-13.484,230.173,1.629z M256.002,329.986c-78.976,0-144.894-69.267-133.781-153.616
			c7.721-58.643,56.049-107.06,114.897-115.116c82.161-11.169,153.894,52.491,153.894,133.722
			C391.012,271.175,328.738,329.986,256.002,329.986z"/>
	</g>
</g>
<g>
	<g>
		<path d="M479.436,489.289l-60.005-120.01c-2.221-4.431-6.582-7.018-11.394-7.717c-1.935,1.785-3.712,3.763-5.702,5.475
			L285.344,467.608c-8.175,7.018-18.59,10.885-29.343,10.885s-21.169-3.867-29.343-10.885L109.666,367.01
			c-1.983-1.705-3.752-3.673-5.68-5.451c-4.823,0.694-9.191,3.285-11.416,7.723L32.565,489.29
			c-2.329,4.644-2.08,11.167,0.659,15.591s7.56,7.12,12.76,7.12h420.034c5.201-0.001,10.021-2.696,12.76-7.121
			C481.517,500.456,481.766,493.934,479.436,489.289z"/>
	</g>
</g>
<g>
</g>
<g>
</g>
<g>
</g>
<g>
</g>
<g>
</g>
<g>
</g>
<g>
</g>
<g>
</g>
<g>
</g>
<g>
</g>
<g>
</g>
<g>
</g>
<g>
</g>
<g>
</g>
<g>
</g>
</svg>
