<?xml version="1.0" encoding="iso-8859-1"?>
<!-- Generator: Adobe Illustrator 19.0.0, SVG Export Plug-In . SVG Version: 6.00 Build 0)  -->
<svg version="1.1" id="Capa_1" xmlns="http://www.w3.org/2000/svg" xmlns:xlink="http://www.w3.org/1999/xlink" x="0px" y="0px"
	 viewBox="0 0 512 512" style="enable-background:new 0 0 512 512;" xml:space="preserve">
<g>
	<g>
		<path d="M256,0c-33.091,0-60,26.909-60,60s26.909,60,60,60s60-26.909,60-60S289.091,0,256,0z"/>
	</g>
</g>
<g>
	<g>
		<rect x="151" y="362" width="30" height="60"/>
	</g>
</g>
<g>
	<g>
		<rect x="211" y="362" width="30" height="60"/>
	</g>
</g>
<g>
	<g>
		<rect x="91" y="362" width="30" height="60"/>
	</g>
</g>
<g>
	<g>
		<rect x="271" y="362" width="60" height="60"/>
	</g>
</g>
<g>
	<g>
		<path d="M377,272H45c-24.814,0-45,20.186-45,45v150c0,24.814,20.186,45,45,45h332c24.814,0,45-20.186,45-45V317
			C422,292.186,401.814,272,377,272z M361,437c0,8.291-6.709,15-15,15H76c-8.291,0-15-6.709-15-15v-90c0-8.291,6.709-15,15-15h270
			c8.291,0,15,6.709,15,15V437z"/>
	</g>
</g>
<g>
	<g>
		<path d="M497,332h-45v120h45c8.291,0,15-6.709,15-15v-90C512,338.709,505.291,332,497,332z"/>
	</g>
</g>
<g>
	<g>
		<path d="M325.291,116.732C308.773,136.866,284.017,150,256,150c-28.017,0-52.773-13.134-69.291-33.268
			C164.987,135.983,151,163.766,151,195v32c0,8.291,6.709,15,15,15h180c8.291,0,15-6.709,15-15v-32
			C361,163.766,347.013,135.983,325.291,116.732z"/>
	</g>
</g>
<g>
</g>
<g>
</g>
<g>
</g>
<g>
</g>
<g>
</g>
<g>
</g>
<g>
</g>
<g>
</g>
<g>
</g>
<g>
</g>
<g>
</g>
<g>
</g>
<g>
</g>
<g>
</g>
<g>
</g>
</svg>
