<?xml version="1.0" encoding="iso-8859-1"?>
<!-- Generator: Adobe Illustrator 19.0.0, SVG Export Plug-In . SVG Version: 6.00 Build 0)  -->
<svg version="1.1" id="Capa_1" xmlns="http://www.w3.org/2000/svg" xmlns:xlink="http://www.w3.org/1999/xlink" x="0px" y="0px"
	 viewBox="0 0 512 512" style="enable-background:new 0 0 512 512;" xml:space="preserve">
<g>
	<g>
		<path d="M250.379,276.551L392,134.944V121H287c-8.284,0-15-6.716-15-15V0H45c-8.291,0-15,6.709-15,15v406h272v30v16
			c0,24.814,20.186,45,45,45c24.814,0,45-20.186,45-45V347.069l-35.552,35.552l-82.236,31.743
			c-20.387,4.737-36.888-2.142-47.417-15.381c-8.659-10.875-11.878-24.111-8.145-40.181L250.379,276.551z M207.605,326.606l-61,60
			c-2.93,2.93-6.768,4.395-10.605,4.395s-7.676-1.465-10.605-4.395l-30-30c-5.859-5.859-5.859-15.352,0-21.211
			s15.352-5.859,21.211,0L136,354.789l50.395-49.395c5.859-5.859,15.352-5.859,21.211,0S213.465,320.746,207.605,326.606z
			 M207.605,236.606l-61,60c-2.93,2.93-6.768,4.395-10.605,4.395s-7.676-1.465-10.605-4.395l-30-30
			c-5.859-5.859-5.859-15.352,0-21.211s15.352-5.859,21.211,0L136,264.789l50.395-49.395c5.859-5.859,15.352-5.859,21.211,0
			S213.465,230.746,207.605,236.606z M207.605,146.606l-61,60c-2.93,2.93-6.768,4.395-10.605,4.395s-7.676-1.465-10.605-4.395
			l-30-30c-5.859-5.859-5.859-15.352,0-21.211c5.859-5.859,15.352-5.859,21.211,0L136,174.789l50.395-49.395
			c5.859-5.859,15.352-5.859,21.211,0C213.465,131.254,213.465,140.746,207.605,146.606z"/>
	</g>
</g>
<g>
	<g>
		<path d="M503.213,151.001L482,129.789c-11.136-11.136-31.285-11.136-42.422,0l-25.607,25.607l63.636,63.642l25.604-25.602
			C514.93,181.719,514.93,162.718,503.213,151.001z"/>
	</g>
</g>
<g>
	<g>
		<path d="M270.181,308.586l-22.776,59.031c-2.49,10.802,7.191,20.479,17.99,17.987l59.02-22.784L270.181,308.586z"/>
	</g>
</g>
<g>
	<g>
		<polygon points="392.76,176.607 286.692,282.675 350.325,346.308 456.395,240.249 		"/>
	</g>
</g>
<g>
	<g>
		<polygon points="302,8.789 302,91 383.211,91 		"/>
	</g>
</g>
<g>
	<g>
		<path d="M272,467v-16H15c-8.284,0-15,7.716-15,16v15c0,16.569,13.431,30,30,30h257.383C277.865,499.426,272,483.948,272,467z"/>
	</g>
</g>
<g>
</g>
<g>
</g>
<g>
</g>
<g>
</g>
<g>
</g>
<g>
</g>
<g>
</g>
<g>
</g>
<g>
</g>
<g>
</g>
<g>
</g>
<g>
</g>
<g>
</g>
<g>
</g>
<g>
</g>
</svg>
