<?xml version="1.0" encoding="iso-8859-1"?>
<!-- Generator: Adobe Illustrator 19.0.0, SVG Export Plug-In . SVG Version: 6.00 Build 0)  -->
<svg version="1.1" id="Capa_1" xmlns="http://www.w3.org/2000/svg" xmlns:xlink="http://www.w3.org/1999/xlink" x="0px" y="0px"
	 viewBox="0 0 511.999 511.999" style="enable-background:new 0 0 511.999 511.999;" xml:space="preserve">
<g>
	<g>
		<path d="M347.008,0H15.015c-8.291,0-15,6.709-15,15v421.992c0.001,8.291,6.71,15,15.001,15h15V166.997
			c0-12.554,5.634-24.109,13.006-31.576c0.071-0.073,0.106-0.168,0.178-0.24l91.998-91.998c8.563-8.591,20.319-13.183,31.8-13.183
			h0.007h0.007h194.996V15C362.008,6.709,355.299,0,347.008,0z"/>
	</g>
</g>
<g>
	<g>
		<polygon points="68.804,151.997 152.013,151.997 152.013,68.788 		"/>
	</g>
</g>
<g>
	<g>
		<path d="M287.01,181.996c-57.89,0-104.998,47.108-104.998,104.998c0,57.89,47.108,104.998,104.998,104.998
			c57.89,0,104.998-47.108,104.998-104.998C392.008,229.105,344.899,181.996,287.01,181.996z"/>
	</g>
</g>
<g>
	<g>
		<path d="M287.01,151.997c42.626,0,80.238,20.246,104.998,51.193V74.999c0-8.291-6.709-15-15-15H182.013v106.998
			c0,8.284-6.716,15-15,15H60.015v284.994c0,8.291,6.709,15,15,15h301.994c5.486,0,10.071-3.085,12.687-7.474l-59.792-59.798
			c-13.46,4.631-27.838,7.273-42.893,7.273c-74.442,0-134.997-60.556-134.997-134.997S212.569,151.997,287.01,151.997z"/>
	</g>
</g>
<g>
	<g>
		<path d="M503.217,460.779L401.37,357.917c-10.847,17.428-25.409,32.134-42.772,43.076L460.796,503.2
			c11.732,11.732,30.689,11.732,42.421,0C514.906,491.511,514.906,472.469,503.217,460.779z"/>
	</g>
</g>
<g>
</g>
<g>
</g>
<g>
</g>
<g>
</g>
<g>
</g>
<g>
</g>
<g>
</g>
<g>
</g>
<g>
</g>
<g>
</g>
<g>
</g>
<g>
</g>
<g>
</g>
<g>
</g>
<g>
</g>
</svg>
