<?xml version="1.0" encoding="iso-8859-1"?>
<!-- Generator: Adobe Illustrator 19.0.0, SVG Export Plug-In . SVG Version: 6.00 Build 0)  -->
<svg version="1.1" id="Capa_1" xmlns="http://www.w3.org/2000/svg" xmlns:xlink="http://www.w3.org/1999/xlink" x="0px" y="0px"
	 viewBox="0 0 512 512" style="enable-background:new 0 0 512 512;" xml:space="preserve">
<g>
	<g>
		<path d="M344.605,275.962C322.98,289.8,297.876,298.417,271,300.9v39.89L352.211,422H391v-45
			C391,336.607,372.807,300.724,344.605,275.962z"/>
	</g>
</g>
<g>
	<g>
		<polygon points="256,368.211 202.211,422 309.789,422 		"/>
	</g>
</g>
<g>
	<g>
		<path d="M167.395,275.963C139.193,300.724,121,336.607,121,377v45h38.789L241,340.789V300.9
			C214.124,298.417,189.02,289.8,167.395,275.963z"/>
	</g>
</g>
<g>
	<g>
		<path d="M391,452H121c-16.569,0-30,13.431-30,30c0,16.567,13.431,30,30,30h270c16.569,0,30-13.433,30-30
			C421,465.431,407.569,452,391,452z"/>
	</g>
</g>
<g>
	<g>
		<path d="M391,0H121c-16.569,0-30,13.431-30,30c0,16.567,13.431,30,30,30h270c16.569,0,30-13.433,30-30C421,13.431,407.569,0,391,0
			z"/>
	</g>
</g>
<g>
	<g>
		<path d="M121,90v18.699l25.664,14.553c67.441,38.232,151.23,38.262,218.672,0L391,108.697V90H121z"/>
	</g>
</g>
<g>
	<g>
		<path d="M380.131,149.355C341.854,171.064,298.92,181.919,256,181.919c-42.92,0-85.854-10.854-124.131-32.563l-9.99-5.665
			C126.455,214.021,184.532,272,256,272s129.545-57.981,134.121-128.312L380.131,149.355z"/>
	</g>
</g>
<g>
</g>
<g>
</g>
<g>
</g>
<g>
</g>
<g>
</g>
<g>
</g>
<g>
</g>
<g>
</g>
<g>
</g>
<g>
</g>
<g>
</g>
<g>
</g>
<g>
</g>
<g>
</g>
<g>
</g>
</svg>
