<?xml version="1.0" encoding="iso-8859-1"?>
<!-- Generator: Adobe Illustrator 19.0.0, SVG Export Plug-In . SVG Version: 6.00 Build 0)  -->
<svg version="1.1" id="Capa_1" xmlns="http://www.w3.org/2000/svg" xmlns:xlink="http://www.w3.org/1999/xlink" x="0px" y="0px"
	 viewBox="0 0 512 512" style="enable-background:new 0 0 512 512;" xml:space="preserve">
<g>
	<g>
		<path d="M256,0c-24.814,0-46,20.186-46,45c0,24.814,21.186,45,46,45c24.814,0,46-20.186,46-45S280.814,0,256,0z"/>
	</g>
</g>
<g>
	<g>
		<path d="M135,301c-24.814,0-45,20.186-45,45c0,24.814,20.186,45,45,45c24.814,0,45-20.186,45-45C180,321.186,159.814,301,135,301z
			"/>
	</g>
</g>
<g>
	<g>
		<path d="M377,301c-24.814,0-45,20.186-45,45c0,24.814,20.186,45,45,45c24.814,0,45-20.186,45-45C422,321.186,401.814,301,377,301z
			"/>
	</g>
</g>
<g>
	<g>
		<path d="M511.049,368.603l-20.582-121C486.849,225.82,468.187,210,446.082,210H65.918c-22.104,0-40.767,15.82-44.385,37.603
			l-20.582,121C-1.231,381.684,2.431,394.97,11,405.092c5.66,6.676,13.695,11.246,21.875,13.735
			c9.23-15.103,21.422-28.143,36.163-37.894C63.459,370.45,60,358.678,60,346c0-41.353,33.647-75,75-75c41.353,0,75,33.647,75,75
			c0,12.678-3.459,24.45-9.038,34.933c15.427,10.204,28.002,24.051,37.344,40.067h35.387c9.342-16.016,21.918-29.863,37.344-40.067
			C305.459,370.45,302,358.678,302,346c0-41.353,33.647-75,75-75c41.353,0,75,33.647,75,75c0,12.678-3.459,24.45-9.038,34.933
			c14.742,9.75,26.933,22.791,36.163,37.894c8.179-2.488,16.215-7.059,21.875-13.735
			C509.569,394.97,513.231,381.684,511.049,368.603z"/>
	</g>
</g>
<g>
	<g>
		<path d="M463.399,456.099c0.001,0-0.299,0,0.001-0.3c-6.301-21.899-20.7-39.901-39.901-51.299C410.6,414.699,394.701,421,377,421
			s-33.6-6.301-46.5-16.5c-19.2,11.398-33.6,29.7-39.901,51.599c-2.401,7.8-3.6,17.199-3.6,25.901v15c0,8.399,6.599,15,15,15h150
			c8.401,0,15-6.601,15-15v-15C466.999,473.299,465.8,463.9,463.399,456.099z"/>
	</g>
</g>
<g>
	<g>
		<path d="M303.534,103.35C290.704,113.606,273.662,120,256,120s-34.704-6.396-47.534-16.65C182.523,119.161,165,147.458,165,180
			h182C347,147.458,329.477,119.161,303.534,103.35z"/>
	</g>
</g>
<g>
	<g>
		<path d="M221.4,456.099c0,0-0.3,0,0-0.3c-6.301-21.899-20.7-39.901-39.901-51.299C168.6,414.699,152.701,421,135,421
			s-33.6-6.301-46.5-16.5c-19.2,11.398-33.6,29.7-39.901,51.599C46.199,463.9,45,473.299,45,482v15c0,8.399,6.599,15,15,15h150
			c8.401,0,15-6.601,15-15v-15C225,473.299,223.801,463.9,221.4,456.099z"/>
	</g>
</g>
<g>
</g>
<g>
</g>
<g>
</g>
<g>
</g>
<g>
</g>
<g>
</g>
<g>
</g>
<g>
</g>
<g>
</g>
<g>
</g>
<g>
</g>
<g>
</g>
<g>
</g>
<g>
</g>
<g>
</g>
</svg>
