<?xml version="1.0" encoding="iso-8859-1"?>
<!-- Generator: Adobe Illustrator 19.0.0, SVG Export Plug-In . SVG Version: 6.00 Build 0)  -->
<svg version="1.1" id="Capa_1" xmlns="http://www.w3.org/2000/svg" xmlns:xlink="http://www.w3.org/1999/xlink" x="0px" y="0px"
	 viewBox="0 0 512.001 512.001" style="enable-background:new 0 0 512.001 512.001;" xml:space="preserve">
<g>
	<g>
		<path d="M444.979,158.982c10.435-6.259,18.165-16.504,20.882-28.725c12.521-2.686,24.874-6.088,36.712-10.822
			c7.69-3.091,11.426-11.821,8.35-19.511c-3.105-7.69-11.836-11.426-19.511-8.35c-9.481,3.794-19.357,6.57-29.36,8.853
			c-7.408-14.711-22.492-24.921-40.057-24.921c-18.253,0-33.925,10.968-40.978,26.619c-22.356-4.067-34.771-10.703-65.03-27.088
			l-13.989-7.527v-7.004c0-24.813-21.185-44.999-45.999-44.999s-45.999,20.185-45.999,44.999c0,2.446,0,4.594,0,7.006l-13.901,7.482
			c-30.325,16.413-42.754,23.07-65.114,27.137c-7.051-15.656-22.726-26.624-40.982-26.624c-17.564,0-32.649,10.212-40.057,24.921
			c-10.003-2.283-19.879-5.059-29.36-8.853c-7.705-3.091-16.421,0.659-19.511,8.35c-3.076,7.69,0.659,16.42,8.35,19.511
			c11.838,4.733,24.191,8.135,36.712,10.822c2.717,12.22,10.448,22.466,20.882,28.725L2.293,262.547
			c-0.762,1.223-2.285,6.223-2.285,7.954v15c0,49.627,40.37,89.997,89.997,89.997s89.997-40.37,89.997-89.997v-15
			c0-1.744-1.504-6.701-2.285-7.954L112.99,158.982c9.864-5.918,17.202-15.434,20.28-26.787
			c28.866-4.805,43.747-12.751,76.732-30.62c0,113.448,0,193.275,0,304.921h91.997V101.577
			c32.086,17.376,47.638,25.694,76.727,30.601c3.074,11.362,10.417,20.884,20.285,26.804l-64.728,103.565
			c-0.754,1.21-2.285,6.219-2.285,7.954v15c0,49.627,40.37,89.997,89.997,89.997s89.997-40.37,89.997-89.997v-15
			c0-1.735-1.531-6.744-2.285-7.954L444.979,158.982z M137.943,255.501H42.068L90.005,178.8L137.943,255.501z M374.058,255.501
			l47.938-76.701l47.938,76.701H374.058z"/>
	</g>
</g>
<g>
	<g>
		<path d="M361.997,436.495H150.004c-16.568,0-29.999,13.431-29.999,29.999v15c0,8.284,6.716,15,15,15h241.992
			c8.284,0,15-6.716,15-15v-15C391.996,449.926,378.565,436.495,361.997,436.495z"/>
	</g>
</g>
<g>
</g>
<g>
</g>
<g>
</g>
<g>
</g>
<g>
</g>
<g>
</g>
<g>
</g>
<g>
</g>
<g>
</g>
<g>
</g>
<g>
</g>
<g>
</g>
<g>
</g>
<g>
</g>
<g>
</g>
</svg>
