<?xml version="1.0" encoding="iso-8859-1"?>
<!-- Generator: Adobe Illustrator 19.0.0, SVG Export Plug-In . SVG Version: 6.00 Build 0)  -->
<svg version="1.1" id="Capa_1" xmlns="http://www.w3.org/2000/svg" xmlns:xlink="http://www.w3.org/1999/xlink" x="0px" y="0px"
	 viewBox="0 0 512 512" style="enable-background:new 0 0 512 512;" xml:space="preserve">
<g>
	<g>
		<path d="M256,271c-16.538,0-30,13.462-30,30c0,16.538,13.462,30,30,30c16.538,0,31-13.462,31-30C287,284.462,272.538,271,256,271z
			"/>
	</g>
</g>
<g>
	<g>
		<path d="M256,361c-33.091,0-60,26.909-60,60h121C317,387.909,289.091,361,256,361z"/>
	</g>
</g>
<g>
	<g>
		<path d="M121,211v286c0,8.284,6.716,15,15,15h241c8.284,0,15-6.716,15-15V211H121z M347,436c0,8.291-6.709,15-15,15H181
			c-8.291,0-15-6.709-15-15v-15c0-33.915,19.074-63.149,46.851-78.488C202.467,331.721,196,317.128,196,301
			c0-33.091,26.909-60,60-60s61,26.909,61,60c0,16.128-6.465,30.721-16.849,41.512C327.928,357.851,347,387.085,347,421V436z"/>
	</g>
</g>
<g>
	<g>
		<path d="M407,0H106c-8.291,0-15,6.709-15,15v46h331V15C422,6.709,415.291,0,407,0z"/>
	</g>
</g>
<g>
	<g>
		<path d="M467,91H45c-24.814,0-45,20.186-45,45v150c0,24.814,20.186,45,45,45h46V196c0-8.291,6.709-15,15-15h301
			c8.291,0,15,6.709,15,15v135h45c24.814,0,45-20.186,45-45V136C512,111.186,491.814,91,467,91z M437,151c-8.284,0-15-6.716-15-15
			c0-8.286,6.716-15,15-15s15,6.714,15,15C452,144.284,445.284,151,437,151z"/>
	</g>
</g>
<g>
</g>
<g>
</g>
<g>
</g>
<g>
</g>
<g>
</g>
<g>
</g>
<g>
</g>
<g>
</g>
<g>
</g>
<g>
</g>
<g>
</g>
<g>
</g>
<g>
</g>
<g>
</g>
<g>
</g>
</svg>
