<?xml version="1.0" encoding="iso-8859-1"?>
<!-- Generator: Adobe Illustrator 19.0.0, SVG Export Plug-In . SVG Version: 6.00 Build 0)  -->
<svg version="1.1" id="Capa_1" xmlns="http://www.w3.org/2000/svg" xmlns:xlink="http://www.w3.org/1999/xlink" x="0px" y="0px"
	 viewBox="0 0 512.001 512.001" style="enable-background:new 0 0 512.001 512.001;" xml:space="preserve">
<g>
	<g>
		<path d="M357.367,240h-34.66c-18.636,52.266-68.119,90-126.707,90c-74.443,0-135-60.557-135-135S121.557,60,196,60
			c58.588,0,108.071,37.734,126.707,90h34.66c6.046-6.046,15.799-16.299,21.938-20.865C352.205,53.978,280.379,0,196,0
			C88.48,0,0,87.481,0,195s88.48,195,196,195c84.379,0,156.204-53.974,183.305-129.133C373.179,256.311,363.426,246.059,357.367,240
			z"/>
	</g>
</g>
<g>
	<g>
		<path d="M483.772,195l26.646-53.291c2.71-5.42,1.89-11.953-2.08-16.538c-3.97-4.585-10.313-6.372-16.084-4.395l-91,30
			c-2.212,0.732-4.219,1.978-5.859,3.618L369.789,180H196c-8.291,0-15,6.709-15,15s6.709,15,15,15h173.789l25.605,25.605
			c1.641,1.641,3.647,2.886,5.859,3.618l91,30c5.609,1.904,12.032,0.271,16.084-4.395c3.97-4.585,4.79-11.118,2.08-16.538
			L483.772,195z"/>
	</g>
</g>
<g>
	<g>
		<path d="M316,452h-19.195l-15.619-48.86C254.885,413.943,226.15,420,196,420c-30.15,0-58.885-6.057-85.186-16.86L95.195,452H76
			c-24.853,0-45,20.147-45,45c0,8.284,6.716,15,15,15c100.195,0,199.902,0,300,0c8.284,0,15-6.716,15-15
			C361,472.147,340.853,452,316,452z"/>
	</g>
</g>
<g>
	<g>
		<path d="M151,195c0-24.853,20.147-45,45-45h94.508c-16.89-35.376-52.694-60-94.508-60c-57.99,0-105,47.01-105,105
			s47.01,105,105,105c41.814,0,77.618-24.624,94.508-60H196C171.147,240,151,219.853,151,195z"/>
	</g>
</g>
<g>
</g>
<g>
</g>
<g>
</g>
<g>
</g>
<g>
</g>
<g>
</g>
<g>
</g>
<g>
</g>
<g>
</g>
<g>
</g>
<g>
</g>
<g>
</g>
<g>
</g>
<g>
</g>
<g>
</g>
</svg>
