<?xml version="1.0" encoding="iso-8859-1"?>
<!-- Generator: Adobe Illustrator 19.0.0, SVG Export Plug-In . SVG Version: 6.00 Build 0)  -->
<svg version="1.1" id="Capa_1" xmlns="http://www.w3.org/2000/svg" xmlns:xlink="http://www.w3.org/1999/xlink" x="0px" y="0px"
	 viewBox="0 0 512 512" style="enable-background:new 0 0 512 512;" xml:space="preserve">
<g>
	<g>
		<path d="M46.026,271h-31c-8.291,0-15,6.709-15,15v211c0,8.291,6.709,15,15,15h31c24.814,0,45-20.186,45-45V316
			C91.026,291.186,70.84,271,46.026,271z"/>
	</g>
</g>
<g>
	<g>
		<path d="M256.026,0c-90.981,0-165,75.019-165,166c0,31.027,8.648,60.859,24.553,86.576c20.151-11.246,42.537-17.465,65.77-17.465
			c31.9,0,64.132,11.162,91.479,35.889h74.198c10.856,0,20.856,3.223,29.65,8.284c28.026-29.586,45.35-69.41,45.35-113.284
			C422.026,75.019,347.007,0,256.026,0z M256.027,121c24.814,0,45,20.186,45,45c0,18.12-10.781,34.395-27.466,41.455
			c-0.829,0.352-1.694,0.489-2.534,0.787V226c0,8.291-6.709,15-15,15s-15-6.709-15-15v-17.717
			c-7.784-2.62-15.331-7.015-22.104-13.572c-5.947-5.757-6.094-15.249-0.322-21.211c5.757-5.947,15.278-6.079,21.211-0.322
			c7.28,7.046,15.322,9.492,22.046,6.65c5.566-2.358,9.17-7.778,9.17-13.828c0-8.276-6.724-15-15-15c-24.814,0-45-20.186-45-45
			c-0.002-18.853,11.893-35.845,29.603-42.29c0.13-0.048,0.266-0.026,0.396-0.071V45c0-8.291,6.709-15,15-15c8.291,0,15,6.709,15,15
			v18.465c9.891,3.333,19.336,9.941,27.437,19.596c5.332,6.343,4.512,15.806-1.846,21.123c-6.328,5.347-15.82,4.526-21.123-1.846
			c-7.939-9.434-16.89-13.228-24.595-10.444c-5.903,2.153-9.873,7.822-9.873,14.106C241.027,114.276,247.751,121,256.027,121z"/>
	</g>
</g>
<g>
	<g>
		<path d="M499.727,276.7c-12.301-9-29.401-7.2-39.6,3.9l-81,100.8c-5.7,6-16.5,9.6-22.2,9.6H256.026c-8.401,0-15-6.599-15-15
			s6.599-15,15-15c67.2,0,16.3,0,91,0c16.5,0,30-13.5,30-30s-13.5-30-30-30c-70.446,0-4.25,0-79.6,0
			c-7.476,0-11.204-4.741-17.1-9.901c-9-8.099-19.2-14.099-29.7-18.3c-32.509-13.275-70.073-9.258-99.6,11.276
			c0,54.619,0,136.005,0,197.924h226c28.2,0,55.201-14.5,72.001-37l86.999-126C515.927,305.799,513.226,286.6,499.727,276.7z"/>
	</g>
</g>
<g>
</g>
<g>
</g>
<g>
</g>
<g>
</g>
<g>
</g>
<g>
</g>
<g>
</g>
<g>
</g>
<g>
</g>
<g>
</g>
<g>
</g>
<g>
</g>
<g>
</g>
<g>
</g>
<g>
</g>
</svg>
