<?xml version="1.0" encoding="iso-8859-1"?>
<!-- Generator: Adobe Illustrator 19.0.0, SVG Export Plug-In . SVG Version: 6.00 Build 0)  -->
<svg version="1.1" id="Capa_1" xmlns="http://www.w3.org/2000/svg" xmlns:xlink="http://www.w3.org/1999/xlink" x="0px" y="0px"
	 viewBox="0 0 512.001 512.001" style="enable-background:new 0 0 512.001 512.001;" xml:space="preserve">
<g>
	<g>
		<path d="M256,241.001c-41.353,0-75,33.647-75,75v15h150v-15C331,274.648,297.353,241.001,256,241.001z"/>
	</g>
</g>
<g>
	<g>
		<path d="M256,151.001c-16.538,0-30,13.462-30,30c0,16.538,13.462,30,30,30c16.538,0,30-13.462,30-30
			C286,164.463,272.538,151.001,256,151.001z"/>
	</g>
</g>
<g>
	<g>
		<path d="M475.038,33.019c-3.765-2.813-8.642-3.706-13.154-2.447c-66.592,19.043-131.47,9.653-198.442-28.594
			c-4.6-2.637-10.283-2.637-14.883,0C181.586,40.27,116.737,49.63,50.116,30.572c-4.482-1.26-9.39-0.366-13.154,2.446
			C33.212,35.86,31,40.299,31,45.001v172.592c0,135.264,90.835,256.688,220.884,293.837c1.347,0.381,2.724,0.571,4.116,0.571
			c1.392,0,2.769-0.19,4.116-0.571C390.165,474.281,481,352.856,481,217.593V45.001C481,40.299,478.788,35.86,475.038,33.019z
			 M361,346.001c0,8.291-6.709,15-15,15H166c-8.291,0-15-6.709-15-15v-30c0-42.017,24.976-78.089,60.72-94.858
			C202.053,210.488,196,196.49,196,181.001c0-33.091,26.909-60,60-60s60,26.909,60,60c0,15.489-6.053,29.487-15.72,40.142
			c35.744,16.769,60.72,52.841,60.72,94.858V346.001z"/>
	</g>
</g>
<g>
</g>
<g>
</g>
<g>
</g>
<g>
</g>
<g>
</g>
<g>
</g>
<g>
</g>
<g>
</g>
<g>
</g>
<g>
</g>
<g>
</g>
<g>
</g>
<g>
</g>
<g>
</g>
<g>
</g>
</svg>
