<?xml version="1.0" encoding="iso-8859-1"?>
<!-- Generator: Adobe Illustrator 19.0.0, SVG Export Plug-In . SVG Version: 6.00 Build 0)  -->
<svg version="1.1" id="Capa_1" xmlns="http://www.w3.org/2000/svg" xmlns:xlink="http://www.w3.org/1999/xlink" x="0px" y="0px"
	 viewBox="0 0 512 512" style="enable-background:new 0 0 512 512;" xml:space="preserve">
<g>
	<g>
		<path d="M256,0c-33.091,0-61,26.909-61,60s27.909,60,61,60s61-26.909,61-60S289.091,0,256,0z"/>
	</g>
</g>
<g>
	<g>
		<path d="M105,272c-33.091,0-60,26.909-60,60s26.909,60,60,60s60-26.909,60-60S138.091,272,105,272z"/>
	</g>
</g>
<g>
	<g>
		<path d="M407,272c-33.091,0-60,26.909-60,60s26.909,60,60,60s60-26.909,60-60S440.091,272,407,272z"/>
	</g>
</g>
<g>
	<g>
		<path d="M174.291,388.732C157.773,408.866,133.017,422,105,422c-28.017,0-52.773-13.134-69.291-33.268
			C13.987,407.983,0,435.766,0,467v30c0,8.291,6.709,15,15,15h180c8.291,0,15-6.709,15-15v-30
			C210,435.766,196.013,407.983,174.291,388.732z"/>
	</g>
</g>
<g>
	<g>
		<path d="M326.291,116.732C309.773,136.866,284.017,150,256,150c-28.017,0-53.773-13.134-70.291-33.268
			C163.987,135.983,150,163.766,150,195v32c0,8.291,6.709,15,15,15h182c8.291,0,15-6.709,15-15v-32
			C362,163.766,348.013,135.983,326.291,116.732z"/>
	</g>
</g>
<g>
	<g>
		<path d="M476.291,388.732C459.773,408.866,435.017,422,407,422c-28.017,0-52.773-13.134-69.291-33.268
			C315.987,407.983,302,435.766,302,467v30c0,8.291,6.709,15,15,15h180c8.291,0,15-6.709,15-15v-30
			C512,435.766,498.013,407.983,476.291,388.732z"/>
	</g>
</g>
<g>
	<g>
		<path d="M271,310.789V272h-30v38.789l-51.945,50.945c8.549,7.577,11.129,9.637,20.777,21.645L256,338.211l45.993,44.993
			c6.284-7.857,13.354-14.927,21.211-21.211L271,310.789z"/>
	</g>
</g>
<g>
</g>
<g>
</g>
<g>
</g>
<g>
</g>
<g>
</g>
<g>
</g>
<g>
</g>
<g>
</g>
<g>
</g>
<g>
</g>
<g>
</g>
<g>
</g>
<g>
</g>
<g>
</g>
<g>
</g>
</svg>
