<?xml version="1.0" ?><!DOCTYPE svg  PUBLIC '-//W3C//DTD SVG 1.1//EN'  'http://www.w3.org/Graphics/SVG/1.1/DTD/svg11.dtd'><svg enable-background="new 0 0 32 32" height="32px" id="Слой_1" version="1.1" viewBox="0 0 32 32" width="32px" xml:space="preserve" xmlns="http://www.w3.org/2000/svg" xmlns:xlink="http://www.w3.org/1999/xlink"><path d="M7.192,23.713c0.391,0.395,1.024,0.394,1.414,0c0.391-0.394,0.391-1.034,0-1.428  l-5.2-5.275h25.187l-5.2,5.275c-0.391,0.394-0.391,1.034,0,1.428c0.391,0.394,1.024,0.394,1.414,0l6.899-6.999  c0.379-0.386,0.385-1.04-0.001-1.429l-6.899-6.998c-0.391-0.394-1.024-0.394-1.414,0c-0.39,0.395-0.391,1.034,0,1.429l5.2,5.274  H3.406l5.2-5.275c0.391-0.395,0.39-1.034,0-1.428c-0.391-0.395-1.024-0.395-1.414,0l-6.899,6.999c-0.397,0.4-0.365,1.028,0,1.429  L7.192,23.713z" fill="#121313" id="Arrows_Left_x2F_Right"/><g/><g/><g/><g/><g/><g/></svg>