<?xml version="1.0" ?><!DOCTYPE svg  PUBLIC '-//W3C//DTD SVG 1.1//EN'  'http://www.w3.org/Graphics/SVG/1.1/DTD/svg11.dtd'><svg enable-background="new 0 0 32 32" height="32px" id="Слой_1" version="1.1" viewBox="0 0 32 32" width="32px" xml:space="preserve" xmlns="http://www.w3.org/2000/svg" xmlns:xlink="http://www.w3.org/1999/xlink"><g id="Chevron_Left_Circle"><path d="M16,0C7.164,0,0,7.164,0,16c0,8.837,7.163,16,16,16c8.837,0,16-7.163,16-16C32,7.164,24.837,0,16,0z    M16,30.031C8.28,30.031,2,23.72,2,16C2,8.28,8.28,2,16,2c7.72,0,14,6.28,14,14C30,23.72,23.72,30.031,16,30.031z" fill="#121313"/><path d="M19.607,8.302c-0.391-0.394-1.024-0.394-1.414,0l-6.9,6.999c-0.38,0.384-0.381,1.044,0,1.429l6.899,6.999   c0.391,0.394,1.024,0.394,1.414,0c0.391-0.395,0.391-1.034,0-1.429l-6.195-6.285l6.196-6.285   C19.997,9.336,19.997,8.697,19.607,8.302z" fill="#121313"/></g><g/><g/><g/><g/><g/><g/></svg>