<?xml version="1.0" ?><!DOCTYPE svg  PUBLIC '-//W3C//DTD SVG 1.1//EN'  'http://www.w3.org/Graphics/SVG/1.1/DTD/svg11.dtd'><svg enable-background="new 0 0 32 32" height="32px" id="Слой_1" version="1.1" viewBox="0 0 32 32" width="32px" xml:space="preserve" xmlns="http://www.w3.org/2000/svg" xmlns:xlink="http://www.w3.org/1999/xlink"><path d="M14.603,10.301c-0.391-0.394-1.024-0.394-1.414,0l-7.873,7.962  c-0.404,0.382-0.421,1.055-0.026,1.453l7.899,7.988c0.391,0.394,1.024,0.394,1.414,0c0.391-0.394,0.391-1.033,0-1.427l-6.205-6.275  h17.598c0.552,0,1-0.448,1-1V5c0-0.552-0.448-1-1-1s-1,0.448-1,1v12.986H8.415l6.188-6.257  C14.994,11.334,14.994,10.695,14.603,10.301z" fill="#121313" id="Subdirectory_Arrow_Left"/><g/><g/><g/><g/><g/><g/></svg>