<?xml version="1.0" ?><!DOCTYPE svg  PUBLIC '-//W3C//DTD SVG 1.1//EN'  'http://www.w3.org/Graphics/SVG/1.1/DTD/svg11.dtd'><svg enable-background="new 0 0 32 32" height="32px" id="Слой_1" version="1.1" viewBox="0 0 32 32" width="32px" xml:space="preserve" xmlns="http://www.w3.org/2000/svg" xmlns:xlink="http://www.w3.org/1999/xlink"><path d="M5.003,13.014v13.969c0,0.552,0.448,1,1,1s1-0.448,1-1V14.032h16.581  l-6.188,6.257c-0.391,0.394-0.391,1.033,0,1.427c0.391,0.394,1.024,0.394,1.414,0l7.873-7.962c0.404-0.382,0.421-1.055,0.026-1.453  l-7.899-7.988c-0.391-0.394-1.024-0.394-1.414,0c-0.391,0.394-0.391,1.033,0,1.427l6.205,6.275H6.003  C5.451,12.014,5.003,12.462,5.003,13.014z" fill="#121313" id="Subdirectory_Arrow_Up_Right"/><g/><g/><g/><g/><g/><g/></svg>