<?xml version="1.0" ?><!DOCTYPE svg  PUBLIC '-//W3C//DTD SVG 1.1//EN'  'http://www.w3.org/Graphics/SVG/1.1/DTD/svg11.dtd'><svg enable-background="new 0 0 32 32" height="32px" id="Слой_1" version="1.1" viewBox="0 0 32 32" width="32px" xml:space="preserve" xmlns="http://www.w3.org/2000/svg" xmlns:xlink="http://www.w3.org/1999/xlink"><g id="Fullscreen_Exit"><path d="M22.008,13.007h9C31.576,13.007,32,12.559,32,11.992c0-0.568-0.424-0.985-0.992-0.984h-8V2.992   c0-0.568-0.432-1-1-1c-0.568,0-1,0.432-1,1v9c0,0.003,0.001,0.005,0.001,0.007c0,0.003-0.001,0.005-0.001,0.008   C21.008,12.565,21.45,13.008,22.008,13.007z" fill="#121313"/><path d="M9.984,2C9.417,2,9,2.425,9,2.992v8H0.985c-0.568,0-1,0.432-1,1c0,0.568,0.432,1,1,1h9   c0.003,0,0.005-0.001,0.007-0.001c0.003,0,0.005,0.001,0.008,0.001c0.558,0,1-0.442,1-1v-9C11,2.425,10.552,2.001,9.984,2z" fill="#121313"/><path d="M9.992,18.992h-9C0.424,18.993,0,19.44,0,20.008c0,0.568,0.424,0.985,0.992,0.984h8v8.015   c0,0.568,0.432,1,1,1c0.568,0,1-0.432,1-1v-9c0-0.003-0.001-0.005-0.001-0.007c0-0.003,0.001-0.005,0.001-0.008   C10.992,19.434,10.55,18.992,9.992,18.992z" fill="#121313"/><path d="M31.015,18.992h-9c-0.003,0-0.005,0.001-0.007,0.001c-0.003,0-0.005-0.001-0.008-0.001   c-0.558,0-1,0.442-1,1v9c0,0.568,0.448,0.991,1.016,0.992C22.583,29.985,23,29.56,23,28.993v-8h8.015c0.568,0,1-0.432,1-1   C32.015,19.425,31.583,18.993,31.015,18.992z" fill="#121313"/></g><g/><g/><g/><g/><g/><g/></svg>