<?xml version="1.0" ?><!DOCTYPE svg  PUBLIC '-//W3C//DTD SVG 1.1//EN'  'http://www.w3.org/Graphics/SVG/1.1/DTD/svg11.dtd'><svg enable-background="new 0 0 32 32" height="32px" id="Слой_1" version="1.1" viewBox="0 0 32 32" width="32px" xml:space="preserve" xmlns="http://www.w3.org/2000/svg" xmlns:xlink="http://www.w3.org/1999/xlink"><g id="Double_Arrow_Up_x2F_Down"><path d="M27.704,7.19L20.706,0.29c-0.389-0.385-1.04-0.389-1.429,0l-6.999,6.9c-0.395,0.391-0.394,1.024,0,1.414   c0.394,0.391,1.034,0.391,1.428,0l5.275-5.2v15.593c0,0.552,0.452,1,1.01,1c0.558,0,1.01-0.448,1.01-1V3.404l5.275,5.2   c0.395,0.391,1.034,0.391,1.428,0C28.099,8.213,28.099,7.58,27.704,7.19z" fill="#121313"/><path d="M18.294,23.396l-5.275,5.2V13.003c0-0.552-0.452-1-1.01-1c-0.558,0-1.01,0.448-1.01,1v15.593l-5.275-5.2   c-0.395-0.391-1.034-0.391-1.428,0c-0.395,0.391-0.395,1.024,0,1.414l6.999,6.899c0.389,0.385,1.04,0.389,1.429,0l6.999-6.9   c0.395-0.391,0.394-1.024,0-1.414C19.328,23.006,18.688,23.005,18.294,23.396z" fill="#121313"/></g><g/><g/><g/><g/><g/><g/></svg>