<?xml version="1.0" ?><!DOCTYPE svg  PUBLIC '-//W3C//DTD SVG 1.1//EN'  'http://www.w3.org/Graphics/SVG/1.1/DTD/svg11.dtd'><svg id="Layer_1" style="enable-background:new 0 0 64 64;" version="1.1" viewBox="0 0 64 64" xml:space="preserve" xmlns="http://www.w3.org/2000/svg" xmlns:xlink="http://www.w3.org/1999/xlink"><style type="text/css">
	.st0{fill:#134563;}
</style><g><g id="Icon-Retweet" transform="translate(176.000000, 433.000000)"><path class="st0" d="M-127.5-388.3h-2.5v-22.8c0-0.7-0.6-1.3-1.3-1.3h-21.5v-2.5h21.5c2.1,0,3.8,1.7,3.8,3.8     V-388.3" id="Fill-160"/><polyline class="st0" id="Fill-161" points="-128.8,-386.5 -137.3,-396.4 -135.5,-398 -128.8,-390.1 -122.1,-398 -120.3,-396.4      -128.8,-386.5    "/><path class="st0" d="M-135.1-387.1h-21.5c-2.1,0-3.8-1.7-3.8-3.8v-22.8h2.5v22.8c0,0.7,0.6,1.3,1.3,1.3h21.5     V-387.1" id="Fill-162"/><polyline class="st0" id="Fill-163" points="-152.5,-404 -159.2,-411.9 -165.9,-404 -167.7,-405.6 -159.2,-415.5 -150.7,-405.6      -152.5,-404    "/></g></g></svg>