<?xml version="1.0" encoding="iso-8859-1"?>
<!-- Generator: Adobe Illustrator 19.0.0, SVG Export Plug-In . SVG Version: 6.00 Build 0)  -->
<svg version="1.1" id="Capa_1" xmlns="http://www.w3.org/2000/svg" xmlns:xlink="http://www.w3.org/1999/xlink" x="0px" y="0px"
	 viewBox="0 0 512 512" style="enable-background:new 0 0 512 512;" xml:space="preserve">
<g>
	<g>
		<path d="M208,288h-96c-8.832,0-16,7.168-16,16v64c0,8.832,7.168,16,16,16h96c8.832,0,16-7.168,16-16v-64
			C224,295.168,216.832,288,208,288z M192,352h-64v-32h64V352z"/>
	</g>
</g>
<g>
	<g>
		<path d="M509.024,182.688l-80-112C426.016,66.496,421.152,64,416,64H96c-5.152,0-10.016,2.496-13.024,6.688l-80,112
			C1.024,185.408,0,188.672,0,192c0,23.584,12.96,44,32,55.104V432c0,8.832,7.168,16,16,16h256c8.832,0,16-7.168,16-16V320h64v112
			c0,8.832,7.168,16,16,16h64c8.832,0,16-7.168,16-16V247.104C499.04,236,512,215.584,512,192
			C512,188.672,510.976,185.408,509.024,182.688z M448,416h-32V304c0-8.832-7.168-16-16-16h-96c-8.832,0-16,7.168-16,16v112H64V256
			c19.104,0,36.256-8.416,48-21.728C123.744,247.584,140.896,256,160,256s36.256-8.416,48-21.728
			C219.744,247.584,236.896,256,256,256s36.256-8.416,48-21.728C315.744,247.584,332.896,256,352,256s36.256-8.416,48-21.728
			C411.744,247.584,428.896,256,448,256V416z M448,224c-17.664,0-32-14.368-32-32c0-8.832-7.168-16-16-16c-8.832,0-16,7.168-16,16
			c0,17.632-14.336,32-32,32s-32-14.368-32-32c0-8.832-7.168-16-16-16c-8.832,0-16,7.168-16,16c0,17.632-14.336,32-32,32
			s-32-14.368-32-32c0-8.832-7.168-16-16-16c-8.832,0-16,7.168-16,16c0,17.632-14.336,32-32,32s-32-14.368-32-32
			c0-8.832-7.168-16-16-16c-8.832,0-16,7.168-16,16c0,17.632-14.336,32-32,32c-16.064,0-29.408-11.904-31.648-27.328L104.224,96
			h303.552l71.872,100.672C477.408,212.096,464.064,224,448,224z"/>
	</g>
</g>
<g>
</g>
<g>
</g>
<g>
</g>
<g>
</g>
<g>
</g>
<g>
</g>
<g>
</g>
<g>
</g>
<g>
</g>
<g>
</g>
<g>
</g>
<g>
</g>
<g>
</g>
<g>
</g>
<g>
</g>
</svg>
