<?xml version="1.0" encoding="iso-8859-1"?>
<!-- Generator: Adobe Illustrator 19.0.0, SVG Export Plug-In . SVG Version: 6.00 Build 0)  -->
<svg version="1.1" id="Capa_1" xmlns="http://www.w3.org/2000/svg" xmlns:xlink="http://www.w3.org/1999/xlink" x="0px" y="0px"
	 viewBox="0 0 512 512" style="enable-background:new 0 0 512 512;" xml:space="preserve">
<g>
	<g>
		<path d="M304,128h-48V96c0-52.928-43.072-96-96-96c-52.928,0-96,43.072-96,96v32H16c-8.832,0-16,7.168-16,16v304
			c0,35.296,28.704,64,64,64h112c8.832,0,16-7.168,16-16c0-8.832-7.168-16-16-16H64c-17.664,0-32-14.368-32-32V160h32v16
			c0,8.832,7.168,16,16,16c8.832,0,16-7.168,16-16v-16h128v16c0,8.832,7.168,16,16,16c8.832,0,16-7.168,16-16v-16h32v16
			c0,8.832,7.168,16,16,16c8.832,0,16-7.168,16-16v-32C320,135.168,312.832,128,304,128z M224,128H96V96c0-35.296,28.704-64,64-64
			s64,28.704,64,64V128z"/>
	</g>
</g>
<g>
	<g>
		<path d="M496,256h-49.632c-7.424-36.48-39.744-64-78.368-64s-70.944,27.52-78.368,64H240c-8.832,0-16,7.168-16,16v176
			c0,35.296,28.704,64,64,64h160c35.296,0,64-28.704,64-64V272C512,263.168,504.832,256,496,256z M368,224
			c20.832,0,38.432,13.408,45.056,32h-90.112C329.568,237.408,347.168,224,368,224z M480,448c0,17.632-14.336,32-32,32H288
			c-17.664,0-32-14.368-32-32V288h32v16c0,8.832,7.168,16,16,16c8.832,0,16-7.168,16-16v-16h96v16c0,8.832,7.168,16,16,16
			c8.832,0,16-7.168,16-16v-16h32V448z"/>
	</g>
</g>
<g>
</g>
<g>
</g>
<g>
</g>
<g>
</g>
<g>
</g>
<g>
</g>
<g>
</g>
<g>
</g>
<g>
</g>
<g>
</g>
<g>
</g>
<g>
</g>
<g>
</g>
<g>
</g>
<g>
</g>
</svg>
