<?xml version="1.0" encoding="iso-8859-1"?>
<!-- Generator: Adobe Illustrator 19.0.0, SVG Export Plug-In . SVG Version: 6.00 Build 0)  -->
<svg version="1.1" id="Capa_1" xmlns="http://www.w3.org/2000/svg" xmlns:xlink="http://www.w3.org/1999/xlink" x="0px" y="0px"
	 viewBox="0 0 512 512" style="enable-background:new 0 0 512 512;" xml:space="preserve">
<g>
	<g>
		<path d="M192.032,96c-52.928,0-96,43.072-96,96s43.072,96,96,96c52.928,0,96-43.072,96-96C288.032,139.072,244.96,96,192.032,96z
			 M192.032,256c-35.296,0-64-28.704-64-64s28.704-64,64-64s64,28.704,64,64S227.328,256,192.032,256z"/>
	</g>
</g>
<g>
	<g>
		<path d="M495.968,270.56c-0.736-8.256-7.648-14.56-15.936-14.56h-32v-32c0-35.296-28.704-64-64-64c-35.296,0-64,28.704-64,64v32
			h-32c-8.288,0-15.2,6.304-15.936,14.56L256.032,448c0,35.296,28.704,64,64,64h128c35.296,0,64-28.704,63.936-65.44L495.968,270.56
			z M352.032,224c0-17.664,14.336-32,32-32s32,14.336,32,32v32h-64V224z M448.032,480h-128c-17.664,0-32-14.336-32.064-30.56
			L302.656,288h17.376v48c0,8.832,7.168,16,16,16c8.832,0,16-7.168,16-16v-48h64v48c0,8.832,7.168,16,16,16c8.832,0,16-7.168,16-16
			v-48h17.408l14.592,160C480.032,465.664,465.696,480,448.032,480z"/>
	</g>
</g>
<g>
	<g>
		<path d="M363.168,104.832C330.144,40.192,264.576,0,192.032,0c-105.888,0-192,86.112-192,192
			c0,133.088,173.312,307.936,180.672,315.328c3.136,3.104,7.232,4.672,11.328,4.672s8.192-1.568,11.328-4.672
			c0,0,6.24-6.24,16.448-17.248c6.016-6.496,5.6-16.64-0.864-22.624c-6.528-6.016-16.64-5.568-22.624,0.864
			c-1.504,1.664-2.912,3.168-4.224,4.576C153.856,432.032,32.032,293.696,32.032,192c0-88.224,71.776-160,160-160
			c60.48,0,115.104,33.504,142.624,87.392c4.032,7.904,13.696,11.008,21.536,6.976C364.064,122.336,367.2,112.704,363.168,104.832z"
			/>
	</g>
</g>
<g>
</g>
<g>
</g>
<g>
</g>
<g>
</g>
<g>
</g>
<g>
</g>
<g>
</g>
<g>
</g>
<g>
</g>
<g>
</g>
<g>
</g>
<g>
</g>
<g>
</g>
<g>
</g>
<g>
</g>
</svg>
