<?xml version="1.0" encoding="iso-8859-1"?>
<!-- Generator: Adobe Illustrator 19.0.0, SVG Export Plug-In . SVG Version: 6.00 Build 0)  -->
<svg version="1.1" id="Capa_1" xmlns="http://www.w3.org/2000/svg" xmlns:xlink="http://www.w3.org/1999/xlink" x="0px" y="0px"
	 viewBox="0 0 512.016 512.016" style="enable-background:new 0 0 512.016 512.016;" xml:space="preserve">
<g>
	<g>
		<path d="M501.92,258.664c-7.936-10.24-19.424-16.736-32.224-18.304c-12.704-1.664-25.152,1.984-35.04,9.728L320.64,338.504
			c-11.04,8.704-24.928,13.504-39.04,13.504h-27.456C274.976,331.656,288,303.368,288,272.04c0-8.832-7.168-16-16-16l-176-0.032v-16
			c0-8.832-7.168-16-16-16H16c-8.832,0-16,7.168-16,16v224c0,8.832,7.168,16,16,16h64c8.832,0,16-7.168,16-16v-16h213.12
			c17.408,0,34.72-5.952,48.832-16.8L493.28,325.96c10.24-7.904,16.768-19.328,18.368-32.16
			C513.216,281.096,509.728,268.584,501.92,258.664z M64,448.008H32v-192h32V448.008z M479.904,289.832
			c-0.544,4.288-2.72,8.128-6.208,10.848L338.4,405.896c-8.48,6.528-18.912,10.112-29.28,10.112H96v-128l158.4,0.032
			c-7.424,36.448-39.776,63.968-78.4,63.968c-8.832,0-16,7.168-16,16c0,8.832,7.168,16,16,16h105.6
			c21.28,0,42.176-7.264,58.784-20.32L454.4,275.304c3.232-2.56,7.328-3.584,11.392-3.2c4.32,0.544,8.16,2.72,10.912,6.272
			C479.264,281.64,480.384,285.704,479.904,289.832z"/>
	</g>
</g>
<g>
	<g>
		<path d="M432,32.008H80c-8.832,0-16,7.168-16,16v128c0,8.832,7.168,16,16,16c8.832,0,16-7.168,16-16v-112h96v80
			c0,5.92,3.264,11.328,8.448,14.08c5.216,2.816,11.488,2.496,16.448-0.768L256,131.24l39.136,26.08
			c2.688,1.792,5.76,2.688,8.864,2.688c2.592,0,5.184-0.64,7.552-1.92c5.184-2.752,8.448-8.16,8.448-14.08v-80h96v144
			c0,8.832,7.168,16,16,16c8.832,0,16-7.168,16-16v-160C448,39.176,440.832,32.008,432,32.008z M288,114.088l-23.136-15.392
			c-5.376-3.552-12.384-3.552-17.76,0L224,114.088v-50.08h64V114.088z"/>
	</g>
</g>
<g>
</g>
<g>
</g>
<g>
</g>
<g>
</g>
<g>
</g>
<g>
</g>
<g>
</g>
<g>
</g>
<g>
</g>
<g>
</g>
<g>
</g>
<g>
</g>
<g>
</g>
<g>
</g>
<g>
</g>
</svg>
