<?xml version="1.0" encoding="iso-8859-1"?>
<!-- Generator: Adobe Illustrator 19.0.0, SVG Export Plug-In . SVG Version: 6.00 Build 0)  -->
<svg version="1.1" id="Capa_1" xmlns="http://www.w3.org/2000/svg" xmlns:xlink="http://www.w3.org/1999/xlink" x="0px" y="0px"
	 viewBox="0 0 512.016 512.016" style="enable-background:new 0 0 512.016 512.016;" xml:space="preserve">
<g>
	<g>
		<path d="M501.92,274.664c-7.936-10.24-19.424-16.736-32.224-18.304c-12.736-1.664-25.152,1.984-35.04,9.728L320.64,354.504
			c-11.04,8.704-24.928,13.504-39.04,13.504h-27.456C274.976,347.656,288,319.368,288,288.04c0-8.832-7.168-16-16-16l-176-0.032v-16
			c0-8.832-7.168-16-16-16H16c-8.832,0-16,7.168-16,16v224c0,8.832,7.168,16,16,16h64c8.832,0,16-7.168,16-16v-16h213.12
			c17.408,0,34.72-5.952,48.832-16.8L493.28,341.96c10.24-7.904,16.768-19.328,18.368-32.16
			C513.216,297.096,509.728,284.584,501.92,274.664z M64,464.008H32v-192h32V464.008z M479.904,305.832
			c-0.544,4.288-2.72,8.128-6.208,10.848L338.4,421.896c-8.48,6.528-18.912,10.112-29.28,10.112H96v-128l158.4,0.032
			c-7.424,36.448-39.776,63.968-78.4,63.968c-8.832,0-16,7.168-16,16c0,8.832,7.168,16,16,16h105.6
			c21.28,0,42.176-7.264,58.784-20.32L454.4,291.304c3.232-2.56,7.328-3.616,11.392-3.2c4.32,0.544,8.16,2.72,10.912,6.272
			C479.264,297.64,480.384,301.704,479.904,305.832z"/>
	</g>
</g>
<g>
	<g>
		<path d="M272,16.008c-26.464,0-48,21.536-48,48s21.536,48,48,48s48-21.536,48-48S298.464,16.008,272,16.008z M272,80.008
			c-8.8,0-16-7.2-16-16s7.2-16,16-16s16,7.2,16,16S280.8,80.008,272,80.008z"/>
	</g>
</g>
<g>
	<g>
		<path d="M368,144.008c-26.464,0-48,21.536-48,48s21.536,48,48,48s48-21.536,48-48S394.464,144.008,368,144.008z M368,208.008
			c-8.8,0-16-7.2-16-16s7.2-16,16-16s16,7.2,16,16S376.8,208.008,368,208.008z"/>
	</g>
</g>
<g>
	<g>
		<path d="M410.272,19.72c-6.816-5.632-16.896-4.736-22.56,2.048l-160,192c-5.664,6.784-4.736,16.864,2.048,22.528
			c2.976,2.496,6.624,3.712,10.24,3.712c4.576,0,9.12-1.984,12.288-5.76l160-192C417.952,35.464,417.024,25.384,410.272,19.72z"/>
	</g>
</g>
<g>
</g>
<g>
</g>
<g>
</g>
<g>
</g>
<g>
</g>
<g>
</g>
<g>
</g>
<g>
</g>
<g>
</g>
<g>
</g>
<g>
</g>
<g>
</g>
<g>
</g>
<g>
</g>
<g>
</g>
</svg>
