<?xml version="1.0" encoding="iso-8859-1"?>
<!-- Generator: Adobe Illustrator 19.0.0, SVG Export Plug-In . SVG Version: 6.00 Build 0)  -->
<svg version="1.1" id="Capa_1" xmlns="http://www.w3.org/2000/svg" xmlns:xlink="http://www.w3.org/1999/xlink" x="0px" y="0px"
	 viewBox="0 0 512 512" style="enable-background:new 0 0 512 512;" xml:space="preserve">
<g>
	<g>
		<path d="M496,352h-16v-32c0-35.296-28.704-64-64-64c-35.296,0-64,28.704-64,64v32h-16c-8.832,0-16,7.168-16,16v128
			c0,8.832,7.168,16,16,16h160c8.832,0,16-7.168,16-16V368C512,359.168,504.832,352,496,352z M384,320c0-17.664,14.336-32,32-32
			s32,14.336,32,32v32h-64V320z M480,480H352v-96h128V480z"/>
	</g>
</g>
<g>
	<g>
		<path d="M447.712,110.592c-0.096-1.088-0.32-2.08-0.64-3.136c-0.32-1.056-0.704-2.016-1.216-2.976
			c-0.224-0.416-0.256-0.928-0.544-1.344l-64-96C378.336,2.688,373.344,0,368,0H80c-5.344,0-10.336,2.688-13.312,7.136l-64,96
			c-0.288,0.416-0.32,0.896-0.544,1.344c-0.512,0.96-0.896,1.92-1.216,2.976c-0.32,1.056-0.544,2.048-0.64,3.136
			C0.256,111.072,0,111.488,0,112v304c0,17.664,14.336,32,32,32h240c8.832,0,16-7.168,16-16c0-8.832-7.168-16-16-16H32V128h128v80
			c0,5.152,2.464,9.984,6.656,12.96c4.128,3.04,9.472,3.776,14.4,2.24L224,208.864l42.944,14.304
			c1.664,0.544,3.36,0.832,5.056,0.832c3.328,0,6.592-1.024,9.344-3.04c4.192-2.976,6.656-7.808,6.656-12.96v-80h128v80
			c0,8.832,7.168,16,16,16c8.832,0,16-7.168,16-16v-96C448,111.488,447.744,111.072,447.712,110.592z M162.432,96H45.888l42.688-64
			h84.544L162.432,96z M205.536,32h36.896l10.688,64h-58.24L205.536,32z M256,185.824l-26.944-9.024
			c-3.328-1.056-6.816-1.056-10.112,0L192,185.824V128h64V185.824z M285.568,96L274.88,32h84.544l42.688,64H285.568z"/>
	</g>
</g>
<g>
</g>
<g>
</g>
<g>
</g>
<g>
</g>
<g>
</g>
<g>
</g>
<g>
</g>
<g>
</g>
<g>
</g>
<g>
</g>
<g>
</g>
<g>
</g>
<g>
</g>
<g>
</g>
<g>
</g>
</svg>
