<?xml version="1.0" encoding="iso-8859-1"?>
<!-- Generator: Adobe Illustrator 19.0.0, SVG Export Plug-In . SVG Version: 6.00 Build 0)  -->
<svg version="1.1" id="Capa_1" xmlns="http://www.w3.org/2000/svg" xmlns:xlink="http://www.w3.org/1999/xlink" x="0px" y="0px"
	 viewBox="0 0 512 512" style="enable-background:new 0 0 512 512;" xml:space="preserve">
<g>
	<g>
		<path d="M496,32H16C7.168,32,0,39.168,0,48v16c0,35.296,28.704,64,64,64h176v64c-97.024,0-176,78.976-176,176v96
			c0,8.832,7.168,16,16,16h352c8.832,0,16-7.168,16-16v-96c0-97.024-78.976-176-176-176v-64h176c35.296,0,64-28.704,64-64V48
			C512,39.168,504.832,32,496,32z M416,368v80H96v-80c0-79.392,64.608-144,144-144h32C351.392,224,416,288.608,416,368z M448,96H64
			c-17.664,0-32-14.336-32-32h448C480,81.664,465.664,96,448,96z"/>
	</g>
</g>
<g>
	<g>
		<path d="M256,320c-9.312,0-17.952,2.784-25.312,7.392l-44.672-35.872c-6.816-5.504-16.928-4.416-22.496,2.496
			c-5.504,6.848-4.416,16.928,2.496,22.464l44.8,35.968C209.12,357.344,208,362.528,208,368c0,26.464,21.536,48,48,48
			s48-21.536,48-48S282.464,320,256,320z M256,384c-8.8,0-16-7.2-16-16s7.2-16,16-16s16,7.2,16,16S264.8,384,256,384z"/>
	</g>
</g>
<g>
</g>
<g>
</g>
<g>
</g>
<g>
</g>
<g>
</g>
<g>
</g>
<g>
</g>
<g>
</g>
<g>
</g>
<g>
</g>
<g>
</g>
<g>
</g>
<g>
</g>
<g>
</g>
<g>
</g>
</svg>
