<?xml version="1.0" encoding="iso-8859-1"?>
<!-- Generator: Adobe Illustrator 19.0.0, SVG Export Plug-In . SVG Version: 6.00 Build 0)  -->
<svg version="1.1" id="Capa_1" xmlns="http://www.w3.org/2000/svg" xmlns:xlink="http://www.w3.org/1999/xlink" x="0px" y="0px"
	 viewBox="0 0 512.02 512.02" style="enable-background:new 0 0 512.02 512.02;" xml:space="preserve">
<g>
	<g>
		<path d="M240.01,160h-128c-8.832,0-16,7.168-16,16c0,8.832,7.168,16,16,16h128c8.832,0,16-7.168,16-16
			C256.01,167.168,248.842,160,240.01,160z"/>
	</g>
</g>
<g>
	<g>
		<path d="M240.01,256h-128c-8.832,0-16,7.168-16,16c0,8.832,7.168,16,16,16h128c8.832,0,16-7.168,16-16
			C256.01,263.168,248.842,256,240.01,256z"/>
	</g>
</g>
<g>
	<g>
		<path d="M240.01,352h-128c-8.832,0-16,7.168-16,16c0,8.832,7.168,16,16,16h128c8.832,0,16-7.168,16-16
			C256.01,359.168,248.842,352,240.01,352z"/>
	</g>
</g>
<g>
	<g>
		<path d="M368.01,160h-32c-8.832,0-16,7.168-16,16c0,8.832,7.168,16,16,16h32c8.832,0,16-7.168,16-16
			C384.01,167.168,376.842,160,368.01,160z"/>
	</g>
</g>
<g>
	<g>
		<path d="M368.01,256h-32c-8.832,0-16,7.168-16,16c0,8.832,7.168,16,16,16h32c8.832,0,16-7.168,16-16
			C384.01,263.168,376.842,256,368.01,256z"/>
	</g>
</g>
<g>
	<g>
		<path d="M368.01,352h-32c-8.832,0-16,7.168-16,16c0,8.832,7.168,16,16,16h32c8.832,0,16-7.168,16-16
			C384.01,359.168,376.842,352,368.01,352z"/>
	</g>
</g>
<g>
	<g>
		<path d="M496.01,0h-480c-8.832,0-16,7.168-16,16v64c0,8.832,7.168,16,16,16h16v400c0,5.696,3.04,10.976,7.968,13.856
			c4.928,2.88,11.04,2.88,15.968,0.032l103.392-59.104l87.776,58.528c5.376,3.584,12.384,3.584,17.76,0l87.776-58.528
			l103.392,59.104c2.496,1.408,5.248,2.112,7.968,2.112c2.784,0,5.536-0.704,8.032-2.144c4.928-2.88,7.968-8.16,7.968-13.856V96h16
			c8.832,0,16-7.168,16-16V16C512.01,7.168,504.842,0,496.01,0z M448.01,468.416l-88.032-50.304
			c-5.28-3.008-11.776-2.784-16.8,0.576l-87.168,58.08l-87.136-58.08c-5.056-3.36-11.52-3.584-16.8-0.576L64.01,468.416V96h384
			V468.416z M480.01,64h-448V32h448V64z"/>
	</g>
</g>
<g>
</g>
<g>
</g>
<g>
</g>
<g>
</g>
<g>
</g>
<g>
</g>
<g>
</g>
<g>
</g>
<g>
</g>
<g>
</g>
<g>
</g>
<g>
</g>
<g>
</g>
<g>
</g>
<g>
</g>
</svg>
