<?xml version="1.0" encoding="iso-8859-1"?>
<!-- Generator: Adobe Illustrator 19.0.0, SVG Export Plug-In . SVG Version: 6.00 Build 0)  -->
<svg version="1.1" id="Capa_1" xmlns="http://www.w3.org/2000/svg" xmlns:xlink="http://www.w3.org/1999/xlink" x="0px" y="0px"
	 viewBox="0 0 505.959 505.959" style="enable-background:new 0 0 505.959 505.959;" xml:space="preserve">
<g>
	<g>
		<path d="M495.872,250.42L234.976,4.916C232,2.132,228.064,0.564,224,0.564H16c-8.832,0-16,7.168-16,16v208
			c0,4.416,1.824,8.64,5.024,11.616L280.8,496.66c5.952,5.6,13.888,8.736,22.016,8.736c0.576,0,1.12-0.032,1.664-0.064
			c8.704-0.448,16.928-4.512,22.592-11.136L498.24,294.548C509.408,281.524,508.32,262.1,495.872,250.42z M302.784,473.396
			L32,217.652V32.564h185.664L473.92,273.748L302.784,473.396z"/>
	</g>
</g>
<g>
	<g>
		<path d="M112,64.564c-26.464,0-48,21.536-48,48s21.536,48,48,48s48-21.536,48-48S138.464,64.564,112,64.564z M112,128.564
			c-8.832,0-16-7.2-16-16s7.168-16,16-16c8.832,0,16,7.2,16,16S120.832,128.564,112,128.564z"/>
	</g>
</g>
<g>
	<g>
		<path d="M272,256.564c-8.832,0-16-7.2-16-16s7.168-16,16-16h32c8.832,0,16-7.168,16-16c0-8.832-7.168-16-16-16h-16v-16
			c0-8.832-7.168-16-16-16c-8.832,0-16,7.168-16,16v18.944c-18.592,6.624-32,24.224-32,45.056c0,26.464,21.536,48,48,48
			c8.832,0,16,7.2,16,16s-7.168,16-16,16h-32c-8.832,0-16,7.168-16,16c0,8.832,7.168,16,16,16h16v16c0,8.832,7.168,16,16,16
			c8.832,0,16-7.168,16-16V349.62c18.592-6.624,32-24.224,32-45.056C320,278.1,298.464,256.564,272,256.564z"/>
	</g>
</g>
<g>
</g>
<g>
</g>
<g>
</g>
<g>
</g>
<g>
</g>
<g>
</g>
<g>
</g>
<g>
</g>
<g>
</g>
<g>
</g>
<g>
</g>
<g>
</g>
<g>
</g>
<g>
</g>
<g>
</g>
</svg>
