<?xml version="1.0" encoding="iso-8859-1"?>
<!-- Generator: Adobe Illustrator 19.0.0, SVG Export Plug-In . SVG Version: 6.00 Build 0)  -->
<svg version="1.1" id="Capa_1" xmlns="http://www.w3.org/2000/svg" xmlns:xlink="http://www.w3.org/1999/xlink" x="0px" y="0px"
	 viewBox="0 0 512 512" style="enable-background:new 0 0 512 512;" xml:space="preserve">
<g>
	<g>
		<rect x="480" y="240" width="32" height="32"/>
	</g>
</g>
<g>
	<g>
		<rect x="416" y="240" width="32" height="32"/>
	</g>
</g>
<g>
	<g>
		<rect x="352" y="240" width="32" height="32"/>
	</g>
</g>
<g>
	<g>
		<rect x="288" y="240" width="32" height="32"/>
	</g>
</g>
<g>
	<g>
		<path d="M375.232,353.728L182.496,256l192.736-97.728c7.904-4,11.04-13.632,7.04-21.504c-4-7.904-13.696-11.104-21.504-7.04
			L147.136,238.08l-48.32-24.512C116.352,202.144,128,182.432,128,160c0-35.296-28.704-64-64-64S0,124.704,0,160
			c0,24.256,13.44,46.112,35.104,57.12c0.032,0,0.032,0,0.064,0.032L111.776,256l-76.704,38.88C13.44,305.888,0,327.744,0,352
			c0,35.296,28.704,64,64,64s64-28.704,64-64c0-22.432-11.648-42.144-29.184-53.568l48.32-24.512l213.632,108.32
			c2.304,1.216,4.768,1.76,7.232,1.76c5.856,0,11.456-3.2,14.272-8.768C386.272,367.36,383.136,357.728,375.232,353.728z M64,192
			c-5.088,0-9.984-1.152-14.464-3.424C38.72,183.072,32,172.128,32,160c0-17.632,14.368-32,32-32s32,14.368,32,32S81.632,192,64,192
			z M64,384c-17.632,0-32-14.368-32-32c0-12.128,6.72-23.072,17.536-28.576C54.016,321.152,58.912,320,64,320
			c17.632,0,32,14.368,32,32C96,369.632,81.632,384,64,384z"/>
	</g>
</g>
<g>
</g>
<g>
</g>
<g>
</g>
<g>
</g>
<g>
</g>
<g>
</g>
<g>
</g>
<g>
</g>
<g>
</g>
<g>
</g>
<g>
</g>
<g>
</g>
<g>
</g>
<g>
</g>
<g>
</g>
</svg>
