<?xml version="1.0" encoding="iso-8859-1"?>
<!-- Generator: Adobe Illustrator 19.0.0, SVG Export Plug-In . SVG Version: 6.00 Build 0)  -->
<svg version="1.1" id="Capa_1" xmlns="http://www.w3.org/2000/svg" xmlns:xlink="http://www.w3.org/1999/xlink" x="0px" y="0px"
	 viewBox="0 0 512 512" style="enable-background:new 0 0 512 512;" xml:space="preserve">
<g>
	<g>
		<path d="M150.24,375.99l-64-27.2c-8.064-3.456-17.504,0.352-20.96,8.48s0.32,17.536,8.48,20.96l64,27.2
			c2.016,0.864,4.16,1.28,6.24,1.28c6.208,0,12.128-3.648,14.72-9.76C162.176,388.822,158.4,379.414,150.24,375.99z"/>
	</g>
</g>
<g>
	<g>
		<path d="M511.776,111.254c-0.096-1.632-0.192-3.264-0.8-4.896c-0.352-0.928-0.992-1.568-1.504-2.4
			c-0.352-0.576-0.608-1.088-0.992-1.6c-1.792-2.336-4-4.128-6.656-5.152c-0.096-0.032-0.128-0.128-0.224-0.16l-256-95.968
			c-3.872-1.504-8.128-1.408-11.904,0.224l-224,95.968c-0.224,0.096-0.32,0.352-0.544,0.448c-2.208,1.056-4.064,2.688-5.6,4.704
			c-0.448,0.576-0.832,1.088-1.216,1.728c-0.32,0.544-0.8,0.928-1.056,1.536c-0.864,2.048-1.28,4.16-1.28,6.272v0.032v288
			c0,6.4,3.808,12.192,9.696,14.72l224,96h0.032c1.952,0.832,4.064,1.28,6.272,1.28c1.92,0,3.808-0.352,5.632-1.024l0.576-0.224
			c0,0,0,0,0.032,0l255.392-95.776c6.24-2.336,10.368-8.32,10.368-14.976v-288C512,111.702,511.776,111.51,511.776,111.254z
			 M224,471.702L32,389.43V136.277l192,82.272V471.702z M240.384,190.742L56.64,111.99l183.744-78.72l210.048,78.72l-50.08,18.784
			L310.56,90.55c-4.544-2.048-9.728-1.824-14.048,0.544L233.76,117.75c-5.92,2.496-9.76,8.384-9.76,14.816
			c0,6.464,3.904,12.32,9.92,14.784l58.208,24.032L240.384,190.742z M352,183.062l32-12v77.984l-32,12V183.062z M336.064,154.87
			l-54.72-22.56L304,122.678l53.76,24.064L336.064,154.87z M480,388.886l-224,84V219.062l64-24v89.088
			c0,5.248,2.592,10.144,6.88,13.152c2.72,1.888,5.888,2.848,9.12,2.848c1.888,0,3.808-0.352,5.632-1.024l64-24
			c6.24-2.368,10.368-8.32,10.368-14.976V159.062l64-24V388.886z"/>
	</g>
</g>
<g>
</g>
<g>
</g>
<g>
</g>
<g>
</g>
<g>
</g>
<g>
</g>
<g>
</g>
<g>
</g>
<g>
</g>
<g>
</g>
<g>
</g>
<g>
</g>
<g>
</g>
<g>
</g>
<g>
</g>
</svg>
