<?xml version="1.0" encoding="iso-8859-1"?>
<!-- Generator: Adobe Illustrator 19.0.0, SVG Export Plug-In . SVG Version: 6.00 Build 0)  -->
<svg version="1.1" id="Capa_1" xmlns="http://www.w3.org/2000/svg" xmlns:xlink="http://www.w3.org/1999/xlink" x="0px" y="0px"
	 viewBox="0 0 512 512" style="enable-background:new 0 0 512 512;" xml:space="preserve">
<g>
	<g>
		<path d="M509.728,295.776l-48-80C458.848,210.944,453.632,208,448,208H336c-8.832,0-16,7.168-16,16v80h-32V96
			c0-8.832-7.168-16-16-16H48c-8.832,0-16,7.168-16,16v208H16c-8.832,0-16,7.168-16,16v64c0,8.832,7.168,16,16,16h50.944
			c6.624,18.592,24.224,32,45.056,32c20.832,0,38.432-13.408,45.056-32H336h50.944c6.624,18.592,24.224,32,45.056,32
			c20.832,0,38.432-13.408,45.056-32H496c8.832,0,16-7.168,16-16v-80C512,301.088,511.232,298.24,509.728,295.776z M128,112h64v32
			h-64V112z M64,112h32v48c0,8.832,7.168,16,16,16h96c8.832,0,16-7.168,16-16v-48h32v192H64V112z M112,400c-8.8,0-16-7.168-16-16
			c0-8.832,7.2-16,16-16s16,7.168,16,16C128,392.832,120.8,400,112,400z M320,368H157.056c-6.624-18.592-24.224-32-45.056-32
			c-20.832,0-38.432,13.408-45.056,32H32v-32h80h208V368z M432,400c-8.8,0-16-7.168-16-16c0-8.832,7.2-16,16-16s16,7.168,16,16
			C448,392.832,440.8,400,432,400z M480,368h-2.944c-6.624-18.592-24.224-32-45.056-32c-20.832,0-38.432,13.408-45.056,32H352V240
			h86.944L480,308.448V368z"/>
	</g>
</g>
<g>
</g>
<g>
</g>
<g>
</g>
<g>
</g>
<g>
</g>
<g>
</g>
<g>
</g>
<g>
</g>
<g>
</g>
<g>
</g>
<g>
</g>
<g>
</g>
<g>
</g>
<g>
</g>
<g>
</g>
</svg>
