<?xml version="1.0" encoding="iso-8859-1"?>
<!-- Generator: Adobe Illustrator 19.0.0, SVG Export Plug-In . SVG Version: 6.00 Build 0)  -->
<svg version="1.1" id="Capa_1" xmlns="http://www.w3.org/2000/svg" xmlns:xlink="http://www.w3.org/1999/xlink" x="0px" y="0px"
	 viewBox="0 0 512 512" style="enable-background:new 0 0 512 512;" xml:space="preserve">
<g>
	<g>
		<path d="M496,224h-56.64L301.312,63.2c1.6-4.8,2.688-9.856,2.688-15.2c0-26.464-21.536-48-48-48s-48,21.536-48,48
			c0,5.344,1.088,10.4,2.688,15.2L72.64,224H16c-8.832,0-16,7.168-16,16v256c0,8.832,7.168,16,16,16h480c8.832,0,16-7.168,16-16V240
			C512,231.168,504.832,224,496,224z M256,32c8.832,0,16,7.168,16,16c0,8.832-7.168,16-16,16c-8.832,0-16-7.168-16-16
			C240,39.168,247.168,32,256,32z M230.944,88.736C238.24,93.248,246.784,96,256,96s17.76-2.752,25.056-7.264L397.184,224H114.816
			L230.944,88.736z M480,480H32V256h448V480z"/>
	</g>
</g>
<g>
	<g>
		<path d="M144,416H96v-16c0-8.832,7.168-16,16-16c26.464,0,48-21.536,48-48s-21.536-48-48-48H80c-8.832,0-16,7.168-16,16
			c0,8.832,7.168,16,16,16h32c8.832,0,16,7.168,16,16c0,8.832-7.168,16-16,16c-26.464,0-48,21.536-48,48v32c0,8.832,7.168,16,16,16
			h64c8.832,0,16-7.168,16-16C160,423.168,152.832,416,144,416z"/>
	</g>
</g>
<g>
	<g>
		<path d="M272,288c-8.832,0-16,7.168-16,16v48h-32v-48c0-8.832-7.168-16-16-16c-8.832,0-16,7.168-16,16v64c0,8.832,7.168,16,16,16
			h48v48c0,8.832,7.168,16,16,16c8.832,0,16-7.168,16-16V304C288,295.168,280.832,288,272,288z"/>
	</g>
</g>
<g>
	<g>
		<path d="M432,288c-8.832,0-16,7.168-16,16v48h-32v-48c0-8.832-7.168-16-16-16c-8.832,0-16,7.168-16,16v128c0,8.832,7.168,16,16,16
			c8.832,0,16-7.168,16-16v-48h32v48c0,8.832,7.168,16,16,16c8.832,0,16-7.168,16-16V304C448,295.168,440.832,288,432,288z"/>
	</g>
</g>
<g>
</g>
<g>
</g>
<g>
</g>
<g>
</g>
<g>
</g>
<g>
</g>
<g>
</g>
<g>
</g>
<g>
</g>
<g>
</g>
<g>
</g>
<g>
</g>
<g>
</g>
<g>
</g>
<g>
</g>
</svg>
