<?xml version="1.0" encoding="iso-8859-1"?>
<!-- Generator: Adobe Illustrator 19.0.0, SVG Export Plug-In . SVG Version: 6.00 Build 0)  -->
<svg version="1.1" id="Capa_1" xmlns="http://www.w3.org/2000/svg" xmlns:xlink="http://www.w3.org/1999/xlink" x="0px" y="0px"
	 viewBox="0 0 512 512" style="enable-background:new 0 0 512 512;" xml:space="preserve">
<g>
	<g>
		<path d="M509.728,327.776l-48-80C458.848,242.944,453.632,240,448,240h-96v-48c0-8.832-7.168-16-16-16H222.368
			c0.768-5.28,1.632-10.528,1.632-16c0-61.76-50.24-112-112-112S0,98.24,0,160c0,30.4,12.256,57.92,32,78.144V416
			c0,8.832,7.168,16,16,16h50.944c6.624,18.592,24.224,32,45.056,32c20.832,0,38.432-13.408,45.056-32H336h50.944
			c6.624,18.592,24.224,32,45.056,32c20.832,0,38.432-13.408,45.056-32H496c8.832,0,16-7.168,16-16v-80
			C512,333.088,511.232,330.24,509.728,327.776z M32,160c0-44.096,35.872-80,80-80s80,35.904,80,80s-35.872,80-80,80
			S32,204.096,32,160z M144,432c-8.8,0-16-7.168-16-16c0-8.832,7.2-16,16-16s16,7.168,16,16C160,424.832,152.8,432,144,432z
			 M320,400H189.056c-6.624-18.592-24.224-32-45.056-32c-20.832,0-38.432,13.408-45.056,32H64V260.768
			C78.592,267.744,94.752,272,112,272c44.512,0,82.72-26.304,100.768-64H320V400z M432,432c-8.8,0-16-7.168-16-16
			c0-8.832,7.2-16,16-16s16,7.168,16,16C448,424.832,440.8,432,432,432z M480,400h-2.944c-6.624-18.592-24.224-32-45.056-32
			c-20.832,0-38.432,13.408-45.056,32H352V272h86.944L480,340.448V400z"/>
	</g>
</g>
<g>
	<g>
		<path d="M155.328,180.704L128,153.376V128c0-8.832-7.168-16-16-16c-8.832,0-16,7.168-16,16v32c0,4.256,1.696,8.32,4.672,11.328
			l32,32C135.808,206.432,139.904,208,144,208s8.192-1.568,11.328-4.672C161.568,197.088,161.568,186.944,155.328,180.704z"/>
	</g>
</g>
<g>
</g>
<g>
</g>
<g>
</g>
<g>
</g>
<g>
</g>
<g>
</g>
<g>
</g>
<g>
</g>
<g>
</g>
<g>
</g>
<g>
</g>
<g>
</g>
<g>
</g>
<g>
</g>
<g>
</g>
</svg>
