<?xml version="1.0" encoding="iso-8859-1"?>
<!-- Generator: Adobe Illustrator 19.0.0, SVG Export Plug-In . SVG Version: 6.00 Build 0)  -->
<svg version="1.1" id="Capa_1" xmlns="http://www.w3.org/2000/svg" xmlns:xlink="http://www.w3.org/1999/xlink" x="0px" y="0px"
	 viewBox="0 0 512 512" style="enable-background:new 0 0 512 512;" xml:space="preserve">
<g>
	<g>
		<path d="M176,288c-8.832,0-16,7.168-16,16v60.224l-33.696-67.392c-3.296-6.656-10.848-10.08-17.984-8.416
			C101.12,290.112,96,296.576,96,304v128c0,8.832,7.168,16,16,16c8.832,0,16-7.168,16-16v-60.224l33.696,67.36
			C164.448,444.672,170.048,448,176,448c1.216,0,2.464-0.128,3.68-0.416c7.2-1.696,12.32-8.16,12.32-15.584V304
			C192,295.168,184.832,288,176,288z"/>
	</g>
</g>
<g>
	<g>
		<path d="M272,384c8.832,0,16-7.168,16-16c0-8.832-7.168-16-16-16h-16v-32h16c8.832,0,16-7.168,16-16c0-8.832-7.168-16-16-16h-32
			c-8.832,0-16,7.168-16,16v128c0,8.832,7.168,16,16,16h32c8.832,0,16-7.168,16-16c0-8.832-7.168-16-16-16h-16v-32H272z"/>
	</g>
</g>
<g>
	<g>
		<path d="M496,224h-56.64L301.312,63.2c1.6-4.8,2.688-9.856,2.688-15.2c0-26.464-21.536-48-48-48s-48,21.536-48,48
			c0,5.344,1.088,10.4,2.688,15.2L72.64,224H16c-8.832,0-16,7.168-16,16v256c0,8.832,7.168,16,16,16h480c8.832,0,16-7.168,16-16V240
			C512,231.168,504.832,224,496,224z M256,32c8.832,0,16,7.168,16,16c0,8.832-7.168,16-16,16c-8.832,0-16-7.168-16-16
			C240,39.168,247.168,32,256,32z M230.944,88.736C238.24,93.248,246.784,96,256,96s17.76-2.752,25.056-7.264L397.184,224H114.816
			L230.944,88.736z M480,480H32V256h448V480z"/>
	</g>
</g>
<g>
	<g>
		<path d="M400,288c-8.832,0-16,7.168-16,16v60.224l-1.696-3.36c-5.44-10.848-23.2-10.848-28.64,0l-1.664,3.36V304
			c0-8.832-7.168-16-16-16c-8.832,0-16,7.168-16,16v128c0,7.424,5.12,13.888,12.32,15.584c7.104,1.632,14.656-1.792,17.984-8.416
			L368,403.808l17.696,35.36C388.448,444.672,394.048,448,400,448c1.216,0,2.464-0.128,3.68-0.416
			c7.2-1.696,12.32-8.16,12.32-15.584V304C416,295.168,408.832,288,400,288z"/>
	</g>
</g>
<g>
</g>
<g>
</g>
<g>
</g>
<g>
</g>
<g>
</g>
<g>
</g>
<g>
</g>
<g>
</g>
<g>
</g>
<g>
</g>
<g>
</g>
<g>
</g>
<g>
</g>
<g>
</g>
<g>
</g>
</svg>
