<?xml version="1.0" encoding="iso-8859-1"?>
<!-- Generator: Adobe Illustrator 19.0.0, SVG Export Plug-In . SVG Version: 6.00 Build 0)  -->
<svg version="1.1" id="Capa_1" xmlns="http://www.w3.org/2000/svg" xmlns:xlink="http://www.w3.org/1999/xlink" x="0px" y="0px"
	 viewBox="0 0 512.059 512.059" style="enable-background:new 0 0 512.059 512.059;" xml:space="preserve">
<g>
	<g>
		<path d="M510.973,314.531l-22.464-58.528l22.464-58.592c2.464-6.464,0.512-13.792-4.896-18.144l-48.704-39.488l-9.856-61.984
			c-1.088-6.848-6.464-12.192-13.312-13.28l-61.984-9.856L332.765,5.923c-4.352-5.408-11.84-7.328-18.144-4.864l-58.592,22.464
			L197.437,1.059c-6.336-2.464-13.792-0.544-18.144,4.896l-39.488,48.704l-61.952,9.856c-6.848,1.088-12.224,6.432-13.312,13.28
			l-9.856,61.984L5.981,179.267c-5.408,4.352-7.36,11.68-4.896,18.144l22.464,58.592L1.085,314.595
			c-2.464,6.464-0.544,13.792,4.864,18.176l48.704,39.488l9.856,61.984c1.088,6.848,6.464,12.192,13.312,13.28l61.984,9.856
			l39.456,48.736c4.384,5.44,11.808,7.36,18.144,4.864l58.624-22.496l58.592,22.464c1.856,0.704,3.776,1.056,5.728,1.056
			c4.704,0,9.344-2.08,12.448-5.952l39.456-48.736l61.984-9.856c6.848-1.088,12.224-6.432,13.312-13.28l9.856-61.984l48.704-39.488
			C511.517,328.323,513.437,320.995,510.973,314.531z M456.445,261.731l20.512,53.44l-44.48,36.032
			c-3.104,2.496-5.12,6.016-5.76,9.92l-8.96,56.544l-56.576,8.992c-3.904,0.608-7.424,2.656-9.952,5.728l-36.032,44.48
			l-53.472-20.512c-1.824-0.64-3.744-1.024-5.696-1.024c-1.952,0-3.872,0.352-5.728,1.056l-53.472,20.512l-36.032-44.48
			c-2.496-3.072-6.016-5.12-9.952-5.728l-56.576-8.992l-8.96-56.544c-0.64-3.904-2.656-7.424-5.76-9.92l-44.416-36.032l20.512-53.44
			c1.408-3.68,1.408-7.776,0-11.456l-20.512-53.504l44.48-36.032c3.104-2.496,5.12-6.016,5.76-9.92l8.96-56.544l56.576-8.992
			c3.904-0.608,7.424-2.656,9.952-5.728l36.032-44.48l53.472,20.512c3.68,1.408,7.744,1.408,11.424,0l53.44-20.512l36.032,44.48
			c2.496,3.072,6.016,5.12,9.952,5.728l56.576,8.992l8.96,56.544c0.64,3.904,2.656,7.424,5.76,9.92l44.48,36.032l-20.512,53.44
			C455.037,253.955,455.037,258.051,456.445,261.731z"/>
	</g>
</g>
<g>
	<g>
		<path d="M176.029,176.003c-8.832,0-16,7.168-16,16v60.224l-33.696-67.392c-3.296-6.624-10.656-10.08-17.984-8.416
			c-7.232,1.696-12.32,8.16-12.32,15.584v128c0,8.832,7.168,16,16,16c8.832,0,16-7.168,16-16v-60.224l33.696,67.36
			c2.752,5.536,8.32,8.864,14.304,8.864c1.216,0,2.432-0.128,3.68-0.416c7.232-1.696,12.32-8.16,12.32-15.584v-128
			C192.029,183.171,184.861,176.003,176.029,176.003z"/>
	</g>
</g>
<g>
	<g>
		<path d="M272.029,272.003c8.832,0,16-7.168,16-16c0-8.832-7.168-16-16-16h-16v-32h16c8.832,0,16-7.168,16-16
			c0-8.832-7.168-16-16-16h-32c-8.832,0-16,7.168-16,16v128c0,8.832,7.168,16,16,16h32c8.832,0,16-7.168,16-16
			c0-8.832-7.168-16-16-16h-16v-32H272.029z"/>
	</g>
</g>
<g>
	<g>
		<path d="M400.029,176.003c-8.832,0-16,7.168-16,16v60.224l-1.696-3.36c-5.44-10.848-23.2-10.848-28.64,0l-1.664,3.36v-60.224
			c0-8.832-7.168-16-16-16c-8.832,0-16,7.168-16,16v128c0,7.424,5.088,13.888,12.32,15.584c7.328,1.664,14.688-1.792,18.016-8.416
			l17.664-35.392l17.696,35.36c2.752,5.504,8.352,8.832,14.304,8.832c1.216,0,2.432-0.128,3.68-0.416
			c7.232-1.664,12.32-8.128,12.32-15.552v-128C416.029,183.171,408.861,176.003,400.029,176.003z"/>
	</g>
</g>
<g>
</g>
<g>
</g>
<g>
</g>
<g>
</g>
<g>
</g>
<g>
</g>
<g>
</g>
<g>
</g>
<g>
</g>
<g>
</g>
<g>
</g>
<g>
</g>
<g>
</g>
<g>
</g>
<g>
</g>
</svg>
