<?xml version="1.0" encoding="iso-8859-1"?>
<!-- Generator: Adobe Illustrator 19.0.0, SVG Export Plug-In . SVG Version: 6.00 Build 0)  -->
<svg version="1.1" id="Capa_1" xmlns="http://www.w3.org/2000/svg" xmlns:xlink="http://www.w3.org/1999/xlink" x="0px" y="0px"
	 viewBox="0 0 512 512" style="enable-background:new 0 0 512 512;" xml:space="preserve">
<g>
	<g>
		<path d="M300.896,97.952c-6.24-6.24-16.384-6.24-22.624,0l-30.496,30.496l12.256-61.312c1.376-6.912-1.92-13.92-8.128-17.248
			c-6.304-3.328-13.952-2.176-18.88,2.784l-67.872,67.904c-6.24,6.24-6.24,16.384,0,22.624c6.24,6.24,16.384,6.24,22.624,0
			l30.496-30.528l-12.256,61.344c-1.344,6.912,1.952,13.92,8.128,17.248c2.4,1.28,4.992,1.888,7.552,1.888
			c4.16,0,8.256-1.6,11.328-4.672l67.872-67.904C307.168,114.304,307.168,104.192,300.896,97.952z"/>
	</g>
</g>
<g>
	<g>
		<path d="M368.864,165.856l-22.624-22.624c-6.24-6.24-16.384-6.24-22.624,0l-33.92,33.92l-0.032,0.032l-0.096,0l-33.92,33.888
			c-2.976,3.008-4.672,7.072-4.672,11.328c0,4.256,1.696,8.32,4.672,11.328l22.624,22.592c3.136,3.136,7.232,4.704,11.328,4.704
			s8.192-1.568,11.296-4.704c6.24-6.24,6.24-16.384,0-22.624L289.6,222.4l11.328-11.296l11.328,11.296
			c3.136,3.104,7.232,4.672,11.328,4.672s8.192-1.568,11.328-4.672c6.24-6.272,6.24-16.384,0-22.656l-11.328-11.296l11.328-11.296
			l11.328,11.328c6.24,6.24,16.384,6.24,22.624,0S375.104,172.096,368.864,165.856z"/>
	</g>
</g>
<g>
	<g>
		<path d="M459.296,256.288c-6.24-6.24-16.352-6.208-22.624,0.032l-30.496,30.528l0.928-4.736
			c1.056-5.248-0.608-10.656-4.384-14.464s-9.088-5.44-14.464-4.384l-4.704,0.96l30.496-30.528c6.24-6.24,6.24-16.384,0-22.624
			s-16.384-6.24-22.624,0l-67.872,67.904c-4.992,4.992-6.112,12.64-2.784,18.848c3.328,6.24,10.272,9.632,17.248,8.128l32.992-6.624
			l-6.592,33.024c-1.376,6.912,1.952,13.92,8.128,17.248c2.4,1.28,4.992,1.888,7.552,1.888c4.16,0,8.256-1.6,11.328-4.672
			l67.872-67.904C465.536,272.672,465.536,262.528,459.296,256.288z"/>
	</g>
</g>
<g>
	<g>
		<path d="M512,64c0-35.296-28.704-64-64-64H64C28.704,0,0,28.704,0,64c0,17.088,6.656,33.152,18.752,45.248l384,384
			C414.848,505.344,430.912,512,448,512c35.296,0,64-28.704,64-64c0-2.912-0.768-5.632-2.112-8c1.344-2.368,2.112-5.088,2.112-8V64z
			 M480,448c0,17.632-14.336,32-32,32c-8.544,0-16.576-3.328-22.624-9.376l-384-384C35.328,80.576,32,72.544,32,64
			c0-17.632,14.336-32,32-32h384c17.664,0,32,14.368,32,32v368c0,2.912,0.768,5.632,2.112,8C480.768,442.368,480,445.088,480,448z"
			/>
	</g>
</g>
<g>
</g>
<g>
</g>
<g>
</g>
<g>
</g>
<g>
</g>
<g>
</g>
<g>
</g>
<g>
</g>
<g>
</g>
<g>
</g>
<g>
</g>
<g>
</g>
<g>
</g>
<g>
</g>
<g>
</g>
</svg>
