<?xml version="1.0" encoding="iso-8859-1"?>
<!-- Generator: Adobe Illustrator 19.0.0, SVG Export Plug-In . SVG Version: 6.00 Build 0)  -->
<svg version="1.1" id="Capa_1" xmlns="http://www.w3.org/2000/svg" xmlns:xlink="http://www.w3.org/1999/xlink" x="0px" y="0px"
	 viewBox="0 0 512 512" style="enable-background:new 0 0 512 512;" xml:space="preserve">
<g>
	<g>
		<path d="M380.288,315.456l-12.32-172.608C367.36,134.496,360.384,128,352,128h-32V96c0-35.296-28.704-64-64-64s-64,28.704-64,64
			v32h-32c-8.384,0-15.36,6.496-15.968,14.88l-12.32,172.576c-1.28,17.632,4.928,35.2,16.992,48.16
			C160.768,376.576,177.856,384,195.552,384h120.896c17.696,0,34.784-7.424,46.848-20.384
			C375.36,350.656,381.536,333.088,380.288,315.456z M224,96c0-17.664,14.368-32,32-32s32,14.336,32,32v32h-64V96z M339.872,341.824
			C333.76,348.384,325.44,352,316.448,352H195.552c-8.992,0-17.312-3.616-23.424-10.176s-9.152-15.136-8.512-24.096L174.88,160H192
			v48c0,8.832,7.168,16,16,16c8.832,0,16-7.168,16-16v-48h64v48c0,8.832,7.168,16,16,16c8.832,0,16-7.168,16-16v-48h17.12
			l11.264,157.728C349.024,326.688,345.984,335.264,339.872,341.824z"/>
	</g>
</g>
<g>
	<g>
		<path d="M496,448h-16V160c0-17.664-14.368-32-32-32h-16c-8.864,0-16,7.168-16,16c0,8.832,7.136,16,16,16h16v288H64V160h16
			c8.832,0,16-7.168,16-16c0-8.832-7.168-16-16-16H64c-17.632,0-32,14.336-32,32v288H16c-8.832,0-16,7.168-16,16
			c0,8.832,7.168,16,16,16h480c8.832,0,16-7.168,16-16C512,455.168,504.832,448,496,448z"/>
	</g>
</g>
<g>
</g>
<g>
</g>
<g>
</g>
<g>
</g>
<g>
</g>
<g>
</g>
<g>
</g>
<g>
</g>
<g>
</g>
<g>
</g>
<g>
</g>
<g>
</g>
<g>
</g>
<g>
</g>
<g>
</g>
</svg>
