<?xml version="1.0" encoding="iso-8859-1"?>
<!-- Generator: Adobe Illustrator 19.0.0, SVG Export Plug-In . SVG Version: 6.00 Build 0)  -->
<svg version="1.1" id="Capa_1" xmlns="http://www.w3.org/2000/svg" xmlns:xlink="http://www.w3.org/1999/xlink" x="0px" y="0px"
	 viewBox="0 0 512.032 512.032" style="enable-background:new 0 0 512.032 512.032;" xml:space="preserve">
<g>
	<g>
		<path d="M416.016,0h-320c-44.096,0-80,35.904-80,80v96c0,8.832,7.168,16,16,16h112v303.68v0.032V496
			c0,1.024,0.384,1.92,0.576,2.88c0.192,1.024,0.16,2.048,0.576,3.072c0,0.032,0.064,0.064,0.064,0.096
			c1.088,2.688,3.008,4.8,5.28,6.496c0.544,0.416,1.024,0.736,1.6,1.056c2.368,1.376,4.96,2.4,7.904,2.4
			c1.984,0,4-0.352,5.952-1.152l0.288-0.128c0,0,0,0,0.032,0l73.728-29.472l74.048,29.632c3.808,1.536,8.064,1.536,11.872,0
			l74.08-29.632l74.048,29.632c4.928,1.984,10.528,1.344,14.912-1.6c4.384-3.008,7.04-7.968,7.04-13.28V80
			C496.016,35.904,460.112,0,416.016,0z M144.016,160h-96V80c0-26.464,21.536-48,48-48s48,21.536,48,48V160z M464.016,472.384
			l-58.048-23.232c-3.808-1.536-8.064-1.536-11.872,0l-74.08,29.6l-74.048-29.632c-3.808-1.536-8.064-1.536-11.872,0l-58.08,23.232
			V80c0-18.08-6.24-34.592-16.416-48h256.416c26.464,0,48,21.536,48,48V472.384z"/>
	</g>
</g>
<g>
	<g>
		<path d="M416.016,96h-192c-8.832,0-16,7.168-16,16c0,8.832,7.168,16,16,16h192c8.832,0,16-7.168,16-16
			C432.016,103.168,424.848,96,416.016,96z"/>
	</g>
</g>
<g>
	<g>
		<path d="M416.016,224h-192c-8.832,0-16,7.168-16,16c0,8.832,7.168,16,16,16h192c8.832,0,16-7.168,16-16
			C432.016,231.168,424.848,224,416.016,224z"/>
	</g>
</g>
<g>
	<g>
		<path d="M416.016,288h-128c-8.832,0-16,7.168-16,16c0,8.832,7.168,16,16,16h128c8.832,0,16-7.168,16-16
			C432.016,295.168,424.848,288,416.016,288z"/>
	</g>
</g>
<g>
	<g>
		<path d="M416.016,352h-128c-8.832,0-16,7.168-16,16c0,8.832,7.168,16,16,16h128c8.832,0,16-7.168,16-16
			C432.016,359.168,424.848,352,416.016,352z"/>
	</g>
</g>
<g>
</g>
<g>
</g>
<g>
</g>
<g>
</g>
<g>
</g>
<g>
</g>
<g>
</g>
<g>
</g>
<g>
</g>
<g>
</g>
<g>
</g>
<g>
</g>
<g>
</g>
<g>
</g>
<g>
</g>
</svg>
