<?xml version="1.0" encoding="iso-8859-1"?>
<!-- Generator: Adobe Illustrator 19.0.0, SVG Export Plug-In . SVG Version: 6.00 Build 0)  -->
<svg version="1.1" id="Capa_1" xmlns="http://www.w3.org/2000/svg" xmlns:xlink="http://www.w3.org/1999/xlink" x="0px" y="0px"
	 viewBox="0 0 511.98 511.98" style="enable-background:new 0 0 511.98 511.98;" xml:space="preserve">
<g>
	<g>
		<path d="M431.994,447.98h-16v-176c0-8.832-7.168-16-16-16h-48v-112c0-8.832-7.168-16-16-16h-176v-48
			c0-4.256-1.696-8.32-4.672-11.328l-64-64C85.05-1.556,74.938-1.556,68.666,4.684c-6.24,6.24-6.24,16.384,0,22.624l59.328,59.328
			v332.32c-18.592,6.624-32,24.224-32,45.056c0,26.432,21.536,47.968,48,47.968c20.832,0,38.432-13.408,45.056-32h242.944
			c8.832,0,16-7.168,16-16C447.994,455.148,440.826,447.98,431.994,447.98z M159.994,159.98h64v16c0,8.832,7.168,16,16,16
			c8.832,0,16-7.168,16-16v-16h64v96h-160V159.98z M287.994,287.98v32h-32v-32H287.994z M143.994,479.98c-8.8,0-16-7.168-16-16
			c0-8.832,7.2-16,16-16s16,7.168,16,16C159.994,472.812,152.794,479.98,143.994,479.98z M383.994,447.98H189.05
			c-4.832-13.568-15.488-24.224-29.056-29.056V287.98h64v48c0,8.864,7.168,16,16,16h64c8.832,0,16-7.168,16-16v-48h64V447.98z"/>
	</g>
</g>
<g>
</g>
<g>
</g>
<g>
</g>
<g>
</g>
<g>
</g>
<g>
</g>
<g>
</g>
<g>
</g>
<g>
</g>
<g>
</g>
<g>
</g>
<g>
</g>
<g>
</g>
<g>
</g>
<g>
</g>
</svg>
