<?xml version="1.0" encoding="iso-8859-1"?>
<!-- Generator: Adobe Illustrator 19.0.0, SVG Export Plug-In . SVG Version: 6.00 Build 0)  -->
<svg version="1.1" id="Capa_1" xmlns="http://www.w3.org/2000/svg" xmlns:xlink="http://www.w3.org/1999/xlink" x="0px" y="0px"
	 viewBox="0 0 512.013 512.013" style="enable-background:new 0 0 512.013 512.013;" xml:space="preserve">
<g>
	<g>
		<path d="M511.456,369.318c-2.304-8.544-11.104-13.632-19.584-11.328l-15.584,4.16l-62.112-231.904
			c-2.304-8.544-11.168-13.632-19.584-11.328l-231.872,62.08l-40.992-153.12c-1.888-7.008-8.224-11.872-15.488-11.872H16
			c-8.832,0-16,7.168-16,16c0,8.832,7.168,16,16,16h77.984l41.92,156.704c0,0.032,0,0.064,0,0.096s0.032,0.064,0.032,0.096
			l54.528,203.776c-16.192,11.232-24.576,31.68-19.232,51.776c5.76,21.376,25.216,35.552,46.432,35.552
			c4.096,0,8.256-0.544,12.384-1.632c12.416-3.328,22.784-11.264,29.184-22.368c3.616-6.304,5.568-13.184,6.112-20.224
			l203.776-54.56c0.032,0,0.064-0.032,0.064-0.032l30.944-8.288C508.704,386.63,513.76,377.83,511.456,369.318z M294.592,178.854
			l10.752,40.032l-5.792-3.328c-7.616-4.384-17.44-1.792-21.824,5.856l-3.328,5.728l-10.72-40L294.592,178.854z M231.488,456.006
			c-2.112,3.712-5.6,6.368-9.728,7.456c-8.576,2.208-17.312-2.784-19.584-11.296c-2.272-8.544,2.784-17.344,11.296-19.616
			c1.408-0.384,2.784-0.544,4.16-0.544c7.072,0,13.536,4.704,15.424,11.872h0.032C234.176,448.006,233.632,452.294,231.488,456.006z
			 M256.992,420.87c-8.16-11.84-21.216-19.392-35.584-20.544l-50.432-188.384l61.76-16.512l20.704,77.312
			c1.696,6.24,6.976,10.88,13.376,11.712c0.704,0.096,1.408,0.128,2.08,0.128c5.664,0,10.976-3.008,13.856-8l14.624-25.344
			l25.376,14.624c5.664,3.264,12.608,2.816,17.76-1.184c5.12-3.936,7.36-10.592,5.728-16.832l-20.704-77.28l61.856-16.576
			l57.952,216.448L256.992,420.87z"/>
	</g>
</g>
<g>
</g>
<g>
</g>
<g>
</g>
<g>
</g>
<g>
</g>
<g>
</g>
<g>
</g>
<g>
</g>
<g>
</g>
<g>
</g>
<g>
</g>
<g>
</g>
<g>
</g>
<g>
</g>
<g>
</g>
</svg>
