<?xml version="1.0" encoding="iso-8859-1"?>
<!-- Generator: Adobe Illustrator 19.0.0, SVG Export Plug-In . SVG Version: 6.00 Build 0)  -->
<svg version="1.1" id="Capa_1" xmlns="http://www.w3.org/2000/svg" xmlns:xlink="http://www.w3.org/1999/xlink" x="0px" y="0px"
	 viewBox="0 0 512 512" style="enable-background:new 0 0 512 512;" xml:space="preserve">
<g>
	<g>
		<path d="M480,80H32C14.368,80,0,94.368,0,112v288c0,17.632,14.368,32,32,32h448c17.632,0,32-14.368,32-32V112
			C512,94.368,497.632,80,480,80z M320,112h160v128h-72.672c12.512-5.056,22.464-9.92,26.592-14.048
			c18.72-18.72,18.72-49.152,0-67.872c-18.72-18.72-49.152-18.72-67.872,0c-7.2,7.2-28.096,31.968-46.048,53.504V112z
			 M349.568,226.08c16.704-20,33.6-39.872,39.104-45.376C391.808,177.568,395.904,176,400,176s8.192,1.536,11.328,4.672
			c6.24,6.24,6.24,16.384,0.384,22.272C406.08,207.36,380.096,216.64,349.568,226.08z M288,400H32V272h233.376l-52.672,52.672
			c-6.24,6.24-6.24,16.384,0,22.624c3.104,3.136,7.2,4.704,11.296,4.704s8.192-1.568,11.328-4.672L288,294.624V400z M288,211.584
			c-17.952-21.536-38.848-46.304-46.048-53.536c-18.72-18.72-49.152-18.72-67.872,0c-18.72,18.72-18.72,49.152,0,67.872
			c4.128,4.16,14.08,9.024,26.592,14.08H32V112h256V211.584z M258.432,226.08c-30.496-9.44-56.384-18.592-61.76-22.784
			c-6.24-6.24-6.24-16.384,0-22.624C199.808,177.568,203.904,176,208,176s8.192,1.536,11.328,4.672
			C224.832,186.208,241.728,206.08,258.432,226.08z M480,416v-16H320V294.624l52.672,52.672C375.808,350.432,379.904,352,384,352
			s8.192-1.568,11.328-4.672c6.24-6.24,6.24-16.384,0-22.624L342.624,272H480v128c0,0,0,0,0.032,0L480,416z"/>
	</g>
</g>
<g>
	<g>
		<path d="M176,336H80c-8.832,0-16,7.168-16,16c0,8.832,7.168,16,16,16h96c8.832,0,16-7.168,16-16C192,343.168,184.832,336,176,336z
			"/>
	</g>
</g>
<g>
</g>
<g>
</g>
<g>
</g>
<g>
</g>
<g>
</g>
<g>
</g>
<g>
</g>
<g>
</g>
<g>
</g>
<g>
</g>
<g>
</g>
<g>
</g>
<g>
</g>
<g>
</g>
<g>
</g>
</svg>
