<?xml version="1.0" encoding="iso-8859-1"?>
<!-- Generator: Adobe Illustrator 19.0.0, SVG Export Plug-In . SVG Version: 6.00 Build 0)  -->
<svg version="1.1" id="Capa_1" xmlns="http://www.w3.org/2000/svg" xmlns:xlink="http://www.w3.org/1999/xlink" x="0px" y="0px"
	 viewBox="0 0 512 512" style="enable-background:new 0 0 512 512;" xml:space="preserve">
<g>
	<g>
		<path d="M176,176c-8.832,0-16,7.168-16,16v60.224l-33.696-67.392c-3.296-6.624-10.688-10.08-17.984-8.416
			C101.088,178.112,96,184.576,96,192v128c0,8.832,7.168,16,16,16c8.832,0,16-7.168,16-16v-60.224l33.696,67.36
			c2.752,5.536,8.32,8.864,14.304,8.864c1.216,0,2.432-0.128,3.68-0.416c7.232-1.696,12.32-8.16,12.32-15.584V192
			C192,183.168,184.832,176,176,176z"/>
	</g>
</g>
<g>
	<g>
		<path d="M272,272c8.832,0,16-7.168,16-16c0-8.832-7.168-16-16-16h-16v-32h16c8.832,0,16-7.168,16-16c0-8.832-7.168-16-16-16h-32
			c-8.832,0-16,7.168-16,16v128c0,8.832,7.168,16,16,16h32c8.832,0,16-7.168,16-16c0-8.832-7.168-16-16-16h-16v-32H272z"/>
	</g>
</g>
<g>
	<g>
		<path d="M400,176c-8.832,0-16,7.168-16,16v60.224l-1.696-3.36c-5.44-10.848-23.2-10.848-28.64,0l-1.664,3.36V192
			c0-8.832-7.168-16-16-16c-8.832,0-16,7.168-16,16v128c0,7.424,5.088,13.888,12.32,15.584c7.328,1.664,14.688-1.792,18.016-8.416
			L368,291.776l17.696,35.36c2.752,5.504,8.352,8.832,14.304,8.832c1.216,0,2.432-0.128,3.68-0.416
			C410.912,333.888,416,327.424,416,320V192C416,183.168,408.832,176,400,176z"/>
	</g>
</g>
<g>
	<g>
		<path d="M480,64H32C14.336,64,0,78.368,0,96v320c0,17.632,14.336,32,32,32h448c17.664,0,32-14.368,32-32V96
			C512,78.368,497.664,64,480,64z M480,432v-16H32V96h448v320h0.032L480,432z"/>
	</g>
</g>
<g>
</g>
<g>
</g>
<g>
</g>
<g>
</g>
<g>
</g>
<g>
</g>
<g>
</g>
<g>
</g>
<g>
</g>
<g>
</g>
<g>
</g>
<g>
</g>
<g>
</g>
<g>
</g>
<g>
</g>
</svg>
