<?xml version="1.0" encoding="iso-8859-1"?>
<!-- Generator: Adobe Illustrator 19.0.0, SVG Export Plug-In . SVG Version: 6.00 Build 0)  -->
<svg version="1.1" id="Capa_1" xmlns="http://www.w3.org/2000/svg" xmlns:xlink="http://www.w3.org/1999/xlink" x="0px" y="0px"
	 viewBox="0 0 512.042 512.042" style="enable-background:new 0 0 512.042 512.042;" xml:space="preserve">
<g>
	<g>
		<path d="M510.988,314.558l-22.496-58.56l22.464-58.592c2.496-6.464,0.512-13.824-4.864-18.176l-48.736-39.488L447.5,77.758
			c-1.088-6.816-6.464-12.192-13.28-13.28l-61.984-9.856L332.748,5.918c-4.384-5.376-11.648-7.296-18.176-4.864l-58.56,22.464
			L197.42,1.054c-6.432-2.464-13.792-0.512-18.144,4.864l-39.488,48.736L77.804,64.51c-6.816,1.088-12.192,6.464-13.28,13.28
			l-9.856,61.984L5.932,179.262c-5.376,4.352-7.328,11.68-4.864,18.144l22.464,58.592L1.068,314.59
			c-2.496,6.464-0.512,13.824,4.864,18.176l48.736,39.488l9.856,61.984c1.088,6.816,6.464,12.192,13.28,13.28l61.984,9.856
			l39.488,48.736c4.384,5.376,11.744,7.36,18.176,4.864l58.56-22.496l58.592,22.464c1.856,0.704,3.808,1.056,5.728,1.056
			c4.704,0,9.344-2.08,12.448-5.92l39.488-48.736l61.984-9.856c6.816-1.088,12.192-6.464,13.28-13.28l9.856-61.984l48.736-39.488
			C511.5,328.382,513.452,321.022,510.988,314.558z M456.428,261.694l20.512,53.44l-44.512,36.032
			c-3.072,2.496-5.12,6.016-5.728,9.92l-8.992,56.544l-56.544,8.992c-3.904,0.608-7.424,2.656-9.92,5.728l-36.032,44.544
			l-53.44-20.512c-1.856-0.672-3.808-1.056-5.76-1.056c-1.952,0-3.904,0.352-5.728,1.056l-53.44,20.512l-36.032-44.512
			c-2.496-3.072-6.016-5.12-9.92-5.728l-56.544-8.992l-8.992-56.544c-0.608-3.904-2.656-7.424-5.728-9.92l-44.512-36l20.512-53.44
			c1.408-3.68,1.408-7.776,0-11.456l-20.512-53.504l44.512-36.032c3.072-2.496,5.12-6.016,5.728-9.92l8.992-56.544l56.544-8.992
			c3.904-0.608,7.424-2.656,9.92-5.728l36-44.48l53.44,20.512c3.68,1.408,7.776,1.408,11.456,0l53.44-20.512l36.032,44.512
			c2.496,3.072,6.016,5.12,9.92,5.728l56.544,8.992l9.056,56.512c0.608,3.904,2.656,7.424,5.728,9.92l44.512,36.032l-20.512,53.44
			C455.02,253.918,455.02,258.014,456.428,261.694z"/>
	</g>
</g>
<g>
	<g>
		<path d="M112.012,239.998h-16v-32h16c8.832,0,16-7.168,16-16c0-8.832-7.168-16-16-16h-32c-8.832,0-16,7.168-16,16v128
			c0,8.832,7.168,16,16,16c8.832,0,16-7.168,16-16v-48h16c8.832,0,16-7.168,16-16C128.012,247.166,120.844,239.998,112.012,239.998z
			"/>
	</g>
</g>
<g>
	<g>
		<path d="M336.012,271.998c8.832,0,16-7.168,16-16c0-8.832-7.168-16-16-16h-16v-32h16c8.832,0,16-7.168,16-16
			c0-8.832-7.168-16-16-16h-32c-8.832,0-16,7.168-16,16v128c0,8.832,7.168,16,16,16h32c8.832,0,16-7.168,16-16
			c0-8.832-7.168-16-16-16h-16v-32H336.012z"/>
	</g>
</g>
<g>
	<g>
		<path d="M432.012,271.998c8.832,0,16-7.168,16-16c0-8.832-7.168-16-16-16h-16v-32h16c8.832,0,16-7.168,16-16
			c0-8.832-7.168-16-16-16h-32c-8.832,0-16,7.168-16,16v128c0,8.832,7.168,16,16,16h32c8.832,0,16-7.168,16-16
			c0-8.832-7.168-16-16-16h-16v-32H432.012z"/>
	</g>
</g>
<g>
	<g>
		<path d="M222.22,269.598c19.488-6.08,33.792-24.096,33.792-45.6c0-26.464-21.536-48-48-48h-32c-8.832,0-16,7.168-16,16v128
			c0,8.832,7.168,16,16,16c8.832,0,16-7.168,16-16v-37.344l35.2,46.944c3.136,4.192,7.936,6.4,12.8,6.4
			c3.328,0,6.688-1.056,9.568-3.2c7.072-5.312,8.512-15.328,3.2-22.4L222.22,269.598z M208.012,239.998h-16v-32h16
			c8.832,0,16,7.168,16,16C224.012,232.83,216.844,239.998,208.012,239.998z"/>
	</g>
</g>
<g>
</g>
<g>
</g>
<g>
</g>
<g>
</g>
<g>
</g>
<g>
</g>
<g>
</g>
<g>
</g>
<g>
</g>
<g>
</g>
<g>
</g>
<g>
</g>
<g>
</g>
<g>
</g>
<g>
</g>
</svg>
