<?xml version="1.0" encoding="iso-8859-1"?>
<!-- Generator: Adobe Illustrator 19.0.0, SVG Export Plug-In . SVG Version: 6.00 Build 0)  -->
<svg version="1.1" id="Capa_1" xmlns="http://www.w3.org/2000/svg" xmlns:xlink="http://www.w3.org/1999/xlink" x="0px" y="0px"
	 viewBox="0 0 512 512" style="enable-background:new 0 0 512 512;" xml:space="preserve">
<g>
	<g>
		<path d="M112,240H96v-32h16c8.832,0,16-7.168,16-16c0-8.832-7.168-16-16-16H80c-8.832,0-16,7.168-16,16v128
			c0,8.832,7.168,16,16,16c8.832,0,16-7.168,16-16v-48h16c8.832,0,16-7.168,16-16C128,247.168,120.832,240,112,240z"/>
	</g>
</g>
<g>
	<g>
		<path d="M336,272c8.832,0,16-7.168,16-16c0-8.832-7.168-16-16-16h-16v-32h16c8.832,0,16-7.168,16-16c0-8.832-7.168-16-16-16h-32
			c-8.832,0-16,7.168-16,16v128c0,8.832,7.168,16,16,16h32c8.832,0,16-7.168,16-16c0-8.832-7.168-16-16-16h-16v-32H336z"/>
	</g>
</g>
<g>
	<g>
		<path d="M432,272c8.832,0,16-7.168,16-16c0-8.832-7.168-16-16-16h-16v-32h16c8.832,0,16-7.168,16-16c0-8.832-7.168-16-16-16h-32
			c-8.832,0-16,7.168-16,16v128c0,8.832,7.168,16,16,16h32c8.832,0,16-7.168,16-16c0-8.832-7.168-16-16-16h-16v-32H432z"/>
	</g>
</g>
<g>
	<g>
		<path d="M222.208,269.6C241.696,263.52,256,245.504,256,224c0-26.464-21.536-48-48-48h-32c-8.832,0-16,7.168-16,16v128
			c0,8.832,7.168,16,16,16c8.832,0,16-7.168,16-16v-37.344l35.2,46.944c3.136,4.192,7.936,6.4,12.8,6.4
			c3.328,0,6.688-1.056,9.568-3.2c7.072-5.312,8.512-15.328,3.2-22.4L222.208,269.6z M208,240h-16v-32h16c8.832,0,16,7.168,16,16
			C224,232.832,216.832,240,208,240z"/>
	</g>
</g>
<g>
	<g>
		<path d="M480,64H32C14.368,64,0,78.368,0,96v320c0,17.632,14.368,32,32,32h448c17.632,0,32-14.368,32-32V96
			C512,78.368,497.632,64,480,64z M480,432v-16H32V96h448v320c0,0,0,0,0.032,0L480,432z"/>
	</g>
</g>
<g>
</g>
<g>
</g>
<g>
</g>
<g>
</g>
<g>
</g>
<g>
</g>
<g>
</g>
<g>
</g>
<g>
</g>
<g>
</g>
<g>
</g>
<g>
</g>
<g>
</g>
<g>
</g>
<g>
</g>
</svg>
