<?xml version="1.0" encoding="iso-8859-1"?>
<!-- Generator: Adobe Illustrator 19.0.0, SVG Export Plug-In . SVG Version: 6.00 Build 0)  -->
<svg version="1.1" id="Capa_1" xmlns="http://www.w3.org/2000/svg" xmlns:xlink="http://www.w3.org/1999/xlink" x="0px" y="0px"
	 viewBox="0 0 512 512" style="enable-background:new 0 0 512 512;" xml:space="preserve">
<g>
	<g>
		<path d="M509.728,263.776l-48-80C458.848,178.944,453.632,176,448,176h-96v-48c0-8.832-7.168-16-16-16H112
			c-8.832,0-16,7.168-16,16v16H16c-8.832,0-16,7.168-16,16c0,8.832,7.168,16,16,16h80v32H48c-8.832,0-16,7.168-16,16
			c0,8.832,7.168,16,16,16h48v32H80c-8.832,0-16,7.168-16,16c0,8.832,7.168,16,16,16h16v48c0,8.832,7.168,16,16,16h18.944
			c6.624,18.592,24.224,32,45.056,32c20.832,0,38.432-13.408,45.056-32H336h50.944c6.624,18.592,24.224,32,45.056,32
			c20.832,0,38.432-13.408,45.056-32H496c8.832,0,16-7.168,16-16v-80C512,269.088,511.232,266.24,509.728,263.776z M176,368
			c-8.8,0-16-7.168-16-16c0-8.832,7.2-16,16-16s16,7.168,16,16C192,360.832,184.8,368,176,368z M320,336h-98.944
			c-6.624-18.592-24.224-32-45.056-32c-20.832,0-38.432,13.408-45.056,32H128V144h192V336z M432,368c-8.8,0-16-7.168-16-16
			c0-8.832,7.2-16,16-16s16,7.168,16,16C448,360.832,440.8,368,432,368z M480,336h-2.944c-6.624-18.592-24.224-32-45.056-32
			c-20.832,0-38.432,13.408-45.056,32H352V208h86.944L480,276.448V336z"/>
	</g>
</g>
<g>
</g>
<g>
</g>
<g>
</g>
<g>
</g>
<g>
</g>
<g>
</g>
<g>
</g>
<g>
</g>
<g>
</g>
<g>
</g>
<g>
</g>
<g>
</g>
<g>
</g>
<g>
</g>
<g>
</g>
</svg>
