<?xml version="1.0" encoding="iso-8859-1"?>
<!-- Generator: Adobe Illustrator 19.0.0, SVG Export Plug-In . SVG Version: 6.00 Build 0)  -->
<svg version="1.1" id="Capa_1" xmlns="http://www.w3.org/2000/svg" xmlns:xlink="http://www.w3.org/1999/xlink" x="0px" y="0px"
	 viewBox="0 0 512 512" style="enable-background:new 0 0 512 512;" xml:space="preserve">
<g>
	<g>
		<path d="M447.712,110.592c-0.096-1.088-0.32-2.08-0.64-3.136c-0.32-1.056-0.704-2.016-1.216-2.976
			c-0.224-0.416-0.256-0.928-0.544-1.344l-64-96C378.336,2.688,373.344,0,368,0H80c-5.344,0-10.336,2.688-13.312,7.136l-64,96
			c-0.288,0.416-0.32,0.896-0.544,1.344c-0.512,0.96-0.896,1.92-1.216,2.976c-0.32,1.056-0.544,2.048-0.64,3.136
			C0.256,111.072,0,111.488,0,112v304c0,17.664,14.336,32,32,32h208c8.832,0,16-7.168,16-16c0-8.832-7.168-16-16-16H32V128h128v80
			c0,5.152,2.464,9.984,6.656,12.96c4.128,3.04,9.472,3.776,14.4,2.24L224,208.864l42.944,14.304
			c1.664,0.544,3.36,0.832,5.056,0.832c3.328,0,6.592-1.024,9.344-3.04c4.192-2.976,6.656-7.808,6.656-12.96v-80h128v112
			c0,8.832,7.168,16,16,16c8.832,0,16-7.168,16-16V112C448,111.488,447.744,111.072,447.712,110.592z M162.432,96H45.888l42.688-64
			h84.544L162.432,96z M205.568,32h36.896l10.656,64h-58.24L205.568,32z M256,185.824l-26.944-9.024
			c-3.328-1.056-6.816-1.056-10.112,0L192,185.824V128h64V185.824z M285.568,96L274.88,32h84.544l42.688,64H285.568z"/>
	</g>
</g>
<g>
	<g>
		<path d="M400,288c-61.76,0-112,50.24-112,112s50.24,112,112,112s112-50.24,112-112S461.76,288,400,288z M400,480
			c-44.128,0-80-35.872-80-80s35.872-80,80-80s80,35.872,80,80S444.128,480,400,480z"/>
	</g>
</g>
<g>
	<g>
		<path d="M443.328,420.704L416,393.376V368c0-8.832-7.168-16-16-16c-8.832,0-16,7.168-16,16v32c0,4.256,1.696,8.32,4.672,11.328
			l32,32C423.808,446.432,427.904,448,432,448s8.192-1.568,11.328-4.672C449.568,437.088,449.568,426.944,443.328,420.704z"/>
	</g>
</g>
<g>
</g>
<g>
</g>
<g>
</g>
<g>
</g>
<g>
</g>
<g>
</g>
<g>
</g>
<g>
</g>
<g>
</g>
<g>
</g>
<g>
</g>
<g>
</g>
<g>
</g>
<g>
</g>
<g>
</g>
</svg>
