<?xml version="1.0" encoding="iso-8859-1"?>
<!-- Generator: Adobe Illustrator 19.0.0, SVG Export Plug-In . SVG Version: 6.00 Build 0)  -->
<svg version="1.1" id="Capa_1" xmlns="http://www.w3.org/2000/svg" xmlns:xlink="http://www.w3.org/1999/xlink" x="0px" y="0px"
	 viewBox="0 0 512 512" style="enable-background:new 0 0 512 512;" xml:space="preserve">
<g>
	<g>
		<path d="M479.264,108.352c-0.128-0.544-0.128-1.056-0.32-1.568c-0.992-2.784-2.688-5.12-4.928-6.944
			c-0.192-0.192-0.224-0.48-0.416-0.64L448,80V16c0-2.56-0.736-4.864-1.792-7.008c-0.096-0.16-0.032-0.352-0.128-0.544
			c-0.192-0.352-0.608-0.512-0.8-0.864c-1.12-1.76-2.528-3.232-4.224-4.416c-0.576-0.384-1.056-0.8-1.664-1.12
			C437.152,0.864,434.72,0,432,0H80c-2.72,0-5.152,0.864-7.424,2.048c-0.608,0.32-1.088,0.704-1.664,1.12
			c-1.664,1.216-3.072,2.656-4.192,4.416c-0.224,0.352-0.608,0.512-0.8,0.864c-0.096,0.16-0.064,0.384-0.128,0.544
			C64.736,11.136,64,13.44,64,16v64L38.4,99.2c-0.192,0.16-0.224,0.448-0.416,0.608c-2.24,1.824-3.936,4.16-4.928,6.944
			c-0.192,0.544-0.192,1.024-0.32,1.568C32.448,109.568,32,110.688,32,112v336c0,35.296,28.704,64,64,64h320
			c35.296,0,64-28.704,64-64V112C480,110.688,479.552,109.568,479.264,108.352z M125.312,55.136L109.92,32h292.16l-15.392,23.136
			c-4.704,7.04-3.104,16.576,3.712,21.664L416,96H96l25.6-19.2C128.416,71.712,130.048,62.176,125.312,55.136z M448,448
			c0,17.632-14.336,32-32,32H96c-17.664,0-32-14.368-32-32V128h384V448z"/>
	</g>
</g>
<g>
	<g>
		<path d="M368,192c-8.832,0-16,7.168-16,16v48c0,52.928-43.072,96-96,96c-52.928,0-96-43.072-96-96v-48c0-8.832-7.168-16-16-16
			c-8.832,0-16,7.168-16,16v48c0,70.592,57.408,128,128,128s128-57.408,128-128v-48C384,199.168,376.832,192,368,192z"/>
	</g>
</g>
<g>
</g>
<g>
</g>
<g>
</g>
<g>
</g>
<g>
</g>
<g>
</g>
<g>
</g>
<g>
</g>
<g>
</g>
<g>
</g>
<g>
</g>
<g>
</g>
<g>
</g>
<g>
</g>
<g>
</g>
</svg>
