<?xml version="1.0" encoding="iso-8859-1"?>
<!-- Generator: Adobe Illustrator 19.0.0, SVG Export Plug-In . SVG Version: 6.00 Build 0)  -->
<svg version="1.1" id="Capa_1" xmlns="http://www.w3.org/2000/svg" xmlns:xlink="http://www.w3.org/1999/xlink" x="0px" y="0px"
	 viewBox="0 0 512 512" style="enable-background:new 0 0 512 512;" xml:space="preserve">
<g>
	<g>
		<path d="M393.6,195.2l-128-96c-5.696-4.256-13.504-4.256-19.2,0l-33.28,24.96C209.952,115.616,208,106.144,208,96
			c0-35.296,21.536-64,48-64s48,28.704,48,64c0,8.832,7.168,16,16,16c8.832,0,16-7.168,16-16c0-52.928-35.904-96-80-96
			s-80,43.072-80,96c0,17.472,4.192,33.632,11.008,47.744L118.4,195.2c-4.032,3.008-6.4,7.776-6.4,12.8v272
			c0,17.664,14.368,32,32,32h224c17.632,0,32-14.336,32-32V208C400,202.976,397.632,198.208,393.6,195.2z M368,496v-16H144V216
			l61.536-46.144C219.328,183.488,236.768,192,256,192c8.832,0,16-7.168,16-16c0-8.832-7.168-16-16-16
			c-9.088,0-17.504-3.584-24.736-9.44L256,132l112,84v264c0,0,0,0,0.032,0L368,496z"/>
	</g>
</g>
<g>
	<g>
		<path d="M256,320c-8.832,0-16-7.2-16-16s7.168-16,16-16h32c8.832,0,16-7.168,16-16c0-8.832-7.168-16-16-16h-16v-16
			c0-8.832-7.168-16-16-16c-8.832,0-16,7.168-16,16v18.944c-18.592,6.624-32,24.224-32,45.056c0,26.464,21.536,48,48,48
			c8.832,0,16,7.2,16,16s-7.168,16-16,16h-32c-8.832,0-16,7.168-16,16c0,8.832,7.168,16,16,16h16v16c0,8.832,7.168,16,16,16
			c8.832,0,16-7.168,16-16v-18.944c18.592-6.624,32-24.224,32-45.056C304,341.536,282.464,320,256,320z"/>
	</g>
</g>
<g>
</g>
<g>
</g>
<g>
</g>
<g>
</g>
<g>
</g>
<g>
</g>
<g>
</g>
<g>
</g>
<g>
</g>
<g>
</g>
<g>
</g>
<g>
</g>
<g>
</g>
<g>
</g>
<g>
</g>
</svg>
