<?xml version="1.0" encoding="iso-8859-1"?>
<!-- Generator: Adobe Illustrator 19.0.0, SVG Export Plug-In . SVG Version: 6.00 Build 0)  -->
<svg version="1.1" id="Capa_1" xmlns="http://www.w3.org/2000/svg" xmlns:xlink="http://www.w3.org/1999/xlink" x="0px" y="0px"
	 viewBox="0 0 512.059 512.059" style="enable-background:new 0 0 512.059 512.059;" xml:space="preserve">
<g>
	<g>
		<path d="M488.506,256.035l22.464-58.592c2.464-6.464,0.544-13.792-4.864-18.176l-48.704-39.488l-9.856-61.984
			c-1.088-6.848-6.464-12.192-13.312-13.28l-61.984-9.856L332.794,5.923c-4.384-5.408-11.808-7.328-18.144-4.864l-58.624,22.496
			L197.434,1.091c-6.304-2.464-13.792-0.544-18.144,4.896l-39.488,48.704L77.85,64.547c-6.848,1.088-12.224,6.432-13.312,13.28
			l-9.856,61.984L5.978,179.299c-5.408,4.352-7.36,11.68-4.896,18.144l22.464,58.592L1.082,314.627
			c-2.464,6.464-0.512,13.792,4.896,18.144l48.704,39.488l9.856,61.984c1.088,6.848,6.464,12.192,13.312,13.28l61.984,9.856
			l39.456,48.736c4.384,5.44,11.84,7.36,18.144,4.864l58.592-22.464l58.592,22.464c1.856,0.704,3.776,1.056,5.728,1.056
			c4.704,0,9.344-2.08,12.448-5.952l39.456-48.736l61.984-9.856c6.848-1.088,12.224-6.432,13.312-13.28l9.856-61.984l48.704-39.488
			c5.408-4.384,7.328-11.712,4.864-18.176L488.506,256.035z M456.474,261.731l20.512,53.44l-44.48,36.032
			c-3.104,2.496-5.12,6.016-5.76,9.92l-8.96,56.544l-56.576,8.992c-3.904,0.608-7.424,2.656-9.952,5.728l-36.032,44.48
			l-53.472-20.512c-1.856-0.608-3.776-0.992-5.728-0.992c-1.952,0-3.872,0.352-5.728,1.056l-53.472,20.512l-36.032-44.48
			c-2.496-3.072-6.016-5.12-9.952-5.728l-56.576-8.992l-8.96-56.544c-0.64-3.904-2.656-7.424-5.76-9.92L35.13,315.235l20.512-53.44
			c1.376-3.712,1.376-7.808-0.032-11.488l-20.48-53.472l44.48-36.032c3.104-2.496,5.12-6.016,5.76-9.92l8.96-56.544l56.576-8.992
			c3.904-0.608,7.424-2.656,9.952-5.728l36.032-44.48l53.472,20.512c3.68,1.408,7.744,1.408,11.424,0l53.44-20.512l36.032,44.48
			c2.496,3.072,6.016,5.12,9.952,5.728l56.576,8.992l8.96,56.544c0.64,3.904,2.656,7.424,5.76,9.92l44.48,36.032l-20.512,53.44
			C455.066,253.955,455.066,258.051,456.474,261.731z"/>
	</g>
</g>
<g>
	<g>
		<path d="M256.026,240.035c-17.344,0-32-10.976-32-24s14.656-24,32-24c8.704,0,16.832,2.688,22.88,7.616
			c6.816,5.568,16.896,4.608,22.496-2.304c5.6-6.848,4.576-16.928-2.304-22.496c-7.712-6.304-17.056-10.528-27.072-12.8v-18.016
			c0-8.832-7.168-16-16-16c-8.832,0-16,7.168-16,16v17.984c-27.52,6.272-48,28-48,54.016c0,30.88,28.704,56,64,56
			c17.344,0,32,10.976,32,24s-14.656,24-32,24c-8.704,0-16.832-2.688-22.88-7.616c-6.816-5.568-16.896-4.576-22.496,2.304
			c-5.6,6.848-4.576,16.928,2.304,22.496c7.712,6.272,17.056,10.496,27.072,12.768v18.048c0,8.832,7.168,16,16,16
			c8.832,0,16-7.168,16-16v-17.984c27.52-6.272,48-28,48-54.016C320.026,265.155,291.322,240.035,256.026,240.035z"/>
	</g>
</g>
<g>
</g>
<g>
</g>
<g>
</g>
<g>
</g>
<g>
</g>
<g>
</g>
<g>
</g>
<g>
</g>
<g>
</g>
<g>
</g>
<g>
</g>
<g>
</g>
<g>
</g>
<g>
</g>
<g>
</g>
</svg>
