<?xml version="1.0" encoding="iso-8859-1"?>
<!-- Generator: Adobe Illustrator 19.0.0, SVG Export Plug-In . SVG Version: 6.00 Build 0)  -->
<svg version="1.1" id="Capa_1" xmlns="http://www.w3.org/2000/svg" xmlns:xlink="http://www.w3.org/1999/xlink" x="0px" y="0px"
	 viewBox="0 0 512 512" style="enable-background:new 0 0 512 512;" xml:space="preserve">
<g>
	<g>
		<path d="M425.088,141.536l34.208-34.24c6.24-6.24,6.24-16.384,0-22.624s-16.384-6.24-22.624,0l-34.208,34.24
			C374.72,94.848,341.12,77.44,304,69.312v-37.28h16c8.832,0,16-7.168,16-16c0-8.832-7.168-16-16-16h-31.84
			C288.096,0.032,288.064,0,288,0c-0.064,0-0.096,0.032-0.16,0.032h-63.68C224.096,0.032,224.064,0,224,0
			c-0.064,0-0.096,0.032-0.16,0.032H192c-8.832,0-16,7.168-16,16c0,8.832,7.168,16,16,16h16v37.28C107.488,91.36,32,180.992,32,288
			c0,123.488,100.48,224,224,224s224-100.512,224-224C480,232,459.2,180.864,425.088,141.536z M240,32.032h32V64.8
			c-5.312-0.352-10.592-0.8-16-0.8c-5.408,0-10.688,0.448-16,0.8V32.032z M256,480c-105.888,0-192-86.112-192-192S150.112,96,256,96
			s192,86.112,192,192S361.888,480,256,480z"/>
	</g>
</g>
<g>
	<g>
		<path d="M192,176c-26.464,0-48,21.536-48,48s21.536,48,48,48s48-21.536,48-48S218.464,176,192,176z M192,240
			c-8.832,0-16-7.2-16-16s7.168-16,16-16c8.832,0,16,7.2,16,16S200.832,240,192,240z"/>
	</g>
</g>
<g>
	<g>
		<path d="M320,304c-26.464,0-48,21.536-48,48s21.536,48,48,48s48-21.536,48-48S346.464,304,320,304z M320,368
			c-8.832,0-16-7.2-16-16s7.168-16,16-16c8.832,0,16,7.2,16,16S328.832,368,320,368z"/>
	</g>
</g>
<g>
	<g>
		<path d="M312.256,194.272c-7.584-4.576-17.44-2.08-21.984,5.504l-96,160c-4.544,7.552-2.08,17.408,5.504,21.952
			c2.56,1.568,5.408,2.272,8.224,2.272c5.44,0,10.72-2.784,13.728-7.776l96-160C322.272,208.672,319.808,198.816,312.256,194.272z"
			/>
	</g>
</g>
<g>
</g>
<g>
</g>
<g>
</g>
<g>
</g>
<g>
</g>
<g>
</g>
<g>
</g>
<g>
</g>
<g>
</g>
<g>
</g>
<g>
</g>
<g>
</g>
<g>
</g>
<g>
</g>
<g>
</g>
</svg>
