<?xml version="1.0" encoding="iso-8859-1"?>
<!-- Generator: Adobe Illustrator 19.0.0, SVG Export Plug-In . SVG Version: 6.00 Build 0)  -->
<svg version="1.1" id="Capa_1" xmlns="http://www.w3.org/2000/svg" xmlns:xlink="http://www.w3.org/1999/xlink" x="0px" y="0px"
	 viewBox="0 0 512 512" style="enable-background:new 0 0 512 512;" xml:space="preserve">
<g>
	<g>
		<path d="M480,80H176c-4.256,0-8.32,1.696-11.328,4.672L144,105.376l-20.672-20.704C120.32,81.696,116.256,80,112,80H32
			C14.368,80,0,94.368,0,112v288c0,17.632,14.368,32,32,32h80c4.256,0,8.32-1.696,11.328-4.672L144,406.624l20.672,20.672
			C167.68,430.304,171.744,432,176,432h304c17.632,0,32-14.368,32-32V112C512,94.368,497.632,80,480,80z M480,416v-16H182.624
			L160,377.376V336h-32v41.376L105.376,400H32V112h73.376L128,134.624V176h32v-41.376L182.624,112H480v288c0,0,0,0,0.032,0L480,416z
			"/>
	</g>
</g>
<g>
	<g>
		<path d="M272,144c-26.464,0-48,21.536-48,48s21.536,48,48,48s48-21.536,48-48S298.464,144,272,144z M272,208
			c-8.832,0-16-7.168-16-16c0-8.832,7.168-16,16-16c8.832,0,16,7.168,16,16C288,200.832,280.832,208,272,208z"/>
	</g>
</g>
<g>
	<g>
		<path d="M368,272c-26.464,0-48,21.536-48,48s21.536,48,48,48s48-21.536,48-48S394.464,272,368,272z M368,336
			c-8.832,0-16-7.168-16-16c0-8.832,7.168-16,16-16c8.832,0,16,7.168,16,16C384,328.832,376.832,336,368,336z"/>
	</g>
</g>
<g>
	<g>
		<path d="M410.24,147.712c-6.816-5.664-16.864-4.736-22.56,2.048l-160,192c-5.664,6.784-4.736,16.896,2.048,22.56
			c3.008,2.464,6.656,3.68,10.272,3.68c4.608,0,9.152-1.952,12.32-5.76l160-192C417.952,163.456,417.024,153.344,410.24,147.712z"/>
	</g>
</g>
<g>
	<g>
		<rect x="128" y="272" width="32" height="32"/>
	</g>
</g>
<g>
	<g>
		<rect x="128" y="208" width="32" height="32"/>
	</g>
</g>
<g>
</g>
<g>
</g>
<g>
</g>
<g>
</g>
<g>
</g>
<g>
</g>
<g>
</g>
<g>
</g>
<g>
</g>
<g>
</g>
<g>
</g>
<g>
</g>
<g>
</g>
<g>
</g>
<g>
</g>
</svg>
