<?xml version="1.0" encoding="iso-8859-1"?>
<!-- Generator: Adobe Illustrator 19.0.0, SVG Export Plug-In . SVG Version: 6.00 Build 0)  -->
<svg version="1.1" id="Capa_1" xmlns="http://www.w3.org/2000/svg" xmlns:xlink="http://www.w3.org/1999/xlink" x="0px" y="0px"
	 viewBox="0 0 512 512" style="enable-background:new 0 0 512 512;" xml:space="preserve">
<g>
	<g>
		<path d="M496,144c-26.464,0-48-21.536-48-48c0-8.832-7.168-16-16-16H80c-8.832,0-16,7.168-16,16c0,26.464-21.536,48-48,48
			c-8.832,0-16,7.168-16,16v192c0,8.832,7.168,16,16,16c26.464,0,48,21.536,48,48c0,8.832,7.168,16,16,16h352
			c8.832,0,16-7.168,16-16c0-26.464,21.536-48,48-48c8.832,0,16-7.168,16-16V160C512,151.168,504.832,144,496,144z M480,337.6
			c-31.296,6.368-56,31.104-62.4,62.4H352v-32h-32v32H94.4C88,368.704,63.296,344,32,337.6V174.4c31.296-6.4,56-31.104,62.4-62.4
			H320v32h32v-32h65.6c6.4,31.296,31.104,56,62.4,62.4V337.6z"/>
	</g>
</g>
<g>
	<g>
		<rect x="320" y="176" width="32" height="64"/>
	</g>
</g>
<g>
	<g>
		<rect x="320" y="272" width="32" height="64"/>
	</g>
</g>
<g>
	<g>
		<path d="M144,144c-26.464,0-48,21.536-48,48s21.536,48,48,48s48-21.536,48-48S170.464,144,144,144z M144,208
			c-8.832,0-16-7.168-16-16c0-8.832,7.168-16,16-16c8.832,0,16,7.168,16,16C160,200.832,152.832,208,144,208z"/>
	</g>
</g>
<g>
	<g>
		<path d="M240,272c-26.464,0-48,21.536-48,48s21.536,48,48,48s48-21.536,48-48S266.464,272,240,272z M240,336
			c-8.832,0-16-7.168-16-16c0-8.832,7.168-16,16-16c8.832,0,16,7.168,16,16C256,328.832,248.832,336,240,336z"/>
	</g>
</g>
<g>
	<g>
		<path d="M282.24,147.712c-6.816-5.664-16.896-4.736-22.528,2.048l-160,192c-5.664,6.784-4.736,16.896,2.048,22.56
			c2.976,2.464,6.624,3.68,10.24,3.68c4.608,0,9.152-1.952,12.32-5.76l160-192C289.952,163.456,289.024,153.344,282.24,147.712z"/>
	</g>
</g>
<g>
</g>
<g>
</g>
<g>
</g>
<g>
</g>
<g>
</g>
<g>
</g>
<g>
</g>
<g>
</g>
<g>
</g>
<g>
</g>
<g>
</g>
<g>
</g>
<g>
</g>
<g>
</g>
<g>
</g>
</svg>
