<?xml version="1.0" encoding="iso-8859-1"?>
<!-- Generator: Adobe Illustrator 19.0.0, SVG Export Plug-In . SVG Version: 6.00 Build 0)  -->
<svg version="1.1" id="Capa_1" xmlns="http://www.w3.org/2000/svg" xmlns:xlink="http://www.w3.org/1999/xlink" x="0px" y="0px"
	 viewBox="0 0 512 512" style="enable-background:new 0 0 512 512;" xml:space="preserve">
<g>
	<g>
		<path d="M509.92,136.064l-64-112C443.04,19.072,437.76,16,432,16H80c-5.76,0-11.04,3.072-13.92,8.064l-64,112
			C0.704,138.496,0,141.216,0,144c0,23.584,12.96,44,32,55.104V400c0,17.952,14.048,32,32,32h137.376l-36.672,36.672
			c-4.576,4.576-5.952,11.456-3.456,17.44C163.744,492.096,169.536,496,176,496h160c6.464,0,12.32-3.904,14.784-9.888
			s1.088-12.864-3.456-17.44L310.624,432H448c17.952,0,32-14.048,32-32V199.104C499.04,188,512,167.584,512,144
			C512,141.216,511.296,138.496,509.92,136.064z M214.624,464l32-32h18.752l32,32H214.624z M448,400H64v-32h384V400z M448,336H64
			V208c19.104,0,36.256-8.416,48-21.728C123.744,199.584,140.896,208,160,208s36.256-8.416,48-21.728
			C219.744,199.584,236.896,208,256,208s36.256-8.416,48-21.728C315.744,199.584,332.896,208,352,208s36.256-8.416,48-21.728
			C411.744,199.584,428.896,208,448,208V336z M448,176c-17.664,0-32-14.368-32-32c0-8.832-7.168-16-16-16c-8.832,0-16,7.168-16,16
			c0,17.632-14.336,32-32,32s-32-14.368-32-32c0-8.832-7.168-16-16-16c-8.832,0-16,7.168-16,16c0,17.632-14.336,32-32,32
			s-32-14.368-32-32c0-8.832-7.168-16-16-16c-8.832,0-16,7.168-16,16c0,17.632-14.336,32-32,32s-32-14.368-32-32
			c0-8.832-7.168-16-16-16c-8.832,0-16,7.168-16,16c0,17.632-14.336,32-32,32c-16.352,0-29.888-12.32-31.776-28.16L89.28,48h333.44
			l57.056,99.84C477.888,163.68,464.352,176,448,176z"/>
	</g>
</g>
<g>
</g>
<g>
</g>
<g>
</g>
<g>
</g>
<g>
</g>
<g>
</g>
<g>
</g>
<g>
</g>
<g>
</g>
<g>
</g>
<g>
</g>
<g>
</g>
<g>
</g>
<g>
</g>
<g>
</g>
</svg>
