<?xml version="1.0" encoding="iso-8859-1"?>
<!-- Generator: Adobe Illustrator 19.0.0, SVG Export Plug-In . SVG Version: 6.00 Build 0)  -->
<svg version="1.1" id="Capa_1" xmlns="http://www.w3.org/2000/svg" xmlns:xlink="http://www.w3.org/1999/xlink" x="0px" y="0px"
	 viewBox="0 0 512.034 512.034" style="enable-background:new 0 0 512.034 512.034;" xml:space="preserve">
<g>
	<g>
		<path d="M336.024,240.017c-26.464,0-48,21.536-48,48c0,8.832,7.168,16,16,16c8.832,0,16-7.168,16-16c0-8.8,7.2-16,16-16
			s16,7.2,16,16c0,8.832,7.168,16,16,16c8.832,0,16-7.168,16-16C384.024,261.553,362.488,240.017,336.024,240.017z"/>
	</g>
</g>
<g>
	<g>
		<path d="M176.024,240.017c-26.464,0-48,21.536-48,48c0,8.832,7.168,16,16,16c8.832,0,16-7.168,16-16c0-8.8,7.2-16,16-16
			s16,7.2,16,16c0,8.832,7.168,16,16,16c8.832,0,16-7.168,16-16C224.024,261.553,202.488,240.017,176.024,240.017z"/>
	</g>
</g>
<g>
	<g>
		<path d="M506.328,451.761c-24.992-20.928-40.064-78.432-48.672-132.736c30.688-4.672,54.368-31.008,54.368-63.008
			c0-35.296-28.704-64-64-64c0-105.888-86.112-192-192-192s-192,86.112-192,192c-35.296,0-64,28.704-64,64
			c0,32,23.68,58.336,54.368,63.04c-8.608,54.272-23.68,111.776-48.672,132.736c-5.152,4.32-7.072,11.392-4.736,17.728
			c2.304,6.272,8.32,10.496,15.04,10.496h134.08c30.4,20.192,66.784,32,105.92,32s75.52-11.808,105.92-32h134.08
			c6.72,0,12.736-4.224,15.04-10.528C513.368,463.185,511.48,456.081,506.328,451.761z M480.024,256.017
			c0,15.84-12.256,28.768-26.752,31.424c-3.008-25.376-4.64-48.064-5.216-63.2C464.728,224.337,480.024,238.321,480.024,256.017z
			 M256.024,32.017c86.304,0,156.384,68.8,159.424,154.368c-54.784-8.224-89.024-24.224-109.824-39.232
			c12.128-17.664,14.144-31.904,14.304-33.504c0.896-8.672-5.312-16.32-13.984-17.376c-8.512-1.152-16.576,5.12-17.792,13.792
			c-0.128,0.8-13.664,77.056-192.096,81.536C96.312,103.569,167.96,32.017,256.024,32.017z M32.024,256.017
			c0-17.696,15.264-31.712,31.968-31.776c-0.576,15.168-2.176,37.824-5.216,63.2C44.248,284.817,32.024,271.857,32.024,256.017z
			 M48.92,448.017c10.752-18.624,19.008-41.92,25.44-66.336c8.448,24.768,21.824,47.232,38.944,66.336H48.92z M256.024,480.017
			c-88.224,0-160-71.776-160-160v-96.48c102.368-2.464,158.464-27.392,188.544-53.088c31.904,24.192,75.904,40.32,131.456,48
			v101.568c0,22.784-4.928,44.352-13.568,64H301.08c-6.624-18.592-24.224-32-45.056-32c-26.464,0-48,21.536-48,48s21.536,48,48,48
			c20.832,0,38.432-13.408,45.056-32h82.144C353.976,454.641,308.088,480.017,256.024,480.017z M272.024,400.017c0,8.8-7.2,16-16,16
			c-8.8,0-16-7.2-16-16s7.2-16,16-16C264.824,384.017,272.024,391.217,272.024,400.017z M398.772,447.985
			c11.028-12.28,20.523-25.933,28.1-40.768c0.288-0.544,0.576-1.056,0.8-1.632c3.872-7.712,7.232-15.68,10.048-23.936
			c6.432,24.448,14.688,47.712,25.44,66.336H398.772z"/>
	</g>
</g>
<g>
</g>
<g>
</g>
<g>
</g>
<g>
</g>
<g>
</g>
<g>
</g>
<g>
</g>
<g>
</g>
<g>
</g>
<g>
</g>
<g>
</g>
<g>
</g>
<g>
</g>
<g>
</g>
<g>
</g>
</svg>
