<?xml version="1.0" encoding="iso-8859-1"?>
<!-- Generator: Adobe Illustrator 19.0.0, SVG Export Plug-In . SVG Version: 6.00 Build 0)  -->
<svg version="1.1" id="Capa_1" xmlns="http://www.w3.org/2000/svg" xmlns:xlink="http://www.w3.org/1999/xlink" x="0px" y="0px"
	 viewBox="0 0 512 512" style="enable-background:new 0 0 512 512;" xml:space="preserve">
<g>
	<g>
		<path d="M496,384h-16V192c0-35.296-28.704-64-64-64h-32V96h48c8.832,0,16-7.168,16-16V16c0-8.832-7.168-16-16-16H304
			c-8.832,0-16,7.168-16,16v64c0,8.832,7.168,16,16,16h48v32H224V48c0-5.152-2.464-9.984-6.656-12.96
			c-4.16-3.04-9.504-3.808-14.4-2.24L160,47.136L117.056,32.8c-4.896-1.568-10.24-0.8-14.4,2.24C98.464,38.016,96,42.848,96,48v80
			c-35.296,0-64,28.704-64,64v192H16c-8.832,0-16,7.168-16,16v96c0,8.832,7.168,16,16,16h480c8.832,0,16-7.168,16-16v-96
			C512,391.168,504.832,384,496,384z M320,64V32h96v32H320z M128,70.176l26.944,8.992c3.328,1.056,6.816,1.056,10.112,0L192,70.176
			V224h-64V70.176z M64,192c0-17.664,14.336-32,32-32v80c0,8.832,7.168,16,16,16h96c8.832,0,16-7.168,16-16v-80h192
			c17.664,0,32,14.336,32,32v192H64V192z M480,480H32v-64h448V480z"/>
	</g>
</g>
<g>
	<g>
		<rect x="320" y="224" width="32" height="32"/>
	</g>
</g>
<g>
	<g>
		<rect x="384" y="224" width="32" height="32"/>
	</g>
</g>
<g>
	<g>
		<rect x="320" y="288" width="32" height="32"/>
	</g>
</g>
<g>
	<g>
		<rect x="384" y="288" width="32" height="32"/>
	</g>
</g>
<g>
</g>
<g>
</g>
<g>
</g>
<g>
</g>
<g>
</g>
<g>
</g>
<g>
</g>
<g>
</g>
<g>
</g>
<g>
</g>
<g>
</g>
<g>
</g>
<g>
</g>
<g>
</g>
<g>
</g>
</svg>
