<?xml version="1.0" encoding="iso-8859-1"?>
<!-- Generator: Adobe Illustrator 19.0.0, SVG Export Plug-In . SVG Version: 6.00 Build 0)  -->
<svg version="1.1" id="Capa_1" xmlns="http://www.w3.org/2000/svg" xmlns:xlink="http://www.w3.org/1999/xlink" x="0px" y="0px"
	 viewBox="0 0 512 512" style="enable-background:new 0 0 512 512;" xml:space="preserve">
<g>
	<g>
		<path d="M418.688,382.72c-34.72-3.168-68.448-12-100.288-26.24c-15.808-6.976-34.08-0.608-41.728,14.592l-31.616,62.752
			c-70.848-37.6-129.344-96.096-166.944-166.944l62.784-31.616c15.232-7.68,21.632-26.016,14.592-41.696
			c-14.24-31.904-23.072-65.632-26.208-100.256C127.776,76.608,114.144,64,97.6,64H16C7.168,64,0,71.168,0,80
			c0,65.12,14.176,127.936,42.208,186.784c42.528,88.384,114.624,160.48,203.072,203.008C304.032,497.792,366.88,512,432,512
			c8.832,0,16-7.168,16-16v-81.6C448,397.856,435.392,384.256,418.688,382.72z M32.32,96.032l65.088,0.16
			c3.456,38.144,13.184,75.328,29.12,110.56l-62.176,31.296C44.96,192.832,34.208,145.216,32.32,96.032z M416,479.68
			c-49.184-1.92-96.832-12.672-142.016-32l31.36-61.952c35.072,15.68,72.224,25.408,110.656,28.672V479.68z"/>
	</g>
</g>
<g>
	<g>
		<path d="M352,0c-88.224,0-160,57.408-160,128c0,33.248,15.264,63.872,43.232,87.232L224.32,268.8
			c-1.248,6.144,1.184,12.416,6.208,16.096c2.816,2.048,6.144,3.104,9.472,3.104c2.656,0,5.344-0.672,7.744-2.016l62.24-34.496
			C323.776,254.496,337.888,256,352,256c88.224,0,160-57.408,160-128S440.224,0,352,0z M352,224c-13.568,0-27.136-1.664-40.288-4.96
			c-1.248-0.32-2.88-0.48-4.192-0.48c-2.72,0-5.376,0.672-7.744,2.016l-37.184,20.608l5.92-29.056
			c0.16-0.992,0.288-2.336,0.288-3.392c0,0,0-0.032,0-0.064s0-0.032,0-0.096c0-0.032,0-0.064,0-0.064c0-0.032,0-0.064,0-0.064
			c-0.032-1.568-0.256-3.072-0.672-4.48c-0.992-3.296-3.072-6.208-5.952-8.288C237.568,177.856,224,153.824,224,128
			c0-52.928,57.408-96,128-96s128,43.072,128,96S422.592,224,352,224z"/>
	</g>
</g>
<g>
</g>
<g>
</g>
<g>
</g>
<g>
</g>
<g>
</g>
<g>
</g>
<g>
</g>
<g>
</g>
<g>
</g>
<g>
</g>
<g>
</g>
<g>
</g>
<g>
</g>
<g>
</g>
<g>
</g>
</svg>
