<?xml version="1.0" encoding="iso-8859-1"?>
<!-- Generator: Adobe Illustrator 19.0.0, SVG Export Plug-In . SVG Version: 6.00 Build 0)  -->
<svg version="1.1" id="Capa_1" xmlns="http://www.w3.org/2000/svg" xmlns:xlink="http://www.w3.org/1999/xlink" x="0px" y="0px"
	 viewBox="0 0 480 480" style="enable-background:new 0 0 480 480;" xml:space="preserve">
<g>
	<g>
		<path d="M160,208c0-26.464-21.536-48-48-48H80c-8.832,0-16,7.168-16,16v128c0,8.832,7.168,16,16,16h32c26.464,0,48-21.536,48-48
			c0-12.352-4.8-23.488-12.48-32C155.2,231.488,160,220.352,160,208z M112,288H96v-32h16c8.8,0,16,7.168,16,16
			C128,280.832,120.8,288,112,288z M112,224H96v-32h16c8.8,0,16,7.168,16,16C128,216.832,120.8,224,112,224z"/>
	</g>
</g>
<g>
	<g>
		<path d="M272,160c-8.832,0-16,7.168-16,16v96c0,8.832-7.2,16-16,16s-16-7.168-16-16v-96c0-8.832-7.168-16-16-16
			c-8.832,0-16,7.168-16,16v96c0,26.464,21.536,48,48,48s48-21.536,48-48v-96C288,167.168,280.832,160,272,160z"/>
	</g>
</g>
<g>
	<g>
		<path d="M407.136,161.664c-7.872-3.904-17.504-0.768-21.472,7.168L368,204.224l-17.696-35.36
			c-3.968-7.936-13.536-11.072-21.472-7.168c-7.904,3.968-11.104,13.568-7.168,21.472L352,243.776V304c0,8.832,7.168,16,16,16
			c8.832,0,16-7.168,16-16v-60.224l30.304-60.64C418.24,175.232,415.04,165.632,407.136,161.664z"/>
	</g>
</g>
<g>
	<g>
		<path d="M240,0C107.648,0,0,107.648,0,240s107.648,240,240,240s240-107.648,240-240S372.352,0,240,0z M240,448
			c-114.688,0-208-93.312-208-208S125.312,32,240,32s208,93.312,208,208S354.688,448,240,448z"/>
	</g>
</g>
<g>
</g>
<g>
</g>
<g>
</g>
<g>
</g>
<g>
</g>
<g>
</g>
<g>
</g>
<g>
</g>
<g>
</g>
<g>
</g>
<g>
</g>
<g>
</g>
<g>
</g>
<g>
</g>
<g>
</g>
</svg>
