<?xml version="1.0" encoding="iso-8859-1"?>
<!-- Generator: Adobe Illustrator 19.0.0, SVG Export Plug-In . SVG Version: 6.00 Build 0)  -->
<svg version="1.1" id="Capa_1" xmlns="http://www.w3.org/2000/svg" xmlns:xlink="http://www.w3.org/1999/xlink" x="0px" y="0px"
	 viewBox="0 0 510.818 510.818" style="enable-background:new 0 0 510.818 510.818;" xml:space="preserve">
<g>
	<g>
		<path d="M502.849,193.588l-45.088-26.208l45.088-26.112c4.992-2.912,8.032-8.256,7.968-14.08
			c-0.064-5.792-3.264-11.072-8.352-13.824l-176-96c-4.864-2.656-10.848-2.592-15.68,0.192l-55.36,32.192l-55.36-32.192
			c-4.768-2.784-10.784-2.88-15.68-0.192l-176,96c-5.12,2.752-8.32,8.064-8.384,13.824c-0.064,5.824,2.976,11.168,7.968,14.048
			l45.088,26.112L7.969,193.556c-4.992,2.912-8.032,8.288-7.968,14.048c0.064,5.792,3.264,11.072,8.32,13.856l55.68,30.56v131.392
			c0,5.856,3.2,11.264,8.352,14.016l176,96c0.192,0.096,0.416,0.064,0.608,0.16c2.144,1.088,4.48,1.824,7.04,1.824
			c2.56,0,4.896-0.736,7.072-1.824c0.192-0.096,0.416-0.064,0.608-0.16l176-96c5.12-2.752,8.32-8.16,8.32-14.016V251.38
			l54.496-29.92c5.056-2.784,8.256-8.064,8.32-13.856C510.881,201.844,507.841,196.468,502.849,193.588z M319.073,49.78
			l143.104,78.016l-36.32,21.024L287.265,68.276L319.073,49.78z M48.673,127.828l143.104-78.016l31.808,18.496L84.961,148.82
			L48.673,127.828z M48.545,206.996l36.416-21.152l138.496,80.192l-32.864,19.008L48.545,206.996z M240.001,452.468l-144-78.56
			v-104.32l87.136,47.84c2.368,1.312,5.024,1.984,7.68,1.984c2.784,0,5.536-0.704,8.032-2.144l41.152-23.84V452.468z
			 M255.393,247.508l-138.56-80.224l138.56-80.512l138.56,80.512L255.393,247.508z M416.001,373.908l-144,78.56V294.1l39.968,23.136
			c2.496,1.472,5.248,2.176,8.032,2.176c2.656,0,5.312-0.672,7.68-1.984l88.32-48.48V373.908z M320.225,285.012l-32.864-19.008
			l138.496-80.192l36.416,21.184L320.225,285.012z"/>
	</g>
</g>
<g>
</g>
<g>
</g>
<g>
</g>
<g>
</g>
<g>
</g>
<g>
</g>
<g>
</g>
<g>
</g>
<g>
</g>
<g>
</g>
<g>
</g>
<g>
</g>
<g>
</g>
<g>
</g>
<g>
</g>
</svg>
