<?xml version="1.0" encoding="iso-8859-1"?>
<!-- Generator: Adobe Illustrator 19.0.0, SVG Export Plug-In . SVG Version: 6.00 Build 0)  -->
<svg version="1.1" id="Capa_1" xmlns="http://www.w3.org/2000/svg" xmlns:xlink="http://www.w3.org/1999/xlink" x="0px" y="0px"
	 viewBox="0 0 512.012 512.012" style="enable-background:new 0 0 512.012 512.012;" xml:space="preserve">
<g>
	<g>
		<path d="M441.35,3.02c-4.192-3.008-9.536-3.84-14.4-2.176l-90.432,30.144l-74.56-29.824c-3.808-1.536-8.064-1.536-11.872,0
			l-74.56,29.824L85.062,0.844c-4.896-1.664-10.24-0.832-14.4,2.176c-4.16,3.008-6.656,7.84-6.656,12.992v480
			c0,5.152,2.464,9.984,6.656,12.992c4.192,3.008,9.504,3.808,14.4,2.176l90.432-30.144l74.592,29.824
			c3.808,1.536,8.064,1.536,11.872,0l74.592-29.824l90.432,30.144c1.632,0.576,3.328,0.832,5.024,0.832
			c3.328,0,6.592-1.024,9.344-3.008c4.192-3.008,6.656-7.84,6.656-12.992v-480C448.006,10.86,445.542,6.028,441.35,3.02z
			 M416.006,473.804l-74.912-24.96c-3.584-1.216-7.488-1.088-11.008,0.32l-74.08,29.6l-74.08-29.632
			c-1.92-0.736-3.904-1.12-5.92-1.12c-1.696,0-3.424,0.256-5.056,0.832l-74.944,24.96V38.22l74.944,24.96
			c3.584,1.248,7.456,1.12,11.008-0.32l74.048-29.6l74.048,29.632c3.488,1.408,7.424,1.568,11.008,0.32l74.944-24.992V473.804z"/>
	</g>
</g>
<g>
	<g>
		<path d="M272.006,96.012h-128c-8.832,0-16,7.168-16,16c0,8.832,7.168,16,16,16h128c8.832,0,16-7.168,16-16
			C288.006,103.18,280.838,96.012,272.006,96.012z"/>
	</g>
</g>
<g>
	<g>
		<path d="M240.006,224.012h-96c-8.832,0-16,7.168-16,16c0,8.832,7.168,16,16,16h96c8.832,0,16-7.168,16-16
			C256.006,231.18,248.838,224.012,240.006,224.012z"/>
	</g>
</g>
<g>
	<g>
		<path d="M240.006,320.012h-96c-8.832,0-16,7.168-16,16c0,8.832,7.168,16,16,16h96c8.832,0,16-7.168,16-16
			C256.006,327.18,248.838,320.012,240.006,320.012z"/>
	</g>
</g>
<g>
	<g>
		<path d="M368.006,160.012h-224c-8.832,0-16,7.168-16,16c0,8.832,7.168,16,16,16h224c8.832,0,16-7.168,16-16
			C384.006,167.18,376.838,160.012,368.006,160.012z"/>
	</g>
</g>
<g>
	<g>
		<path d="M336.006,304.012c-9.76,0-16-5.248-16-8s6.24-8,16-8c4.896,0,9.248,1.184,12.544,3.36
			c7.36,4.928,17.312,2.944,22.176-4.416c4.928-7.328,2.944-17.28-4.416-22.176c-4.32-2.88-9.152-5.088-14.304-6.56v-18.208
			c0-8.832-7.168-16-16-16c-8.832,0-16,7.168-16,16v18.464c-18.592,5.504-32,20.16-32,37.536c0,22.048,21.536,40,48,40
			c9.76,0,16,5.248,16,8s-6.24,8-16,8c-4.896,0-9.248-1.184-12.544-3.36c-7.328-4.896-17.312-2.944-22.176,4.416
			c-4.928,7.328-2.944,17.28,4.416,22.176c4.352,2.912,9.184,5.088,14.336,6.56v18.208c0,8.832,7.168,16,16,16
			c8.832,0,16-7.168,16-16v-18.464c18.592-5.504,32-20.192,32-37.536C384.006,321.964,362.47,304.012,336.006,304.012z"/>
	</g>
</g>
<g>
</g>
<g>
</g>
<g>
</g>
<g>
</g>
<g>
</g>
<g>
</g>
<g>
</g>
<g>
</g>
<g>
</g>
<g>
</g>
<g>
</g>
<g>
</g>
<g>
</g>
<g>
</g>
<g>
</g>
</svg>
