<?xml version="1.0" encoding="iso-8859-1"?>
<!-- Generator: Adobe Illustrator 19.0.0, SVG Export Plug-In . SVG Version: 6.00 Build 0)  -->
<svg version="1.1" id="Capa_1" xmlns="http://www.w3.org/2000/svg" xmlns:xlink="http://www.w3.org/1999/xlink" x="0px" y="0px"
	 viewBox="0 0 480 480" style="enable-background:new 0 0 480 480;" xml:space="preserve">
<g>
	<g>
		<path d="M16,272c-8.832,0-16,7.168-16,16v128c0,8.832,7.168,16,16,16c8.832,0,16-7.168,16-16V288C32,279.168,24.832,272,16,272z"
			/>
	</g>
</g>
<g>
	<g>
		<path d="M80,272c-8.832,0-16,7.168-16,16v64c0,8.832,7.168,16,16,16c8.832,0,16-7.168,16-16v-64C96,279.168,88.832,272,80,272z"/>
	</g>
</g>
<g>
	<g>
		<path d="M144,272c-8.832,0-16,7.168-16,16v64c0,8.832,7.168,16,16,16c8.832,0,16-7.168,16-16v-64C160,279.168,152.832,272,144,272
			z"/>
	</g>
</g>
<g>
	<g>
		<path d="M16,48C7.168,48,0,55.168,0,64v96c0,8.832,7.168,16,16,16c8.832,0,16-7.168,16-16V64C32,55.168,24.832,48,16,48z"/>
	</g>
</g>
<g>
	<g>
		<path d="M80,48c-8.832,0-16,7.168-16,16v96c0,8.832,7.168,16,16,16c8.832,0,16-7.168,16-16V64C96,55.168,88.832,48,80,48z"/>
	</g>
</g>
<g>
	<g>
		<path d="M144,48c-8.832,0-16,7.168-16,16v96c0,8.832,7.168,16,16,16c8.832,0,16-7.168,16-16V64C160,55.168,152.832,48,144,48z"/>
	</g>
</g>
<g>
	<g>
		<path d="M208,48c-8.832,0-16,7.168-16,16v96c0,8.832,7.168,16,16,16c8.832,0,16-7.168,16-16V64C224,55.168,216.832,48,208,48z"/>
	</g>
</g>
<g>
	<g>
		<path d="M272,48c-8.832,0-16,7.168-16,16v96c0,8.832,7.168,16,16,16c8.832,0,16-7.168,16-16V64C288,55.168,280.832,48,272,48z"/>
	</g>
</g>
<g>
	<g>
		<path d="M336,48c-8.832,0-16,7.168-16,16v96c0,8.832,7.168,16,16,16c8.832,0,16-7.168,16-16V64C352,55.168,344.832,48,336,48z"/>
	</g>
</g>
<g>
	<g>
		<path d="M400,48c-8.832,0-16,7.168-16,16v96c0,8.832,7.168,16,16,16c8.832,0,16-7.168,16-16V64C416,55.168,408.832,48,400,48z"/>
	</g>
</g>
<g>
	<g>
		<path d="M464,48c-8.832,0-16,7.168-16,16v96c0,8.832,7.168,16,16,16c8.832,0,16-7.168,16-16V64C480,55.168,472.832,48,464,48z"/>
	</g>
</g>
<g>
	<g>
		<path d="M336,272c-8.832,0-16,7.168-16,16v64c0,8.832,7.168,16,16,16c8.832,0,16-7.168,16-16v-64C352,279.168,344.832,272,336,272
			z"/>
	</g>
</g>
<g>
	<g>
		<path d="M400,272c-8.832,0-16,7.168-16,16v64c0,8.832,7.168,16,16,16c8.832,0,16-7.168,16-16v-64C416,279.168,408.832,272,400,272
			z"/>
	</g>
</g>
<g>
	<g>
		<path d="M208,272c-8.832,0-16,7.168-16,16v128c0,8.832,7.168,16,16,16c8.832,0,16-7.168,16-16V288
			C224,279.168,216.832,272,208,272z"/>
	</g>
</g>
<g>
	<g>
		<path d="M272,272c-8.832,0-16,7.168-16,16v64c0,8.832,7.168,16,16,16c8.832,0,16-7.168,16-16v-64C288,279.168,280.832,272,272,272
			z"/>
	</g>
</g>
<g>
	<g>
		<path d="M464,272c-8.832,0-16,7.168-16,16v128c0,8.832,7.168,16,16,16c8.832,0,16-7.168,16-16V288
			C480,279.168,472.832,272,464,272z"/>
	</g>
</g>
<g>
	<g>
		<path d="M80.64,400h-0.32c-8.832,0-15.84,7.168-15.84,16c0,8.832,7.328,16,16.16,16c8.832,0,16-7.168,16-16
			C96.64,407.168,89.472,400,80.64,400z"/>
	</g>
</g>
<g>
	<g>
		<path d="M144.64,400h-0.32c-8.832,0-15.84,7.168-15.84,16c0,8.832,7.328,16,16.16,16c8.832,0,16-7.168,16-16
			C160.64,407.168,153.472,400,144.64,400z"/>
	</g>
</g>
<g>
	<g>
		<path d="M336.64,400h-0.32c-8.832,0-15.84,7.168-15.84,16c0,8.832,7.328,16,16.16,16c8.832,0,16-7.168,16-16
			C352.64,407.168,345.472,400,336.64,400z"/>
	</g>
</g>
<g>
	<g>
		<path d="M400.64,400h-0.32c-8.832,0-15.84,7.168-15.84,16c0,8.832,7.328,16,16.16,16c8.832,0,16-7.168,16-16
			C416.64,407.168,409.472,400,400.64,400z"/>
	</g>
</g>
<g>
	<g>
		<path d="M272.64,400h-0.32c-8.832,0-15.84,7.168-15.84,16c0,8.832,7.328,16,16.16,16c8.832,0,16-7.168,16-16
			C288.64,407.168,281.472,400,272.64,400z"/>
	</g>
</g>
<g>
	<g>
		<path d="M464,208H16c-8.832,0-16,7.168-16,16c0,8.832,7.168,16,16,16h448c8.832,0,16-7.168,16-16C480,215.168,472.832,208,464,208
			z"/>
	</g>
</g>
<g>
</g>
<g>
</g>
<g>
</g>
<g>
</g>
<g>
</g>
<g>
</g>
<g>
</g>
<g>
</g>
<g>
</g>
<g>
</g>
<g>
</g>
<g>
</g>
<g>
</g>
<g>
</g>
<g>
</g>
</svg>
