<?xml version="1.0" encoding="iso-8859-1"?>
<!-- Generator: Adobe Illustrator 19.0.0, SVG Export Plug-In . SVG Version: 6.00 Build 0)  -->
<svg version="1.1" id="Capa_1" xmlns="http://www.w3.org/2000/svg" xmlns:xlink="http://www.w3.org/1999/xlink" x="0px" y="0px"
	 viewBox="0 0 512 512" style="enable-background:new 0 0 512 512;" xml:space="preserve">
<g>
	<g>
		<path d="M304,352.003h-32v-32c0-8.832-7.168-16-16-16c-8.832,0-16,7.168-16,16v32h-32c-8.832,0-16,7.168-16,16
			c0,8.832,7.168,16,16,16h32v32c0,8.832,7.168,16,16,16c8.832,0,16-7.168,16-16v-32h32c8.832,0,16-7.168,16-16
			C320,359.171,312.832,352.003,304,352.003z"/>
	</g>
</g>
<g>
	<g>
		<path d="M496,144.003h-86.112L350.304,24.835c-3.968-7.904-13.536-11.072-21.472-7.168c-7.904,3.968-11.104,13.568-7.168,21.472
			l52.448,104.864H137.888l52.416-104.832c3.968-7.904,0.736-17.504-7.168-21.472c-7.84-3.904-17.504-0.736-21.44,7.136
			l-59.584,119.168H16c-8.832,0-16,7.168-16,16v64c0,8.832,7.168,16,16,16h19.52l60.96,243.872
			c1.792,7.136,8.192,12.128,15.52,12.128h288c7.328,0,13.728-4.992,15.52-12.128l60.96-243.872H496c8.832,0,16-7.168,16-16v-64
			C512,151.171,504.832,144.003,496,144.003z M387.488,464.003H124.512l-56.032-224h375.04L387.488,464.003z M480,208.003H32v-32
			h448V208.003z"/>
	</g>
</g>
<g>
</g>
<g>
</g>
<g>
</g>
<g>
</g>
<g>
</g>
<g>
</g>
<g>
</g>
<g>
</g>
<g>
</g>
<g>
</g>
<g>
</g>
<g>
</g>
<g>
</g>
<g>
</g>
<g>
</g>
</svg>
