<?xml version="1.0" encoding="iso-8859-1"?>
<!-- Generator: Adobe Illustrator 19.0.0, SVG Export Plug-In . SVG Version: 6.00 Build 0)  -->
<svg version="1.1" id="Capa_1" xmlns="http://www.w3.org/2000/svg" xmlns:xlink="http://www.w3.org/1999/xlink" x="0px" y="0px"
	 viewBox="0 0 512 512" style="enable-background:new 0 0 512 512;" xml:space="preserve">
<g>
	<g>
		<path d="M418.688,350.72c-34.72-3.168-68.448-12-100.288-26.24c-15.808-7.008-34.08-0.64-41.728,14.592l-31.616,62.752
			c-70.848-37.6-129.344-96.096-166.944-166.944l62.784-31.616c15.232-7.616,21.632-25.952,14.592-41.664
			c-14.24-31.936-23.072-65.664-26.208-100.288C127.776,44.608,114.144,32,97.6,32H16C7.168,32,0,39.168,0,48
			c0,65.12,14.176,127.936,42.208,186.784c42.528,88.384,114.624,160.48,203.072,203.008C304.032,465.792,366.88,480,432,480
			c8.832,0,16-7.168,16-16v-81.6C448,365.856,435.392,352.256,418.688,350.72z M32.32,64.032l65.088,0.16
			c3.456,38.144,13.184,75.328,29.12,110.56l-62.176,31.296C44.96,160.832,34.208,113.216,32.32,64.032z M416,447.68
			c-49.184-1.92-96.832-12.672-142.016-32l31.36-61.952c35.072,15.68,72.224,25.408,110.656,28.672V447.68z"/>
	</g>
</g>
<g>
	<g>
		<path d="M304,176c26.464,0,48-21.536,48-48v-16c0-26.464-21.536-48-48-48h-64c-8.832,0-16,7.168-16,16c0,8.832,7.168,16,16,16h64
			c8.8,0,16,7.168,16,16v16c0,8.832-7.2,16-16,16c-44.128,0-80,35.904-80,80v16c0,8.832,7.168,16,16,16h96c8.832,0,16-7.168,16-16
			c0-8.832-7.168-16-16-16h-80C256,197.536,277.536,176,304,176z"/>
	</g>
</g>
<g>
	<g>
		<path d="M496,64c-8.832,0-16,7.168-16,16v80h-57.824l24.992-74.944c2.784-8.384-1.76-17.44-10.112-20.224
			c-8.352-2.752-17.408,1.728-20.256,10.112l-32,96c-1.6,4.864-0.8,10.24,2.24,14.4c2.976,4.192,7.808,6.656,12.96,6.656h80v48
			c0,8.832,7.168,16,16,16c8.832,0,16-7.168,16-16V80C512,71.168,504.832,64,496,64z"/>
	</g>
</g>
<g>
</g>
<g>
</g>
<g>
</g>
<g>
</g>
<g>
</g>
<g>
</g>
<g>
</g>
<g>
</g>
<g>
</g>
<g>
</g>
<g>
</g>
<g>
</g>
<g>
</g>
<g>
</g>
<g>
</g>
</svg>
